<?xml version="1.0" encoding="UTF-8"?>
<svg id="Layer_2" data-name="Layer 2" xmlns="http://www.w3.org/2000/svg" xmlns:xlink="http://www.w3.org/1999/xlink" viewBox="0 0 820 49">
  <defs>
    <style>
      .cls-1 {
        fill: #fff;
      }

      .cls-2 {
        fill: rgba(156, 156, 156, .2);
      }

      .cls-3 {
        fill: #0d0b26;
      }

      .cls-4 {
        fill: none;
        mask: url(#mask);
      }

      .cls-5 {
        fill-rule: evenodd;
      }
    </style>
    <mask id="mask" x="0" y="0" width="820" height="49" maskUnits="userSpaceOnUse">
      <g id="path-1-inside-1_538_3566" data-name="path-1-inside-1 538 3566">
        <path class="cls-1" d="m0,12C0,5.37,5.37,0,12,0h796c6.63,0,12,5.37,12,12v36H0V12Z"/>
      </g>
    </mask>
  </defs>
  <g id="Layer_1-2" data-name="Layer 1">
    <path class="cls-1" d="m0,12C0,5.37,5.37,0,12,0h796c6.63,0,12,5.37,12,12v36H0V12Z"/>
    <g class="cls-4">
      <path class="cls-2" d="m0,0h820H0Zm820,49H0v-2h820v2ZM0,48V0v48ZM820,0v48V0Z"/>
    </g>
    <path class="cls-5" d="m35.53,20.86c0,1.96-1.57,3.53-3.53,3.53s-3.53-1.57-3.53-3.53,1.57-3.53,3.53-3.53,3.53,1.57,3.53,3.53Zm-3.53,9.81c-2.89,0-5.33-.47-5.33-2.28s2.46-2.27,5.33-2.27,5.33.47,5.33,2.28-2.46,2.27-5.33,2.27Z"/>
    <path class="cls-3" d="m58.45,25.64h-5.06v4.86h-1.81v-11.17h1.81v4.7h5.06v-4.7h1.81v11.17h-1.81v-4.86Zm7.69,5.06c-.6,0-1.13-.1-1.6-.3s-.87-.49-1.2-.86c-.33-.38-.59-.84-.77-1.38-.17-.54-.26-1.15-.26-1.81s.09-1.26.26-1.79c.18-.54.44-1,.77-1.38.33-.38.73-.68,1.2-.88s1-.3,1.6-.3,1.14.11,1.6.32c.47.21.86.51,1.17.9.31.37.54.81.69,1.31.16.5.24,1.04.24,1.62v.66h-5.71v.27c0,.64.19,1.17.56,1.58.38.41.93.61,1.63.61.51,0,.94-.11,1.3-.34.35-.22.65-.53.9-.91l1.02,1.01c-.31.51-.76.92-1.34,1.23-.59.3-1.27.45-2.05.45Zm0-7.34c-.3,0-.58.05-.83.16-.25.11-.46.26-.64.45-.17.19-.3.42-.4.69-.1.27-.14.56-.14.88v.11h3.87v-.16c0-.64-.17-1.15-.5-1.54-.33-.39-.78-.59-1.36-.59Zm11.72,7.15c-.46,0-.81-.13-1.06-.38-.25-.27-.39-.6-.45-1.01h-.08c-.16.52-.45.92-.88,1.18-.43.27-.94.4-1.55.4-.86,0-1.53-.22-2-.67-.46-.45-.69-1.05-.69-1.81,0-.83.3-1.46.9-1.87.61-.42,1.49-.62,2.66-.62h1.5v-.7c0-.51-.14-.91-.42-1.18-.28-.28-.71-.42-1.3-.42-.49,0-.89.11-1.2.32-.31.21-.57.49-.78.82l-1.04-.94c.28-.47.67-.85,1.17-1.15.5-.31,1.16-.46,1.97-.46,1.08,0,1.9.25,2.48.75.58.5.86,1.22.86,2.16v4.18h.88v1.42h-.98Zm-3.52-1.14c.54,0,.99-.12,1.34-.35.35-.25.53-.57.53-.98v-1.2h-1.47c-1.21,0-1.81.37-1.81,1.12v.29c0,.37.12.66.37.85.26.18.6.27,1.04.27Zm11.44-.24h-.08c-.18.49-.48.87-.9,1.15-.41.28-.89.42-1.44.42-1.06,0-1.87-.38-2.45-1.14-.58-.77-.86-1.84-.86-3.22s.29-2.44.86-3.2c.58-.77,1.39-1.15,2.45-1.15.55,0,1.03.14,1.44.42.42.27.71.65.9,1.15h.08v-4.9h1.74v11.84h-1.74v-1.38Zm-1.89.06c.53,0,.98-.13,1.34-.38.36-.27.54-.61.54-1.04v-2.85c0-.43-.18-.77-.54-1.02-.36-.27-.81-.4-1.34-.4-.61,0-1.09.2-1.46.59-.36.38-.54.9-.54,1.54v1.44c0,.64.18,1.16.54,1.55.36.38.85.58,1.46.58Zm9.39,1.5c-.6,0-1.13-.1-1.6-.3-.47-.2-.87-.49-1.2-.86-.33-.38-.59-.84-.77-1.38-.17-.54-.26-1.15-.26-1.81s.09-1.26.26-1.79c.18-.54.44-1,.77-1.38.33-.38.73-.68,1.2-.88.47-.2,1-.3,1.6-.3s1.14.11,1.6.32c.47.21.86.51,1.17.9.31.37.54.81.69,1.31.16.5.24,1.04.24,1.62v.66h-5.71v.27c0,.64.19,1.17.56,1.58.38.41.93.61,1.63.61.51,0,.94-.11,1.3-.34.35-.22.65-.53.9-.91l1.02,1.01c-.31.51-.76.92-1.34,1.23-.59.3-1.27.45-2.05.45Zm0-7.34c-.3,0-.58.05-.83.16-.25.11-.46.26-.64.45-.17.19-.3.42-.4.69-.1.27-.14.56-.14.88v.11h3.87v-.16c0-.64-.17-1.15-.5-1.54-.33-.39-.78-.59-1.36-.59Zm5.63,7.15v-8.32h1.74v1.6h.08c.12-.43.36-.8.74-1.12s.89-.48,1.55-.48h.46v1.68h-.69c-.69,0-1.23.11-1.6.34-.36.22-.54.55-.54.99v5.31h-1.74Z"/>
  </g>
</svg>