<svg width="13" height="15" viewBox="0 0 13 15" fill="none" xmlns="http://www.w3.org/2000/svg">
<g id="Document">
<path id="Document_2" fill-rule="evenodd" clip-rule="evenodd" d="M3.98401 0.84021H9.57134C11.6307 0.84021 12.7773 2.02688 12.7773 4.06021V10.9469C12.7773 13.0135 11.6307 14.1735 9.57134 14.1735H3.98401C1.95734 14.1735 0.777344 13.0135 0.777344 10.9469V4.06021C0.777344 2.02688 1.95734 0.84021 3.98401 0.84021ZM4.16401 3.94688V3.94021H6.15668C6.44401 3.94021 6.67734 4.17354 6.67734 4.45954C6.67734 4.75354 6.44401 4.98688 6.15668 4.98688H4.16401C3.87668 4.98688 3.64401 4.75354 3.64401 4.46688C3.64401 4.18021 3.87668 3.94688 4.16401 3.94688ZM4.16401 8.00021H9.39068C9.67734 8.00021 9.91068 7.76688 9.91068 7.48021C9.91068 7.19354 9.67734 6.95954 9.39068 6.95954H4.16401C3.87668 6.95954 3.64401 7.19354 3.64401 7.48021C3.64401 7.76688 3.87668 8.00021 4.16401 8.00021ZM4.16401 11.0469H9.39068C9.65668 11.0202 9.85734 10.7929 9.85734 10.5269C9.85734 10.2535 9.65668 10.0269 9.39068 10.0002H4.16401C3.96401 9.98021 3.77068 10.0735 3.66401 10.2469C3.55734 10.4135 3.55734 10.6335 3.66401 10.8069C3.77068 10.9735 3.96401 11.0735 4.16401 11.0469Z" fill="black"/>
</g>
</svg>
