<svg width="13" height="14" viewBox="0 0 13 14" fill="none" xmlns="http://www.w3.org/2000/svg">
<g id="download">
<g id="Union">
<path d="M6.10646 2.02901C6.10554 1.73615 6.3422 1.49799 6.63506 1.49707C6.92792 1.49615 7.16608 1.73282 7.167 2.02568L6.10646 2.02901Z" fill="#002C7C"/>
<path d="M7.8647 5.89075L7.18128 6.57847L7.167 2.02568L6.10646 2.02901L6.12074 6.5818L5.43301 5.89838C5.22528 5.69194 4.88952 5.69299 4.68309 5.90072C4.47665 6.10845 4.47771 6.4442 4.68544 6.65064L4.68677 6.65196L4.6873 6.65248L6.65738 8.61024L8.60968 6.64565L8.61263 6.64268L8.61305 6.64225L8.61345 6.64185L8.61658 6.6387L8.61697 6.63831L7.8647 5.89075Z" fill="#002C7C"/>
<path d="M8.61697 6.63831C8.8234 6.43058 8.82236 6.09482 8.61463 5.88839C8.40689 5.68195 8.07114 5.68302 7.8647 5.89075L8.61697 6.63831Z" fill="#002C7C"/>
<path d="M2.39453 6.79482C2.39453 6.20909 2.86935 5.73427 3.45508 5.73427C3.74794 5.73427 3.98535 5.49686 3.98535 5.204C3.98535 4.91113 3.74794 4.67372 3.45508 4.67372C2.28363 4.67372 1.33398 5.62337 1.33398 6.79482L1.33398 9.97646C1.33398 11.1479 2.28363 12.0976 3.45508 12.0976H9.28809C10.7524 12.0976 11.9395 10.9105 11.9395 9.44618V6.79482C11.9395 5.62337 10.9898 4.67372 9.81836 4.67372C9.5255 4.67372 9.28809 4.91113 9.28809 5.204C9.28809 5.49686 9.5255 5.73427 9.81836 5.73427C10.4041 5.73427 10.8789 6.20909 10.8789 6.79482V9.44618C10.8789 10.3248 10.1667 11.037 9.28809 11.037H3.45508C2.86935 11.037 2.39453 10.5622 2.39453 9.97646L2.39453 6.79482Z" fill="#002C7C"/>
</g>
</g>
</svg>
