<svg width="18" height="18" viewBox="0 0 18 18" fill="none" xmlns="http://www.w3.org/2000/svg">
<g id="edit">
<path id="Edit" fill-rule="evenodd" clip-rule="evenodd" d="M7.2085 4.31464C6.52435 3.63049 5.41511 3.63049 4.73095 4.31464L4.23544 4.81015C3.55128 5.49431 3.55128 6.60355 4.23544 7.28771L9.93381 12.9861L12.2061 12.9861C12.5931 12.9861 12.9069 12.6723 12.9069 12.2853L12.9069 10.013L7.2085 4.31464ZM5.72197 5.30566L5.22646 5.80117C5.08963 5.93801 5.08963 6.15985 5.22646 6.29668L5.96973 7.03995L6.96075 6.04893L6.21748 5.30566C6.08065 5.16883 5.8588 5.16883 5.72197 5.30566ZM6.96075 8.03097L10.5143 11.5846L11.5054 11.5846L11.5054 10.5935L7.95177 7.03995L6.96075 8.03097Z" fill="black"/>
</g>
</svg>
