<svg width="17" height="16" viewBox="0 0 17 16" fill="none" xmlns="http://www.w3.org/2000/svg">
<g id="fi-sr-award" clip-path="url(#clip0_1765_17352)">
<path id="Vector" d="M9.83341 6.33317C9.83341 7.0685 9.23541 7.6665 8.50008 7.6665C7.76474 7.6665 7.16674 7.0685 7.16674 6.33317C7.16674 5.59783 7.76474 4.99983 8.50008 4.99983C9.23541 4.99983 9.83341 5.59783 9.83341 6.33317ZM14.6121 5.47783C14.4527 5.1905 14.2407 4.9705 14.0001 4.8145C13.5707 4.53717 13.3421 4.02717 13.4554 3.52917C13.5201 3.24317 13.5161 2.93117 13.4234 2.6085C13.2594 2.03583 12.7927 1.56917 12.2201 1.40517C11.8974 1.3125 11.5854 1.3085 11.3001 1.37317C10.8014 1.4865 10.2914 1.2585 10.0141 0.8285C9.85874 0.587833 9.63808 0.375833 9.35141 0.2165C8.83008 -0.0721667 8.17074 -0.0721667 7.64941 0.2165C7.36208 0.375833 7.14208 0.587833 6.98674 0.8285C6.70941 1.25783 6.19941 1.4865 5.70074 1.37317C5.41541 1.3085 5.10341 1.3125 4.78074 1.40517C4.20808 1.56917 3.74141 2.03583 3.57741 2.6085C3.48474 2.93117 3.48074 3.24383 3.54541 3.52917C3.65874 4.02783 3.43008 4.53783 3.00074 4.8145C2.75941 4.96983 2.54808 5.1905 2.38874 5.47783C2.24274 5.7405 2.17208 6.03917 2.17341 6.33717C2.17208 6.63517 2.24341 6.93317 2.38874 7.1965C2.54808 7.48383 2.76008 7.70383 3.00074 7.85983C3.43008 8.13717 3.65874 8.64717 3.54541 9.14517C3.48074 9.43117 3.48474 9.74317 3.57741 10.0665C3.74141 10.6392 4.20808 11.1058 4.78074 11.2698C5.10341 11.3625 5.41541 11.3665 5.70074 11.3018C6.19941 11.1885 6.70941 11.4165 6.98674 11.8465C7.14208 12.0872 7.36208 12.2992 7.64941 12.4585C8.17074 12.7472 8.83074 12.7472 9.35141 12.4585C9.63874 12.2992 9.85874 12.0872 10.0141 11.8465C10.2914 11.4172 10.8014 11.1885 11.3001 11.3018C11.5854 11.3665 11.8974 11.3625 12.2201 11.2698C12.7927 11.1058 13.2594 10.6392 13.4234 10.0665C13.5161 9.74383 13.5201 9.43117 13.4554 9.14517C13.3421 8.6465 13.5707 8.1365 14.0001 7.85983C14.2414 7.7045 14.4527 7.48383 14.6121 7.1965C14.7581 6.93383 14.8287 6.63517 14.8274 6.33717C14.8287 6.03917 14.7574 5.74117 14.6121 5.47783ZM8.49274 9.00117C7.02208 9.00117 5.82608 7.80517 5.82608 6.3345C5.82608 4.86383 7.02208 3.66783 8.49274 3.66783C9.96341 3.66783 11.1594 4.86383 11.1594 6.3345C11.1594 7.80517 9.96341 9.00117 8.49274 9.00117ZM5.90074 12.6212C5.41674 12.7158 4.90341 12.6918 4.41341 12.5512C3.46274 12.2792 2.69608 11.5472 2.36274 10.6218L0.82541 12.1038C0.177411 12.7292 0.555411 13.8265 1.45141 13.9192L2.62808 14.0405L2.77341 15.0858C2.89274 15.9465 3.94074 16.3045 4.56208 15.6972L6.82941 13.4998C6.46074 13.2632 6.14074 12.9772 5.90074 12.6212ZM10.1714 13.4998L12.4387 15.6972C13.0601 16.3045 14.1081 15.9465 14.2274 15.0858L14.3727 14.0405L15.5494 13.9192C16.4454 13.8265 16.8234 12.7292 16.1754 12.1038L14.6381 10.6218C14.3047 11.5472 13.5381 12.2792 12.5874 12.5512C12.0974 12.6918 11.5841 12.7158 11.1001 12.6212C10.8601 12.9772 10.5401 13.2632 10.1714 13.4998Z" fill="black"/>
</g>
<defs>
<clipPath id="clip0_1765_17352">
<rect width="16" height="16" fill="white" transform="translate(0.5)"/>
</clipPath>
</defs>
</svg>
