<svg width="16" height="16" viewBox="0 0 16 16" fill="none" xmlns="http://www.w3.org/2000/svg">
<g id="Frame">
<g id="Vector">
<path fill-rule="evenodd" clip-rule="evenodd" d="M11.9929 6.04621L11.3083 6.73079L12.602 8.0244L13.2867 7.33982C13.2652 7.26664 13.2367 7.18492 13.2012 7.0995C13.1016 6.86008 12.968 6.64175 12.8296 6.5033C12.6911 6.36484 12.4727 6.23127 12.2333 6.1317C12.1479 6.09617 12.0661 6.06766 11.9929 6.04621ZM11.6592 8.96717L10.3655 7.67357L6.92291 11.1159C6.50551 11.5332 6.25873 12.2122 6.12676 12.8721C6.09852 13.0133 6.07652 13.1486 6.0594 13.2735C6.18415 13.2563 6.31921 13.2343 6.46023 13.2061C7.11984 13.0741 7.79883 12.8272 8.21669 12.4094L11.6592 8.96717ZM5.33325 13.9997C4.66659 13.9997 4.66659 13.9993 4.66659 13.9993L4.66659 13.998L4.66659 13.9954L4.66664 13.9879L4.66695 13.9634C4.66728 13.9429 4.66793 13.9143 4.66917 13.8784C4.67164 13.8067 4.67649 13.7055 4.68602 13.5815C4.70502 13.3346 4.74295 12.9925 4.81931 12.6107C4.96692 11.8725 5.27927 10.8738 5.98014 10.173L11.2919 4.8616C11.4156 4.73794 11.5829 4.66783 11.7578 4.66636C12.0504 4.66392 12.4208 4.76564 12.7452 4.90057C13.0828 5.04093 13.47 5.25816 13.7723 5.56045C14.0747 5.86275 14.2919 6.24996 14.4323 6.58751C14.5672 6.91199 14.669 7.28232 14.6665 7.57497C14.6651 7.74986 14.5949 7.91717 14.4713 8.04084L9.15946 13.3522C8.45837 14.0533 7.45995 14.3658 6.72188 14.5135C6.34011 14.5899 5.99815 14.6279 5.75126 14.6469C5.62736 14.6564 5.5262 14.6613 5.4545 14.6638C5.41863 14.665 5.39004 14.6656 5.36957 14.666L5.34504 14.6663L5.33751 14.6663L5.33497 14.6663L5.33401 14.6663C5.33401 14.6663 5.33325 14.6663 5.33325 13.9997ZM5.33325 13.9997V14.6663C4.96506 14.6663 4.66659 14.3675 4.66659 13.9993L5.33325 13.9997Z" fill="#45434E"/>
<path fill-rule="evenodd" clip-rule="evenodd" d="M4.99992 1.33301C5.28687 1.33301 5.54163 1.51663 5.63237 1.78886L6.27697 3.72263L8.21074 4.36722C8.48297 4.45796 8.66659 4.71272 8.66659 4.99967C8.66659 5.28663 8.48297 5.54139 8.21074 5.63213L6.27697 6.27672L5.63237 8.21049C5.54163 8.48272 5.28687 8.66634 4.99992 8.66634C4.71297 8.66634 4.45821 8.48272 4.36746 8.21049L3.72287 6.27672L1.7891 5.63213C1.51687 5.54139 1.33325 5.28663 1.33325 4.99967C1.33325 4.71272 1.51687 4.45796 1.7891 4.36722L3.72287 3.72263L4.36746 1.78886C4.45821 1.51663 4.71297 1.33301 4.99992 1.33301ZM4.99992 4.10786L4.88237 4.46049C4.81602 4.65956 4.65981 4.81577 4.46074 4.88213L4.1081 4.99967L4.46074 5.11722C4.65981 5.18358 4.81602 5.33979 4.88237 5.53886L4.99992 5.89149L5.11746 5.53886C5.18382 5.33979 5.34003 5.18358 5.5391 5.11722L5.89173 4.99967L5.5391 4.88213C5.34003 4.81577 5.18382 4.65956 5.11746 4.46049L4.99992 4.10786Z" fill="#45434E"/>
</g>
</g>
</svg>
