<svg width="21" height="21" viewBox="0 0 21 21" fill="none" xmlns="http://www.w3.org/2000/svg">
<g id="GraduationCap">
<path id="Vector" d="M14.5271 16.9729C14.9583 16.803 15.3761 16.6011 15.7771 16.369V19.5322C15.7771 19.698 15.7113 19.857 15.5941 19.9742C15.4769 20.0914 15.3179 20.1572 15.1521 20.1572C14.9864 20.1572 14.8274 20.0914 14.7102 19.9742C14.593 19.857 14.5271 19.698 14.5271 19.5322V16.9729ZM15.4459 10.0643L11.0709 7.73068C10.9249 7.65613 10.7555 7.64189 10.5992 7.69105C10.4428 7.74021 10.312 7.84882 10.235 7.99349C10.1579 8.13815 10.1408 8.3073 10.1872 8.46448C10.2337 8.62166 10.3401 8.75429 10.4834 8.83381L14.1365 10.7822L15.4646 10.0744L15.4459 10.0643ZM20.4459 7.73068L11.0709 2.73068C10.9805 2.68253 10.8796 2.65735 10.7771 2.65735C10.6747 2.65735 10.5738 2.68253 10.4834 2.73068L1.1084 7.73068C1.0084 7.78397 0.924774 7.86345 0.866461 7.9606C0.808148 8.05776 0.777344 8.16893 0.777344 8.28224C0.777344 8.39556 0.808148 8.50673 0.866461 8.60389C0.924774 8.70104 1.0084 8.78052 1.1084 8.83381L3.27715 9.99084V13.7737C3.2765 14.0806 3.38948 14.377 3.59434 14.6057C4.61777 15.7455 6.91074 17.6572 10.7771 17.6572C12.0591 17.6678 13.3315 17.4356 14.5271 16.9729V10.9908L14.1365 10.7822L10.7771 12.5737L4.20137 9.06349L2.73027 8.28224L10.7771 3.99084L18.824 8.28224L17.3568 9.06349H17.3521L15.4646 10.0744C15.5597 10.1293 15.6386 10.2082 15.6934 10.3033C15.7483 10.3983 15.7772 10.5061 15.7771 10.6158V16.369C16.5922 15.8985 17.3286 15.3035 17.96 14.6057C18.1648 14.377 18.2778 14.0806 18.2771 13.7737V9.99084L20.4459 8.83381C20.5459 8.78052 20.6295 8.70104 20.6878 8.60389C20.7461 8.50673 20.777 8.39556 20.777 8.28224C20.777 8.16893 20.7461 8.05776 20.6878 7.9606C20.6295 7.86345 20.5459 7.78397 20.4459 7.73068Z" fill="black"/>
</g>
</svg>
