<?xml version="1.0" encoding="UTF-8"?>
<svg id="Layer_2" data-name="Layer 2" xmlns="http://www.w3.org/2000/svg" viewBox="0 0 43.08 24.87">
  <defs>
    <style>
      .cls-1 {
        fill: #c7d8f2;
      }

      .cls-2 {
        fill: #dee8f9;
      }

      .cls-3 {
        fill: #2d72ed;
      }

      .cls-4 {
        fill: #395d9d;
      }

      .cls-5 {
        fill: #728ebe;
      }

      .cls-6 {
        fill: #cddff7;
      }
    </style>
  </defs>
  <g id="Layer_1-2" data-name="Layer 1">
    <g>
      <path class="cls-4" d="m18.19,2.12c1.24.99,3.39,4.17,6.14,6.4,1.61,1.31,2.85.97,4.9,1.22,9.74,1.18,7.1,3.17,8.27,3.36-.33.76-3.37,7.21-3.93,8.52-.19.55-.57,1.01-1.07,1.3-.5.29-1.1.38-1.66.26-2.01-.28-4.05-.49-6.03-.92-5.08-1.1-7.91-3.64-11.55-6.73-.45-.34-.77-.82-.9-1.37-.13-.55-.06-1.13.2-1.63,1.63-3.6,3.52-7.08,5.64-10.42Z"/>
      <path class="cls-5" d="m16.91,17.93c.65.55,1.28,1.09,1.9,1.61-1.95-1.3-3.8-2.73-5.54-4.3-.45-.33-.77-.82-.9-1.37-.13-.55-.06-1.13.2-1.63,1.63-3.6,3.52-7.09,5.65-10.42,1.12,1.11,2.17,2.27,3.17,3.49-1.96,3.08-3.69,6.3-5.17,9.63-.26.5-.33,1.08-.2,1.63.13.55.45,1.03.9,1.37Z"/>
      <path class="cls-5" d="m38.56,20.86c-.04,2.12.12,2.55-.79,2.23-.55-.2-1.08-.44-1.6-.71-.37-.19-.38-.44-.08-.74.43-.43.88-.86,1.31-1.28-.15-.41-.15-.87,0-1.28.15-.41.44-.76.82-.98.16-.09.04.1,1.4-3.02-4.48-.55-7.65-.93-13.12-1.6-1.44-.17-2.79-.76-3.9-1.69-3.91-3.27-7.82-6.54-11.72-9.81-.12-.09-.23-.2-.3-.33-.08-.13-.12-.28-.14-.43-.02-.15,0-.3.05-.45.05-.14.12-.28.22-.39.15-.16.34-.28.56-.34.21-.06.44-.06.65,0,1.25.16,13.49,1.68,14.74,1.82,1.6.17,3.11.82,4.33,1.86,3.84,3.22,7.68,6.42,11.54,9.63.53.44.67.84.49,1.33-.04.13-.11.25-.2.35-.09.1-.2.19-.32.25-.12.06-.26.1-.39.1-.14,0-.27-.01-.4-.06-.49-.1-.7.04-.87.49-.75,2.03-1.28,2.48-1.1,3.22.14.57-.54,1.56-1.16,1.81Z"/>
      <path class="cls-2" d="m.04,5.45l2.12,2.02c5.01,4.78,9.1,10.44,12.05,16.7l.32.69s5.55.49,6.32-4.52c-4.82-5.41-8.91-11.42-12.18-17.89L7.67.1.04,5.45Z"/>
      <path class="cls-6" d="m7.67.09c.27.39-1.22,1.9-3.32,3.37C2.25,4.93.3,5.82.03,5.43c-.27-.39,1.22-1.92,3.33-3.39C5.47.58,7.4-.3,7.67.09Z"/>
      <path class="cls-1" d="m7.68.11h0S3.45,3.67,1.71,4.04l.54.73c.72-.4,1.42-.83,2.1-1.31C6.43,2.01,7.91.52,7.68.11Z"/>
      <path class="cls-3" d="m13.32,10.48c0,.62-.23,3.28-4.65,4.39.29.4.58.8.86,1.2,2.8-.83,4.06-2.27,4.63-3.36.09-.17.2-.41.27-.58-.37-.54-.74-1.09-1.1-1.64Z"/>
      <path class="cls-3" d="m9.07,14.08l-6.51-.23,1.54,1.31-.92,1.67,6.16-1.57-.27-1.18Z"/>
      <path class="cls-3" d="m9.66,15.6l-2.31,4.03,1.63-.62.63,1.28,1.09-4.24-1.03-.45Z"/>
      <path class="cls-3" d="m10.54,16.69c-.42.04-.85-.04-1.23-.24-.38-.2-.68-.51-.88-.89-.2-.38-.28-.8-.24-1.23.05-.42.22-.82.49-1.15s.64-.56,1.05-.68c.41-.12.84-.11,1.25.02.4.13.76.38,1.02.72.26.34.42.74.45,1.17.05.56-.13,1.11-.49,1.54-.36.43-.87.69-1.43.74Z"/>
    </g>
  </g>
</svg>