<svg width="24" height="24" viewBox="0 0 24 24" fill="none" xmlns="http://www.w3.org/2000/svg">
<g id="link">
<g id="Subtract">
<path d="M12.7046 14.1833C12.9782 14.457 12.9782 14.9007 12.7046 15.1744L11.1137 16.7652C9.96144 17.9175 8.13995 17.9642 7.0453 16.8695C5.95065 15.7749 5.99736 13.9534 7.14962 12.8011L8.74047 11.2103C9.01413 10.9366 9.45783 10.9366 9.73149 11.2103C10.0052 11.4839 10.0052 11.9276 9.73149 12.2013L8.14064 13.7921C7.56451 14.3683 7.54116 15.279 8.08848 15.8263C8.63581 16.3737 9.54655 16.3503 10.1227 15.7742L11.7135 14.1833C11.9872 13.9097 12.4309 13.9097 12.7046 14.1833Z" fill="#002C7C"/>
<path d="M11.2963 9.6455C11.5699 9.91916 12.0136 9.91916 12.2873 9.6455L13.8781 8.05465C14.4543 7.47852 15.365 7.45517 15.9123 8.00249C16.4597 8.54982 16.4363 9.46056 15.8602 10.0367L14.2693 11.6275C13.9957 11.9012 13.9957 12.3449 14.2693 12.6186C14.543 12.8922 14.9867 12.8922 15.2603 12.6186L16.8512 11.0277C18.0035 9.87545 18.0502 8.05396 16.9555 6.95931C15.8609 5.86466 14.0394 5.91136 12.8871 7.06363L11.2963 8.65448C11.0226 8.92814 11.0226 9.37184 11.2963 9.6455Z" fill="#002C7C"/>
</g>
<path id="Vector 11" d="M13.4867 10.4283L10.5137 13.4014" stroke="#002C7C" stroke-width="1.40152" stroke-linecap="round"/>
</g>
</svg>
