<?xml version="1.0" encoding="UTF-8"?>
<svg id="Layer_2" data-name="Layer 2" xmlns="http://www.w3.org/2000/svg" viewBox="0 0 15.83 14.02">
  <defs>
    <style>
      .cls-1 {
        fill: #ee2a2a;
      }
    </style>
  </defs>
  <g id="Layer_1-2" data-name="Layer 1">
    <g>
      <path class="cls-1" d="m8.71,14.02c-2.19,0-3.96-1.57-3.96-3.5,0-.39.35-.7.79-.7s.79.31.79.7c0,1.16,1.06,2.1,2.37,2.1h3.17c1.31,0,2.38-.94,2.38-2.1V3.5c0-1.16-1.06-2.1-2.38-2.1h-3.17c-1.31,0-2.37.94-2.37,2.1,0,.39-.35.7-.79.7s-.79-.31-.79-.7c0-1.94,1.77-3.5,3.96-3.5h3.17c2.19,0,3.96,1.57,3.96,3.5v7.01c0,1.94-1.77,3.5-3.96,3.5h-3.17Z"/>
      <path class="cls-1" d="m.79,7.71c-.44,0-.79-.31-.79-.7s.35-.7.79-.7h6.56c-.07-.08-.14-.15-.2-.22-.19-.22-.36-.41-.48-.54-.06-.07-.1-.12-.14-.16l-.04-.04h0s0-.02,0-.02t.64-.41l-.64.41c-.26-.31-.18-.75.17-.98.35-.23.85-.16,1.11.15h0s0,.01,0,.01l.03.04s.07.09.13.15c.11.13.27.31.45.52.37.42.85.92,1.28,1.3l.56.5-.56.5c-.43.38-.9.88-1.28,1.3-.18.21-.34.39-.45.52-.05.06-.1.12-.13.15l-.03.04h0s0,.01,0,.01c-.26.31-.75.38-1.11.16-.35-.23-.43-.67-.18-.98l.64.41q-.64-.41-.64-.41h0s0,0,0,0h0s.04-.06.04-.06c.03-.04.08-.09.14-.16.12-.14.28-.33.48-.54.06-.07.13-.15.2-.22H.79Z"/>
    </g>
  </g>
</svg>