<svg width="16" height="16" viewBox="0 0 16 16" fill="none" xmlns="http://www.w3.org/2000/svg">
<g id="ordered-list">
<path id="Vector" d="M3.16663 4.16699L4.16663 3.16699V6.83366M4.16663 6.83366H3.16663M4.16663 6.83366H4.83329M8.83328 9.50033H7.77078C7.28362 9.50033 7.0121 8.95758 7.27048 8.5719C7.30231 8.52439 7.34737 8.48774 7.39499 8.45606L8.59489 7.65763C8.64251 7.62594 8.68742 7.58914 8.71993 7.54208C9.01685 7.11221 8.71415 6.50033 8.16834 6.50033H7.16663M11.1666 9.83366H12.1309C12.9539 9.83366 13.0999 11.092 12.34 11.3041C12.3032 11.3144 12.2647 11.3185 12.2265 11.3198L11.8333 11.3337L12.2265 11.3475C12.2647 11.3489 12.3032 11.353 12.34 11.3632C13.0999 11.5753 12.9539 12.8337 12.1309 12.8337H11.1666" stroke="#667085" stroke-width="1.5" stroke-linecap="round" stroke-linejoin="round"/>
</g>
</svg>
