<svg width="15" height="14" viewBox="0 0 15 14" fill="none" xmlns="http://www.w3.org/2000/svg">
<g id="qlementine-icons:success-32" clip-path="url(#clip0_1765_18489)">
<path id="Vector" d="M10.4754 5.38567C10.6084 5.25092 10.6084 5.03217 10.4754 4.89567C10.3424 4.75917 10.1272 4.76092 9.99419 4.89567L6.60357 8.33442L5.02857 6.73754C4.9972 6.70553 4.95976 6.6801 4.91844 6.66273C4.87713 6.64537 4.83276 6.63643 4.78794 6.63643C4.74312 6.63643 4.69876 6.64537 4.65744 6.66273C4.61612 6.6801 4.57868 6.70553 4.54732 6.73754C4.48319 6.80297 4.44727 6.89093 4.44727 6.98254C4.44727 7.07415 4.48319 7.16212 4.54732 7.22754L6.36294 9.06941C6.39431 9.10143 6.43174 9.12686 6.47306 9.14422C6.51438 9.16158 6.55875 9.17053 6.60357 9.17053C6.64838 9.17053 6.69275 9.16158 6.73407 9.14422C6.77539 9.12686 6.81282 9.10143 6.84419 9.06941L10.4754 5.38567Z" fill="white"/>
<path id="Vector_2" fill-rule="evenodd" clip-rule="evenodd" d="M14.5 7.00488C14.5 10.8724 11.3675 14.0049 7.5 14.0049C3.6325 14.0049 0.5 10.8724 0.5 7.00488C0.5 3.13738 3.6325 0.00488281 7.5 0.00488281C11.3675 0.00488281 14.5 3.13738 14.5 7.00488ZM14.0625 7.00488C14.0625 10.6274 11.1225 13.5674 7.5 13.5674C3.8775 13.5674 0.9375 10.6274 0.9375 7.00488C0.9375 3.38238 3.8775 0.442383 7.5 0.442383C11.1225 0.442383 14.0625 3.38238 14.0625 7.00488Z" fill="white"/>
</g>
<defs>
<clipPath id="clip0_1765_18489">
<rect width="14" height="14" fill="white" transform="translate(0.5 0.00488281)"/>
</clipPath>
</defs>
</svg>
