<svg width="99" height="131" viewBox="0 0 99 131" fill="none" xmlns="http://www.w3.org/2000/svg">
<g id="Skill Assesment">
<g id="path540" filter="url(#filter0_d_1765_18759)">
<path d="M84.5195 122.834H0.143555V9.8666H84.5195V122.834Z" fill="#E5EEFF" fill-opacity="0.2" shape-rendering="crispEdges"/>
<path d="M0.311472 10.0345V122.666H84.3515V10.0345H0.311472Z" stroke="#395D9D" stroke-width="0.335835" shape-rendering="crispEdges"/>
</g>
<path id="path568" d="M7.91211 62.6984V65.1846H29.2003V62.6984H7.91211Z" fill="#E6E6E6"/>
<path id="path570" d="M39.7666 62.6984H29.2002V65.1846H39.7666V62.6984Z" fill="#0169EE"/>
<path id="path572" d="M7.91211 68.1367V70.7783H24.3833V68.1367H7.91211Z" fill="#E6E6E6"/>
<path id="path574" d="M39.7682 68.1367H24.3848V70.7783H39.7682V68.1367Z" fill="#0169EE"/>
<path id="path576" d="M7.91211 73.7306V76.2168H17.08V73.7306H7.91211Z" fill="#E6E6E6"/>
<path id="path578" d="M39.7678 73.7306H17.0811V76.2168H39.7678V73.7306Z" fill="#0169EE"/>
<path id="path580" d="M44.8955 76.2168V73.7306H66.3391V76.2168H44.8955Z" fill="#E6E6E6"/>
<path id="path582" d="M76.9063 76.2168H66.3398V73.7306H76.9063V76.2168Z" fill="#0169EE"/>
<path id="path584" d="M44.8955 70.7783V68.1367H61.5221V70.7783H44.8955Z" fill="#E6E6E6"/>
<path id="path586" d="M76.9049 70.7783H61.5215V68.1367H76.9049V70.7783Z" fill="#0169EE"/>
<path id="path588" d="M44.8955 65.1846V62.6984H54.2188V65.1846H44.8955Z" fill="#E6E6E6"/>
<path id="path590" d="M76.9064 65.1846H54.2197V62.6984H76.9064V65.1846Z" fill="#0169EE"/>
<path id="path594" d="M16.3814 37.9912C20.4332 37.9912 21.7423 35.2661 21.7423 33.4883C21.7423 31.7104 20.7048 29.4448 20.7048 29.4448H16.3814H12.0591C12.0591 29.4448 11.0205 31.7104 11.0205 33.4883C11.0205 35.2661 12.3308 37.9912 16.3814 37.9912Z" fill="#263238"/>
<path id="path596" d="M10.3994 43.4297H22.3643V40.8618C22.3643 38.5901 20.561 36.748 18.3358 36.748H14.4268C12.2027 36.748 10.3994 38.5901 10.3994 40.8618V43.4297Z" fill="#263238"/>
<path id="path598" d="M16.3025 38.458C16.9705 37.8017 17.3442 37.4346 18.0123 36.7782V31.6209H14.5938V36.7782C15.2607 37.4346 15.6355 37.8017 16.3025 38.458Z" fill="#F25242"/>
<path id="path600" d="M16.3806 23.8516C12.5652 23.8516 11.3311 26.378 11.3311 28.0274C11.3311 29.6757 12.3083 31.7764 12.3083 31.7764H16.3806H20.4529C20.4529 31.7764 21.4313 29.6757 21.4313 28.0274C21.4313 26.378 20.1972 23.8516 16.3806 23.8516Z" fill="#110D18"/>
<path id="path602" d="M14.5938 34.2625V35.8164C17.0622 35.6133 18.0123 34.2625 18.0123 34.2625H14.5938Z" fill="#110D18"/>
<path id="path604" d="M12.2637 30.999C12.2637 33.2311 14.0713 35.0391 16.3032 35.0391C18.5351 35.0391 20.3439 33.2311 20.3439 30.999C20.3439 28.7679 18.5351 26.9589 16.3032 26.9589C14.0713 26.9589 12.2637 28.7679 12.2637 30.999Z" fill="#F25242"/>
<path id="path606" d="M17.8552 33.0195H14.2467C13.1562 33.0195 12.2637 32.127 12.2637 31.0354V28.9789C12.2637 26.756 14.0815 24.9393 16.3032 24.9393C18.526 24.9393 20.3439 26.756 20.3439 28.9789V30.5298C20.3439 31.8985 19.224 33.0195 17.8552 33.0195Z" fill="#F25242"/>
<path id="path608" d="M10.8652 30.999C10.8652 31.7707 11.4561 32.3975 12.185 32.3975C12.916 32.3975 13.5068 31.7707 13.5068 30.999C13.5068 30.2272 12.916 29.6005 12.185 29.6005C11.4561 29.6005 10.8652 30.2272 10.8652 30.999Z" fill="#F25242"/>
<path id="path610" d="M19.1016 30.999C19.1016 31.7707 19.7271 32.3975 20.4989 32.3975C21.2718 32.3975 21.8986 31.7707 21.8986 30.999C21.8986 30.2272 21.2718 29.6005 20.4989 29.6005C19.7271 29.6005 19.1016 30.2272 19.1016 30.999Z" fill="#F25242"/>
<path id="path612" d="M16.3806 23.385C10.8062 23.385 11.3452 28.2288 11.3452 28.2288L21.4171 28.3574C21.4171 28.3574 21.9562 23.385 16.3806 23.385Z" fill="#263238"/>
<path id="path614" d="M29.2952 23.0742H76.8116C76.9498 23.0742 77.0609 22.7621 77.0609 22.3734C77.0609 21.988 76.9498 21.6757 76.8116 21.6757H29.2952C29.1581 21.6757 29.0459 21.988 29.0459 22.3734C29.0459 22.7621 29.1581 23.0742 29.2952 23.0742Z" fill="#E6E6E6"/>
<path id="path616" d="M29.2952 31.6982H76.8116C76.9498 31.6982 77.0609 31.3861 77.0609 30.9974C77.0609 30.6119 76.9498 30.2997 76.8116 30.2997H29.2952C29.1581 30.2997 29.0459 30.6119 29.0459 30.9974C29.0459 31.3861 29.1581 31.6982 29.2952 31.6982Z" fill="#E6E6E6"/>
<path id="path622" d="M29.2952 40.3223H76.8116C76.9498 40.3223 77.0609 40.0076 77.0609 39.623C77.0609 39.2384 76.9498 38.9238 76.8116 38.9238H29.2952C29.1581 38.9238 29.0459 39.2384 29.0459 39.623C29.0459 40.0076 29.1581 40.3223 29.2952 40.3223Z" fill="#E6E6E6"/>
<path id="path626" d="M7.85127 50.8887H76.655C76.7924 50.8887 76.9048 50.5765 76.9048 50.191C76.9048 49.8024 76.7924 49.4902 76.655 49.4902H7.85127C7.71278 49.4902 7.60156 49.8024 7.60156 50.191C7.60156 50.5765 7.71278 50.8887 7.85127 50.8887Z" fill="#E6E6E6"/>
<path id="path628" d="M7.85127 57.5703H76.655C76.7924 57.5703 76.9048 57.2581 76.9048 56.8727C76.9048 56.484 76.7924 56.1718 76.655 56.1718H7.85127C7.71278 56.1718 7.60156 56.484 7.60156 56.8727C7.60156 57.2581 7.71278 57.5703 7.85127 57.5703Z" fill="#E6E6E6"/>
<path id="path628_2" d="M7.89326 81.3115H76.697C76.8344 81.3115 76.9468 80.9993 76.9468 80.6139C76.9468 80.2252 76.8344 79.913 76.697 79.913H7.89326C7.75477 79.913 7.64355 80.2252 7.64355 80.6139C7.64355 80.9993 7.75477 81.3115 7.89326 81.3115Z" fill="#E6E6E6"/>
<path id="path628_3" d="M7.93427 105.053H76.738C76.8754 105.053 76.9878 104.741 76.9878 104.355C76.9878 103.966 76.8754 103.654 76.738 103.654H7.93427C7.79578 103.654 7.68457 103.966 7.68457 104.355C7.68457 104.741 7.79578 105.053 7.93427 105.053Z" fill="#E6E6E6"/>
<path id="path628_4" d="M7.89326 87.3115H76.697C76.8344 87.3115 76.9468 86.9993 76.9468 86.6139C76.9468 86.2252 76.8344 85.913 76.697 85.913H7.89326C7.75477 85.913 7.64355 86.2252 7.64355 86.6139C7.64355 86.9993 7.75477 87.3115 7.89326 87.3115Z" fill="#E6E6E6"/>
<path id="path628_5" d="M7.89326 93.3115H76.697C76.8344 93.3115 76.9468 92.9993 76.9468 92.6139C76.9468 92.2252 76.8344 91.913 76.697 91.913H7.89326C7.75477 91.913 7.64355 92.2252 7.64355 92.6139C7.64355 92.9993 7.75477 93.3115 7.89326 93.3115Z" fill="#E6E6E6"/>
<path id="path628_6" d="M7.89326 99.3115H76.697C76.8344 99.3115 76.9468 98.9993 76.9468 98.6139C76.9468 98.2252 76.8344 97.913 76.697 97.913H7.89326C7.75477 97.913 7.64355 98.2252 7.64355 98.6139C7.64355 98.9993 7.75477 99.3115 7.89326 99.3115Z" fill="#E6E6E6"/>
<path id="path740" d="M57.5962 19.8525C56.9587 20.4064 56.9349 21.3882 57.5448 21.9723L72.1406 35.9526C72.7488 36.5351 73.7255 36.4713 74.2526 35.8146L97.7745 6.51496C98.3012 5.85893 98.1533 4.89266 97.4545 4.42425L93.2215 1.58691C92.6028 1.17215 91.7695 1.29971 91.3032 1.8806L73.4059 24.1742C72.8787 24.8308 71.9021 24.8947 71.2939 24.3122L63.2827 16.6388C62.7469 16.1257 61.9084 16.1054 61.3485 16.5919L57.5962 19.8525Z" fill="#0169EE"/>
</g>
<defs>
<filter id="filter0_d_1765_18759" x="0.143555" y="9.86621" width="92.376" height="120.968" filterUnits="userSpaceOnUse" color-interpolation-filters="sRGB">
<feFlood flood-opacity="0" result="BackgroundImageFix"/>
<feColorMatrix in="SourceAlpha" type="matrix" values="0 0 0 0 0 0 0 0 0 0 0 0 0 0 0 0 0 0 127 0" result="hardAlpha"/>
<feOffset dx="4" dy="4"/>
<feGaussianBlur stdDeviation="2"/>
<feComposite in2="hardAlpha" operator="out"/>
<feColorMatrix type="matrix" values="0 0 0 0 0 0 0 0 0 0.172549 0 0 0 0 0.486275 0 0 0 0.05 0"/>
<feBlend mode="normal" in2="BackgroundImageFix" result="effect1_dropShadow_1765_18759"/>
<feBlend mode="normal" in="SourceGraphic" in2="effect1_dropShadow_1765_18759" result="shape"/>
</filter>
</defs>
</svg>
