<?xml version="1.0" encoding="UTF-8"?>
<svg id="Layer_2" data-name="Layer 2" xmlns="http://www.w3.org/2000/svg" viewBox="0 0 32.53 35.67">
  <defs>
    <style>
      .cls-1 {
        fill: #fff;
      }

      .cls-2 {
        fill: none;
        opacity: .15;
      }

      .cls-3 {
        fill: #395d9d;
      }

      .cls-4 {
        fill: #e5eeff;
      }

      .cls-5 {
        fill: #0f1011;
      }

      .cls-6 {
        fill: #e98862;
      }
    </style>
  </defs>
  <g id="Layer_1-2" data-name="Layer 1">
    <g>
      <path class="cls-6" d="m20.01,13.99s-1.54-.82-1.2-5.01l-3.18-.59s.36,3.76-1.25,4.95l5.63.65Z"/>
      <g class="cls-2">
        <path d="m15.03,12.56l2.64-2.02-2.08-.02c-.06.71-.25,1.4-.57,2.04Z"/>
      </g>
      <path class="cls-6" d="m20.62,7.36c-.22,1.27-.91,2.48-2.04,2.89-1.22.49-2.55.66-3.86.52-3.48-.29-2.79-8.21-1.14-9.74,1.65-1.54,6.51-.56,7.1,2.01.31,1.33.14,3.11-.06,4.33Z"/>
      <path class="cls-5" d="m12.43,1.3c.1-.16.25-.3.42-.39C14.4.06,17.27-.23,18.65.19c1.6.48,3.6,1.82,3.09,5.06-.02.14-.05.27-.07.4.5-.09,1.02-.03,1.5.16.48.19.89.5,1.2.91.31.41.5.89.55,1.4.05.51-.04,1.02-.26,1.48-.22.46-.57.85-1,1.13-.43.28-.93.43-1.44.45-.51.01-1.02-.11-1.46-.37-.44-.25-.81-.63-1.06-1.07-.24.2-.49.39-.76.54-.19.11-.24.02-.3-.19-.23-.74-.46-3.66-.28-5.78l-3.75-.13-.65-1.86-.54,1.86h-1.28c-.17-1.01-.35-2.15.31-2.88Z"/>
      <path class="cls-5" d="m15.63,6.38c.16,0,.29-.13.29-.29s-.13-.29-.29-.29-.29.13-.29.29.13.29.29.29Z"/>
      <path class="cls-5" d="m13.36,6.19c.16,0,.29-.13.29-.29s-.13-.29-.29-.29-.29.13-.29.29.13.29.29.29Z"/>
      <path class="cls-5" d="m12.86,5.29s-.07-.01-.1-.04c-.03-.03-.04-.06-.04-.1,0-.04.01-.07.04-.1.03-.03.06-.04.1-.04h.76s.07,0,.1.03c.03.02.04.06.04.09,0,.02,0,.04,0,.05,0,.02-.02.03-.03.04-.01.01-.03.02-.04.03-.02,0-.03.01-.05.01h-.76s0,0,0,0Z"/>
      <path class="cls-5" d="m16.26,5.57s-.02,0-.03,0l-.75-.18s-.03-.01-.05-.02c-.01-.01-.03-.02-.04-.04,0-.02-.02-.03-.02-.05,0-.02,0-.04,0-.05s.01-.03.02-.05c.01-.01.02-.03.04-.04.02,0,.03-.02.05-.02.02,0,.04,0,.05,0l.75.18s.06.03.08.05c.02.03.03.06.02.09,0,.03-.02.06-.04.09-.02.02-.06.03-.09.03Z"/>
      <path class="cls-6" d="m17.13,6.79c-.02.32.08.64.29.88.21.24.51.39.83.42.32.03.64-.07.88-.28.25-.21.4-.5.43-.82.02-.16,0-.32-.05-.48-.05-.15-.13-.3-.23-.42-.1-.12-.23-.22-.38-.3-.14-.07-.3-.12-.46-.13-.87-.03-1.26.45-1.32,1.12Z"/>
      <g class="cls-2">
        <path d="m14.35,7.69s-.02,0-.03,0l-.69-.21s-.03-.01-.04-.02c-.01,0-.02-.02-.02-.03,0-.01,0-.03,0-.04s0-.03,0-.04l.46-1.02s.03-.04.06-.05c.02,0,.05,0,.08,0,.02.01.04.03.05.06,0,.02,0,.05,0,.08l-.41.91.59.18s.04.02.05.04c.01.02.02.04.01.07,0,.02-.02.04-.03.06-.02.02-.04.02-.06.02h0Z"/>
      </g>
      <path class="cls-1" d="m15.5,8.36s-1.07.11-1.81-.15c0,0,0,.7.85.77.84.07.96-.62.96-.62Z"/>
      <path class="cls-3" d="m8.67,34.02c.83,1.92,17.23,2.71,17.45-.66.14-2.15-1.75-4.02-1.75-8.21s3.85-7.74.71-10.87c-.91-.91-2.48-1.5-4.4-1.5-.14,1.12-6.93,1.12-6.98.03-.26,0-.46,0-.59.01-6.61.28-3.7,6.01-3.64,11.54.08,6.46-1.67,7.68-.81,9.66Z"/>
      <path class="cls-6" d="m13.71,12.81c.05,1.1.65,2.71,2.49,2.83,2.45.16,4.35-1.74,4.49-2.85h0c-2.41,0-5.57,0-6.97.03Z"/>
      <path class="cls-3" d="m30.35,31.82c-.51,0-1.01-.18-1.4-.51l-6.96-5.88,2.5-2.96-2.47-5.13,3.91-1.88,6.37,13.26c.16.33.23.7.21,1.06-.02.37-.13.72-.33,1.03-.2.31-.47.57-.79.74-.32.18-.68.27-1.05.27Z"/>
      <path class="cls-3" d="m2.09,33.18c-.37,0-.73-.1-1.05-.28-.32-.18-.58-.45-.76-.77C.09,31.81,0,31.45,0,31.08c0-.37.1-.73.28-1.05l9.24-15.86,3.61,2.11-4.59,7.88.38.25-5.09,7.82c-.19.29-.45.53-.76.7-.31.17-.65.25-1,.25Z"/>
      <path class="cls-4" d="m15.28,27.8c3.36-3.36,7.12-1.21,7.12-1.21v-10.27c-4.8-1.21-7.12,1.31-7.12,1.31,0,0-2.79-2.59-7.26-.7v10.36s2.07-1.25,4.13-.72c2.06.54,3.13,1.23,3.13,1.23Z"/>
      <path class="cls-6" d="m24.35,22.95l-1.42,1.93s-3.41-.42-3.77-3.37c-.04-.34.1-1.44.83-1.15,1.03.41,1.72,1.03,2.58,1.89-.22-.39-.48-.94-.31-1.04.45-.27,1.67,1.34,2.09,1.75Z"/>
      <path class="cls-6" d="m9.09,24.47l-2.28-1.82c.41-.7.98-1.63,1.35-1.51.19.07.03.66-.11,1.09.68-1.01,1.29-1.91,2.24-2.38.7-.35,1.01.63,1.04.97.14,1.95-1.26,3.09-2.24,3.64Z"/>
      <path class="cls-3" d="m9.68,24.94l-5.95,7.46-3.27-2.61,5.95-7.46.4.32,2.28,1.82.59.47Z"/>
      <path class="cls-3" d="m24.79,22.1l-2.8,3.32,6.96,5.88,2.8-3.32-6.96-5.88Z"/>
    </g>
  </g>
</svg>