<svg width="17" height="17" viewBox="0 0 17 17" fill="none" xmlns="http://www.w3.org/2000/svg">
<g id="vuesax/bold/tick-circle">
<g id="tick-circle">
<path id="Vector" d="M8.85224 2.09375C5.17889 2.09375 2.18555 5.08709 2.18555 8.76044C2.18555 12.4338 5.17889 15.4271 8.85224 15.4271C12.5256 15.4271 15.5189 12.4338 15.5189 8.76044C15.5189 5.08709 12.5256 2.09375 8.85224 2.09375ZM12.0389 7.2271L8.2589 11.0071C8.16557 11.1005 8.0389 11.1538 7.90557 11.1538C7.77223 11.1538 7.64557 11.1005 7.55223 11.0071L5.66556 9.12044C5.47223 8.92711 5.47223 8.60711 5.66556 8.41377C5.85889 8.22044 6.1789 8.22044 6.37223 8.41377L7.90557 9.94711L11.3322 6.52043C11.5256 6.3271 11.8456 6.3271 12.0389 6.52043C12.2323 6.71377 12.2323 7.0271 12.0389 7.2271Z" fill="#3EBF8F"/>
</g>
</g>
</svg>
