<svg width="16" height="16" viewBox="0 0 16 16" fill="none" xmlns="http://www.w3.org/2000/svg">
<g id="unordered-list">
<path id="Vector" d="M6.49996 4.00033H12.1666M6.49996 8.00033H12.1666M6.49996 12.0003H12.1666M4.33329 4.00033C4.33329 4.18442 4.18405 4.33366 3.99996 4.33366C3.81586 4.33366 3.66663 4.18442 3.66663 4.00033C3.66663 3.81623 3.81586 3.66699 3.99996 3.66699C4.18405 3.66699 4.33329 3.81623 4.33329 4.00033ZM4.33329 8.00033C4.33329 8.18442 4.18405 8.33366 3.99996 8.33366C3.81586 8.33366 3.66663 8.18442 3.66663 8.00033C3.66663 7.81623 3.81586 7.66699 3.99996 7.66699C4.18405 7.66699 4.33329 7.81623 4.33329 8.00033ZM4.33329 12.0003C4.33329 12.1844 4.18405 12.3337 3.99996 12.3337C3.81586 12.3337 3.66663 12.1844 3.66663 12.0003C3.66663 11.8162 3.81586 11.667 3.99996 11.667C4.18405 11.667 4.33329 11.8162 4.33329 12.0003Z" stroke="#667085" stroke-width="1.5" stroke-linecap="round" stroke-linejoin="round"/>
</g>
</svg>
