<svg width="49" height="49" viewBox="0 0 49 49" fill="none" xmlns="http://www.w3.org/2000/svg">
<g id="upload">
<g id="Union">
<path d="M26.5688 28.4265C26.5723 29.5311 25.6797 30.4293 24.5751 30.4328C23.4705 30.4362 22.5723 29.5436 22.5688 28.4391L26.5688 28.4265Z" fill="#D5D9E1"/>
<path d="M19.9373 13.8614L22.515 11.2676L22.5688 28.4391L26.5688 28.4265L26.5149 11.255L29.1088 13.8327C29.8923 14.6112 31.1587 14.6073 31.9372 13.8238C32.7158 13.0403 32.7119 11.774 31.9284 10.9954L24.4909 3.60449L17.1001 11.0419L19.9373 13.8614Z" fill="#D5D9E1"/>
<path d="M17.1001 11.0419C16.3215 11.8254 16.3254 13.0917 17.1089 13.8703C17.8924 14.6489 19.1588 14.6449 19.9373 13.8614L17.1001 11.0419Z" fill="#D5D9E1"/>
<path d="M8.5 24.4141C8.5 22.205 10.2909 20.4141 12.5 20.4141C13.6046 20.4141 14.5 19.5187 14.5 18.4141C14.5 17.3096 13.6046 16.4141 12.5 16.4141C8.08172 16.4141 4.5 19.9959 4.5 24.4141L4.5 36.4141C4.5 40.8324 8.08172 44.4141 12.5 44.4141H34.5C40.0229 44.4141 44.5 39.937 44.5 34.4141V24.4141C44.5 19.9959 40.9183 16.4141 36.5 16.4141C35.3954 16.4141 34.5 17.3096 34.5 18.4141C34.5 19.5187 35.3954 20.4141 36.5 20.4141C38.7091 20.4141 40.5 22.205 40.5 24.4141V34.4141C40.5 37.7278 37.8137 40.4141 34.5 40.4141H12.5C10.2909 40.4141 8.5 38.6233 8.5 36.4141L8.5 24.4141Z" fill="#D5D9E1"/>
</g>
</g>
</svg>
