<svg width="18" height="18" viewBox="0 0 18 18" fill="none" xmlns="http://www.w3.org/2000/svg">
<g id="Work">
<path id="Work_2" fill-rule="evenodd" clip-rule="evenodd" d="M7.69772 1.91718C7.13911 1.91718 6.66387 2.30537 6.53047 2.82857H11.016C10.8826 2.30537 10.4074 1.91718 9.84879 1.91718H7.69772ZM12.2833 2.82857H13.9342C15.685 2.82857 17.1108 4.2716 17.1108 6.04375C17.1108 6.04375 17.0607 6.79395 17.0441 7.83867C17.0424 7.92137 17.0024 8.00238 16.9365 8.05133C16.5355 8.34753 16.1686 8.59225 16.1353 8.60913C14.7512 9.5374 13.1429 10.1906 11.4296 10.5155C11.3179 10.5374 11.2078 10.4792 11.1511 10.3796C10.6709 9.54752 9.77376 9.00576 8.77326 9.00576C7.77943 9.00576 6.87397 9.54162 6.37956 10.3745C6.32203 10.4724 6.21364 10.529 6.10275 10.5079C4.40357 10.1821 2.79527 9.5298 1.41958 8.61757L0.619179 8.06061C0.552479 8.01842 0.510792 7.94247 0.510792 7.85808C0.485779 7.4277 0.444092 6.04375 0.444092 6.04375C0.444092 4.2716 1.8698 2.82857 3.62068 2.82857H5.26317C5.42158 1.60495 6.44709 0.651367 7.69772 0.651367H9.84879C11.0994 0.651367 12.1249 1.60495 12.2833 2.82857ZM16.8273 9.66406L16.7939 9.68094C15.1098 10.8117 13.0837 11.5628 10.9577 11.875C10.6575 11.9172 10.3574 11.7231 10.274 11.4193C10.0906 10.7273 9.49862 10.2717 8.78993 10.2717H8.78159H8.76492C8.05623 10.2717 7.46427 10.7273 7.28084 11.4193C7.19747 11.7231 6.89732 11.9172 6.59717 11.875C4.47111 11.5628 2.44509 10.8117 0.760917 9.68094C0.752579 9.6725 0.669204 9.62187 0.602504 9.66406C0.527467 9.70626 0.527467 9.80752 0.527467 9.80752L0.585829 14.1113C0.585829 15.8834 2.0032 17.318 3.75408 17.318H13.7924C15.5433 17.318 16.9607 15.8834 16.9607 14.1113L17.0274 9.80752C17.0274 9.80752 17.0274 9.70626 16.9523 9.66406C16.9107 9.63875 16.8606 9.64719 16.8273 9.66406ZM9.39857 13.1999C9.39857 13.5543 9.12343 13.8328 8.77326 13.8328C8.43142 13.8328 8.14794 13.5543 8.14794 13.1999V12.1113C8.14794 11.7653 8.43142 11.4784 8.77326 11.4784C9.12343 11.4784 9.39857 11.7653 9.39857 12.1113V13.1999Z" fill="black"/>
</g>
</svg>
