<?xml version="1.0" encoding="UTF-8"?>
<svg id="Layer_1" data-name="Layer 1" xmlns="http://www.w3.org/2000/svg" viewBox="0 0 52.72 9.88">
  <g id="Logo">
    <g id="_انطلا" data-name="انطلا">
      <rect x="50.86" width="1.86" height="1.86"/>
      <rect x="50.86" y="1.86" width="1.86" height="1.86"/>
      <rect x="50.86" y="3.72" width="1.86" height="1.86"/>
      <rect x="50.86" y="5.58" width="1.86" height="1.86"/>
      <rect x="50.86" y="6.82" width="1.86" height="1.86"/>
      <rect x="48.39" y="2.79" width="1.86" height="1.86"/>
      <rect x="48.39" y="5.21" width="1.86" height="1.86"/>
      <rect x="48.39" y="6.82" width="1.86" height="1.86"/>
      <rect x="46.53" y="6.82" width="1.86" height="1.86"/>
      <rect x="44.67" y="6.82" width="1.86" height="1.86"/>
      <rect x="44.67" y="4.95" width="1.86" height="1.86"/>
      <rect x="44.67" y="3.35" width="1.86" height="1.86"/>
      <rect x="42.81" y="3.35" width="1.86" height="1.86"/>
      <rect x="40.95" y="3.35" width="1.86" height="1.86"/>
      <rect x="39.39" y="3.35" width="1.86" height="1.86"/>
      <rect x="39.39" y="1.49" width="1.86" height="1.86"/>
      <rect x="39.39" width="1.86" height="1.86"/>
      <rect x="39.39" y="5.21" width="1.86" height="1.86"/>
      <rect x="35.67" y="3.35" width="1.86" height="1.86"/>
      <rect x="35.67" y="1.49" width="1.86" height="1.86"/>
      <rect x="35.67" width="1.86" height="1.86"/>
      <rect x="35.67" y="5.21" width="1.86" height="1.86"/>
      <rect x="32.88" y="3.35" width="1.86" height="1.86"/>
      <rect x="32.88" y="1.49" width="1.86" height="1.86"/>
      <rect x="32.88" y="5.21" width="1.86" height="1.86"/>
      <rect x="39.39" y="6.82" width="1.86" height="1.86"/>
      <rect x="37.53" y="6.82" width="1.86" height="1.86"/>
      <rect x="35.67" y="6.82" width="1.86" height="1.86"/>
      <rect x="33.81" y="6.82" width="1.86" height="1.86"/>
      <rect x="31.95" y="6.82" width="1.86" height="1.86"/>
      <rect x="41.25" y="6.82" width="1.86" height="1.86"/>
      <rect x="42.96" y="6.82" width="1.86" height="1.86"/>
    </g>
    <g id="Q_ق" data-name="Q + ق">
      <path d="m29.06,7.72s-.51.3-.76.31l.21.22.88.18.28.19s.3-.17.43-.35l-.03-.28s-.22-.46-1-.27Z"/>
      <path d="m29.65,8.62c0-.37-.38-.42-.38-.42-.28.02-.81-.09-.81-.09-.04-.06-.19-.07-.19-.07h0c-.19.05-.4.08-.61.08-1.35,0-2.44-1.09-2.44-2.44s1.09-2.44,2.44-2.44c.5,0,.97.15,1.36.41.06,0,.12-.01.18-.02v-1.16s0,0,0,0c-.46-.22-.98-.35-1.53-.35-1.96,0-3.55,1.59-3.55,3.55s1.59,3.55,3.55,3.55c.74,0,1.42-.22,1.99-.61h0Z"/>
      <rect x="28.2" y=".45" width="1.13" height="1.13" transform="translate(57.52 2.02) rotate(-180)"/>
      <rect x="26.04" y=".45" width="1.13" height="1.13" transform="translate(53.2 2.02) rotate(-180)"/>
      <path d="m29.19,3.62c-1.14,0-2.06.92-2.06,2.06s.92,2.06,2.06,2.06c1.07,0,1.94-.81,2.05-1.85,0-.07.01-.14.01-.21,0-1.14-.92-2.06-2.06-2.06Zm.01,3.01c-.53,0-.96-.43-.96-.96s.43-.96.96-.96.96.43.96.96-.43.96-.96.96Z"/>
      <path d="m29.28,7.73s.58-.06.86.73v.76h1.1v-.75s-.03-.57-.45-1.09c0,0,.24-.27.45-1.54l-1.97,1.89Z"/>
    </g>
    <g id="Intila">
      <rect y="7.44" width="1.86" height="1.86"/>
      <rect y="5.58" width="1.86" height="1.86"/>
      <rect y="3.72" width="1.86" height="1.86"/>
      <rect y="1.86" width="1.86" height="1.86"/>
      <rect width="1.86" height="1.86"/>
      <rect x="13.32" y="7.44" width="1.86" height="1.86"/>
      <rect x="13.32" y="5.58" width="1.86" height="1.86"/>
      <rect x="13.32" y="3.72" width="1.86" height="1.86"/>
      <rect x="13.32" width="1.86" height="1.86"/>
      <rect x="15.84" y="7.44" width="1.86" height="1.86"/>
      <rect x="15.84" y="5.58" width="1.86" height="1.86"/>
      <rect x="21.67" y="5.58" width="1.86" height="1.86"/>
      <rect x="20.05" y="2.23" width="1.86" height="1.86"/>
      <rect x="18.29" y="2.23" width="1.86" height="1.86"/>
      <rect x="21.67" y="2.96" width="1.86" height="1.86"/>
      <rect x="21.67" y="2.23" width="1.86" height="1.86"/>
      <rect x="21.67" y="7.44" width="1.86" height="1.86"/>
      <rect x="20.15" y="7.44" width="1.86" height="1.86"/>
      <rect x="18.29" y="5.58" width="1.86" height="1.86"/>
      <rect x="18.29" y="4.82" width="1.86" height="1.86"/>
      <rect x="20.05" y="4.82" width="1.86" height="1.86"/>
      <rect x="21.67" y="4.82" width="1.86" height="1.86"/>
      <rect x="18.29" y="7.44" width="1.86" height="1.86"/>
      <rect x="15.84" y="3.72" width="1.86" height="1.86"/>
      <rect x="15.84" y="1.86" width="1.86" height="1.86"/>
      <rect x="2.53" y="7.44" width="1.86" height="1.86"/>
      <rect x="2.53" y="5.58" width="1.86" height="1.86"/>
      <rect x="2.53" y="3.72" width="1.86" height="1.86"/>
      <rect x="2.53" y="2.86" width="1.86" height="1.86"/>
      <rect x="4.39" y="4.36" width="1.86" height="1.86"/>
      <rect x="6.25" y="4.36" width="1.86" height="1.86"/>
      <rect x="8.82" y="1.86" width="1.86" height="1.86"/>
      <rect x="10.68" y="1.86" width="1.86" height="1.86"/>
      <rect x="6.98" y="1.86" width="1.86" height="1.86"/>
      <rect x="8.82" width="1.86" height="1.86"/>
      <rect x="8.82" y="3.72" width="1.86" height="1.86"/>
      <rect x="8.82" y="5.58" width="1.86" height="1.86"/>
      <rect x="8.82" y="7.39" width="1.86" height="1.86"/>
      <rect x="10.68" y="7.39" width="1.86" height="1.86"/>
      <rect x="6.25" y="6.22" width="1.86" height="1.86"/>
      <rect x="6.25" y="7.44" width="1.86" height="1.86"/>
    </g>
  </g>
</svg>