<svg width="86" height="61" viewBox="0 0 86 61" fill="none" xmlns="http://www.w3.org/2000/svg">
<g id="Logo">
<path id="Vector" d="M7.54723 54.6302V42.3516H5.53418V54.6302H7.54723Z" fill="#00091A"/>
<path id="Vector_2" d="M8.78027 50.537C8.78027 53.0455 10.4633 54.8279 13.0209 54.8279C15.5784 54.8279 17.2615 53.0455 17.2615 50.537C17.2615 48.0284 15.5784 46.2461 13.0209 46.2461C10.4633 46.2461 8.78027 48.0284 8.78027 50.537ZM10.8098 50.537C10.8098 49.0682 11.6844 48.045 13.0209 48.045C14.3574 48.045 15.2319 49.0682 15.2319 50.537C15.2319 51.9893 14.3574 53.029 13.0209 53.029C11.6844 53.029 10.8098 51.9893 10.8098 50.537Z" fill="#00091A"/>
<path id="Vector_3" d="M17.9395 50.3728C17.9395 52.7493 19.474 54.4657 21.7675 54.4657C22.9556 54.4657 23.9786 53.9871 24.4901 53.1949V54.5812C24.4901 55.9179 23.6486 56.8092 22.246 56.8092C20.992 56.8092 20.134 56.1985 20.0185 55.1258H17.989C18.2529 57.2548 19.8865 58.6411 22.1305 58.6411C24.7706 58.6411 26.4536 56.9082 26.4536 54.2181V46.478H24.6716L24.5561 47.5837C24.0611 46.7255 23.0381 46.2139 21.8335 46.2139C19.5069 46.2139 17.9395 47.9798 17.9395 50.3728ZM19.9855 50.3233C19.9855 48.97 20.8435 47.9798 22.1141 47.9798C23.5001 47.9798 24.4241 48.9865 24.4241 50.3233C24.4241 51.6765 23.5001 52.7163 22.1141 52.7163C20.86 52.7163 19.9855 51.6931 19.9855 50.3233Z" fill="#00091A"/>
<path id="Vector_4" d="M27.4492 50.537C27.4492 53.0455 29.1323 54.8279 31.6898 54.8279C34.2473 54.8279 35.9304 53.0455 35.9304 50.537C35.9304 48.0284 34.2473 46.2461 31.6898 46.2461C29.1323 46.2461 27.4492 48.0284 27.4492 50.537ZM29.4787 50.537C29.4787 49.0682 30.3533 48.045 31.6898 48.045C33.0263 48.045 33.9009 49.0682 33.9009 50.537C33.9009 51.9893 33.0263 53.029 31.6898 53.029C30.3533 53.029 29.4787 51.9893 29.4787 50.537Z" fill="#00091A"/>
<path id="Vector_5" d="M38.108 44.811C38.768 44.811 39.3125 44.2828 39.3125 43.6062C39.3125 42.9461 38.768 42.418 38.108 42.418C37.4315 42.418 36.9199 42.9461 36.9199 43.6062C36.9199 44.2828 37.4315 44.811 38.108 44.811ZM37.1015 54.6305H39.1145V46.4778H37.1015V54.6305Z" fill="#00091A"/>
<path id="Vector_6" d="M40.8789 58.4091H42.8424V53.5076C43.3539 54.3492 44.4595 54.8443 45.6805 54.8443C48.0896 54.8443 49.5251 52.9959 49.492 50.4544C49.4426 47.8963 47.9741 46.2295 45.664 46.2295C44.4265 46.2295 43.3044 46.7741 42.8094 47.7148L42.6939 46.4771H40.8789V58.4091ZM42.9249 50.5534C42.9249 49.0846 43.816 48.0614 45.2185 48.0614C46.621 48.0614 47.4625 49.1011 47.4625 50.5534C47.4625 52.0057 46.621 53.0289 45.2185 53.0289C43.816 53.0289 42.9249 52.0223 42.9249 50.5534Z" fill="#00091A"/>
<path id="Vector_7" d="M50.0039 52.1873C50.07 53.8046 51.324 54.8443 53.271 54.8443C55.185 54.8443 56.4885 53.8211 56.4885 52.2368C56.4885 51.065 55.7626 50.2728 54.426 49.9428L52.9905 49.5962C52.38 49.4312 51.9675 49.2166 51.9675 48.6886C51.9675 48.1274 52.413 47.7313 53.139 47.7313C53.898 47.7313 54.3931 48.1604 54.3931 48.8701H56.2246C56.1585 47.2527 54.954 46.2295 53.1885 46.2295C51.4395 46.2295 50.1359 47.2527 50.1359 48.804C50.1359 49.8603 50.7464 50.7349 52.314 51.1475L53.733 51.5106C54.261 51.6592 54.591 51.9067 54.591 52.3688C54.591 53.0125 53.9805 53.3095 53.238 53.3095C52.347 53.3095 51.8354 52.8969 51.8354 52.1873H50.0039Z" fill="#00091A"/>
<path id="Vector_8" d="M60.6633 54.8448C61.7689 54.8448 62.8249 54.3331 63.3034 53.574L63.4354 54.6303H65.3165V46.4775H63.3034V50.7519C63.3034 52.2207 62.7424 53.0459 61.4224 53.0459C60.3994 53.0459 59.6898 52.5508 59.6898 50.8674V46.4775H57.6768V51.5771C57.6768 53.5245 58.7328 54.8448 60.6633 54.8448Z" fill="#00091A"/>
<path id="Vector_9" d="M69.1067 54.6298V49.9428C69.1067 48.6225 69.8823 47.9954 70.8393 47.9954C71.7963 47.9954 72.4233 48.606 72.4233 49.7613V54.6298H74.3869V49.9593C74.3869 48.6225 75.1459 47.9954 76.1029 47.9954C77.0765 47.9954 77.7035 48.606 77.7035 49.7613V54.6298H79.6505V49.2991C79.6505 47.4178 78.611 46.2295 76.631 46.2295C75.3934 46.2295 74.4199 46.8236 74.0239 47.7809C73.5784 46.8236 72.6874 46.2295 71.3343 46.2295C70.3773 46.2295 69.5193 46.6751 69.0408 47.4012L68.9417 46.4771H67.0938V54.6298H69.1067Z" fill="#00091A"/>
<path id="Vector_10" d="M37.6953 31.236C35.0433 36.0085 29.6436 38.2791 24.1837 38.2791H2.27734C25.0819 35.4286 40.9637 24.0263 42.9998 8.14453C45.0359 24.0263 60.9177 35.4286 83.7223 38.2791H61.8159C56.356 38.2791 50.9563 36.0085 48.3043 31.236C45.4339 26.0706 43.6051 20.2256 42.9998 13.8457C42.3945 20.2256 40.5657 26.0706 37.6953 31.236Z" fill="#002C7C"/>
<path id="Vector_11" d="M25.1676 29.5493C23.8883 30.2695 22.5427 30.946 21.1337 31.5761C20.3334 28.8114 20.0388 25.9107 20.2737 23.0212C20.5844 19.1986 21.8121 15.5133 23.8479 12.2919C25.8837 9.07053 28.6648 6.41232 31.945 4.55284C35.2251 2.69337 38.903 1.69 42.6528 1.63161C46.4026 1.57321 50.1086 2.46161 53.4425 4.21809C56.7764 5.97456 59.6354 8.54488 61.7661 11.7014C63.8969 14.858 65.2336 18.5033 65.658 22.3144C66.0051 25.4317 65.733 28.5814 64.866 31.5761C63.4571 30.946 62.1114 30.2694 60.8322 29.5492C61.3715 27.3598 61.5226 25.0821 61.2714 22.8254C60.9292 19.7521 59.8512 16.8125 58.133 14.2671C56.4148 11.7217 54.1093 9.64895 51.4208 8.23254C48.7323 6.81611 45.7438 6.09972 42.72 6.1468C39.6961 6.19388 36.7302 7.00301 34.0852 8.50245C31.4402 10.0019 29.1974 12.1455 27.5557 14.7432C25.914 17.341 24.9241 20.3128 24.6736 23.3954C24.5051 25.4673 24.6742 27.5465 25.1676 29.5493Z" fill="white"/>
</g>
</svg>
