<svg width="19" height="18" viewBox="0 0 19 18" fill="none" xmlns="http://www.w3.org/2000/svg">
<g id="login">
<g id="Union">
<path d="M10.2913 16.0059C8.10521 16.0059 6.33301 14.4372 6.33301 12.5021C6.33301 12.1151 6.68745 11.8013 7.12467 11.8013C7.5619 11.8013 7.91634 12.1151 7.91634 12.5021C7.91634 13.6631 8.97966 14.6043 10.2913 14.6043H13.458C14.7697 14.6043 15.833 13.6631 15.833 12.5021L15.833 5.4945C15.833 4.33344 14.7697 3.39222 13.458 3.39222H10.2913C8.97966 3.39222 7.91634 4.33344 7.91634 5.4945C7.91634 5.88151 7.5619 6.19525 7.12467 6.19525C6.68745 6.19525 6.33301 5.88151 6.33301 5.4945C6.33301 3.55941 8.10521 1.99071 10.2913 1.99071H13.458C15.6441 1.99071 17.4163 3.55941 17.4163 5.4945V12.5021C17.4163 14.4372 15.6441 16.0059 13.458 16.0059H10.2913Z" fill="#EE2A2A"/>
<path d="M2.37467 9.69904C1.93745 9.69904 1.58301 9.3853 1.58301 8.99828C1.58301 8.61127 1.93745 8.29753 2.37467 8.29753H8.93132C8.86085 8.2206 8.79332 8.14596 8.72945 8.07465C8.53511 7.85769 8.37056 7.66713 8.25438 7.53054C8.19624 7.46219 8.15007 7.40719 8.11818 7.36897L8.08131 7.32461L8.07143 7.31264L8.06794 7.30839C8.0679 7.30835 8.06754 7.30791 8.70801 6.89601L8.06794 7.30839C7.81094 6.99529 7.88896 6.55657 8.24268 6.32909C8.59638 6.10161 9.09143 6.17101 9.34844 6.48407L9.35067 6.48678L9.35878 6.49659L9.39184 6.53637C9.42109 6.57143 9.46432 6.62294 9.51927 6.68754C9.62926 6.81684 9.7856 6.99791 9.97011 7.2039C10.3432 7.62038 10.8157 8.12101 11.247 8.50277L11.8068 8.99828L11.247 9.49379C10.8157 9.87556 10.3432 10.3762 9.97011 10.7927C9.7856 10.9987 9.62926 11.1797 9.51927 11.309C9.46432 11.3736 9.42109 11.4251 9.39184 11.4602L9.35878 11.5L9.35067 11.5098L9.34882 11.512C9.09182 11.8251 8.59638 11.895 8.24268 11.6675C7.88896 11.44 7.81054 11.0018 8.06754 10.6887L8.70801 11.1006C8.06754 10.6887 8.0675 10.6887 8.06754 10.6887L8.06872 10.6872L8.07143 10.6839L8.08131 10.672L8.11818 10.6276C8.15007 10.5894 8.19624 10.5344 8.25438 10.466C8.37056 10.3294 8.53511 10.1389 8.72945 9.92192C8.79332 9.85061 8.86085 9.77596 8.93132 9.69904H2.37467Z" fill="#EE2A2A"/>
</g>
</g>
</svg>
