<svg width="16" height="16" viewBox="0 0 16 16" fill="none" xmlns="http://www.w3.org/2000/svg">
<g id="mingcute:ai-fill">
<g id="Group">
<path id="Vector" d="M8.39602 15.5056L8.38802 15.507L8.34069 15.5303L8.32736 15.533L8.31802 15.5303L8.27069 15.5063C8.26358 15.5045 8.25825 15.5058 8.25469 15.5103L8.25202 15.517L8.24069 15.8023L8.24402 15.8156L8.25069 15.8243L8.32002 15.8736L8.33002 15.8763L8.33802 15.8736L8.40736 15.8243L8.41536 15.8136L8.41802 15.8023L8.40669 15.5176C8.40491 15.5105 8.40136 15.5065 8.39602 15.5056ZM8.57202 15.4303L8.56269 15.4316L8.44002 15.4936L8.43336 15.5003L8.43136 15.5076L8.44336 15.7943L8.44669 15.8023L8.45202 15.8076L8.58602 15.869C8.59447 15.8712 8.60091 15.8694 8.60536 15.8636L8.60802 15.8543L8.58536 15.445C8.58313 15.4365 8.57869 15.4316 8.57202 15.4303ZM8.09536 15.4316C8.09242 15.4298 8.08891 15.4293 8.08555 15.43C8.0822 15.4308 8.07926 15.4328 8.07736 15.4356L8.07336 15.445L8.05069 15.8543C8.05113 15.8623 8.05491 15.8676 8.06202 15.8703L8.07202 15.869L8.20602 15.807L8.21269 15.8016L8.21469 15.7943L8.22669 15.5076L8.22469 15.4996L8.21802 15.493L8.09536 15.4316Z" fill="url(#paint0_linear_2195_24188)"/>
<path id="Vector_2" d="M6.07131 3.63265C6.46998 2.46598 8.08198 2.43065 8.55465 3.52665L8.59465 3.63332L9.13265 5.20665C9.25594 5.56747 9.45518 5.89766 9.71693 6.17493C9.97868 6.45221 10.2969 6.67013 10.65 6.81398L10.7946 6.86798L12.368 7.40532C13.5346 7.80398 13.57 9.41598 12.4746 9.88865L12.368 9.92865L10.7946 10.4667C10.4337 10.5899 10.1034 10.7891 9.82599 11.0508C9.5486 11.3126 9.33058 11.6308 9.18665 11.984L9.13265 12.128L8.59531 13.702C8.19665 14.8687 6.58464 14.904 6.11264 13.8087L6.07131 13.702L5.53398 12.1287C5.41076 11.7677 5.21156 11.4374 4.94981 11.16C4.68805 10.8826 4.36984 10.6646 4.01664 10.5207L3.87264 10.4667L2.29931 9.92932C1.13198 9.53065 1.09664 7.91865 2.19264 7.44665L2.29931 7.40532L3.87264 6.86798C4.23347 6.74469 4.56365 6.54545 4.84093 6.2837C5.1182 6.02195 5.33612 5.70378 5.47998 5.35065L5.53398 5.20665L6.07131 3.63265ZM12.6666 1.33398C12.7914 1.33398 12.9136 1.36897 13.0194 1.43497C13.1252 1.50096 13.2104 1.59532 13.2653 1.70732L13.2973 1.78532L13.5306 2.46932L14.2153 2.70265C14.3403 2.74511 14.4499 2.82373 14.5301 2.92853C14.6104 3.03333 14.6577 3.1596 14.6662 3.29133C14.6746 3.42307 14.6437 3.55434 14.5775 3.66851C14.5112 3.78268 14.4125 3.87461 14.294 3.93265L14.2153 3.96465L13.5313 4.19798L13.298 4.88265C13.2554 5.0076 13.1768 5.11712 13.0719 5.19731C12.9671 5.27751 12.8408 5.32478 12.7091 5.33313C12.5773 5.34149 12.4461 5.31055 12.332 5.24424C12.2178 5.17793 12.126 5.07923 12.068 4.96065L12.036 4.88265L11.8026 4.19865L11.118 3.96532C10.993 3.92285 10.8834 3.84424 10.8032 3.73944C10.7229 3.63464 10.6756 3.50837 10.6671 3.37664C10.6587 3.2449 10.6896 3.11363 10.7558 2.99946C10.8221 2.88529 10.9208 2.79336 11.0393 2.73532L11.118 2.70332L11.802 2.46998L12.0353 1.78532C12.0803 1.6536 12.1653 1.53926 12.2785 1.45832C12.3918 1.37738 12.5275 1.3339 12.6666 1.33398Z" fill="url(#paint1_linear_2195_24188)"/>
</g>
</g>
<defs>
<linearGradient id="paint0_linear_2195_24188" x1="8.32936" y1="15.4297" x2="8.32936" y2="15.8763" gradientUnits="userSpaceOnUse">
<stop stop-color="#0961FF"/>
<stop offset="1" stop-color="#395588"/>
</linearGradient>
<linearGradient id="paint1_linear_2195_24188" x1="8.03196" y1="1.33398" x2="8.03196" y2="14.6044" gradientUnits="userSpaceOnUse">
<stop stop-color="#0961FF"/>
<stop offset="1" stop-color="#395588"/>
</linearGradient>
</defs>
</svg>
