<svg width="208" height="175" viewBox="0 0 208 175" fill="none" xmlns="http://www.w3.org/2000/svg">
<g clip-path="url(#clip0_783_17051)">
<g opacity="0.5">
<path d="M149.77 52.5181L144.243 49.9053L144.269 49.8008C144.509 48.8421 144.693 47.8705 144.822 46.8908C144.851 46.4303 144.616 45.875 144.321 45.1728C143.648 43.5725 142.631 41.1524 143.922 37.3573C144.665 35.1658 146.663 33.1115 149.008 32.1317C150.123 31.682 151.319 31.4683 152.52 31.5038C153.722 31.5394 154.903 31.8235 155.99 32.3382C157.076 32.853 158.043 33.5871 158.831 34.4943C159.618 35.4015 160.209 36.462 160.565 37.6088C161.278 40.0485 160.945 42.8964 159.715 44.8626C157.583 48.2592 155.061 49.0006 153.393 49.4905C152.661 49.7061 152.085 49.8759 151.742 50.1894C151.064 50.9085 150.427 51.6652 149.835 52.456L149.77 52.5181ZM144.537 49.7518L149.678 52.1915C150.259 51.4168 150.885 50.6763 151.552 49.9739C151.941 49.6211 152.533 49.4415 153.305 49.2194C155.048 48.7099 157.416 48.0143 159.489 44.7025C160.68 42.7952 161.003 40.0321 160.307 37.6578C159.961 36.5468 159.389 35.5195 158.626 34.6406C157.863 33.7617 156.926 33.0503 155.874 32.5513C154.821 32.0523 153.677 31.7765 152.513 31.7414C151.349 31.7063 150.19 31.9126 149.109 32.3472C146.82 33.327 144.89 35.3062 144.168 37.4324C142.909 41.1328 143.864 43.4027 144.56 45.0618C144.871 45.7966 145.113 46.3682 145.08 46.8973C144.962 47.8591 144.783 48.8125 144.544 49.7518H144.537Z" fill="#002465"/>
<path d="M148.087 41.2344L145.638 50.4656L146.011 50.5643L148.46 41.3331L148.087 41.2344Z" fill="#002465"/>
<path d="M153.917 43.9221L148.299 51.65L148.612 51.8764L154.23 44.1485L153.917 43.9221Z" fill="#002465"/>
<path d="M149.825 45.4962C149.322 45.2578 149.102 44.6079 149.063 43.9024C148.975 43.9453 148.879 43.9694 148.781 43.9734C148.683 43.9773 148.585 43.9609 148.494 43.9253C147.68 43.5399 148.144 41.724 148.167 41.6391L148.354 41.6881C148.226 42.1682 148.026 43.4778 148.579 43.7424C148.658 43.7664 148.742 43.7739 148.824 43.7643C148.906 43.7548 148.985 43.7284 149.057 43.6869C149.047 43.1074 149.158 42.5323 149.384 41.9983C149.609 41.5248 149.92 41.3451 150.234 41.4888C150.328 41.5301 150.408 41.5965 150.465 41.6808C150.523 41.765 150.556 41.8637 150.561 41.9657C150.607 42.5209 150.012 43.2949 149.433 43.6934C149.371 43.7359 149.308 43.775 149.25 43.8077C149.279 44.487 149.479 45.1141 149.904 45.3133C150.296 45.4995 150.81 45.3133 151.284 44.9475C151.151 44.388 151.219 43.7996 151.477 43.2851C151.764 42.6809 152.173 42.4164 152.543 42.5895C152.847 42.7332 152.87 43.112 152.634 43.6281C152.356 44.1613 151.972 44.6324 151.506 45.0129C151.58 45.2114 151.729 45.3731 151.921 45.4636C152.399 45.6889 153.374 44.7353 153.71 44.3499L153.854 44.4772C153.723 44.6307 152.546 45.9665 151.84 45.6367C151.623 45.532 151.452 45.3536 151.356 45.1337C150.849 45.5126 150.29 45.7183 149.825 45.4962ZM152.464 42.7756C152.137 42.6254 151.83 43.0075 151.653 43.3766C151.438 43.8287 151.366 44.3359 151.447 44.83C151.868 44.4767 152.213 44.0423 152.461 43.553C152.553 43.3635 152.736 42.8998 152.461 42.7756H152.464ZM150.142 41.675C149.877 41.5476 149.671 41.8318 149.55 42.0931C149.345 42.5673 149.241 43.0788 149.243 43.5954L149.322 43.5432C149.845 43.1806 150.404 42.4556 150.365 41.9918C150.364 41.9216 150.342 41.8533 150.303 41.7952C150.263 41.7372 150.207 41.692 150.142 41.6652V41.675Z" fill="#002465"/>
<path d="M149.913 53.88L143.095 50.6467L143.817 49.128L150.636 52.3613L149.913 53.88ZM143.441 50.5226L149.792 53.5371L150.293 52.4854L143.942 49.4709L143.441 50.5226Z" fill="#002465"/>
<path d="M149.203 55.3758L142.385 52.1392L143.108 50.6205L149.926 53.8538L149.203 55.3758ZM142.728 52.0183L149.082 55.0296L149.583 53.9779L143.229 50.9667L142.728 52.0183Z" fill="#002465"/>
<path d="M148.494 56.875L141.675 53.6384L142.398 52.1197L149.217 55.3563L148.494 56.875ZM142.019 53.5175L148.37 56.5223L148.867 55.4706L142.516 52.4594L142.019 53.5175Z" fill="#002465"/>
</g>
<g opacity="0.5">
<path d="M108.273 79.2049L111.039 77.8975L111.026 77.8452C110.906 77.3654 110.814 76.8792 110.749 76.389C110.734 76.1586 110.852 75.8807 111 75.5294C111.337 74.7285 111.846 73.5175 111.199 71.6185C110.828 70.5219 109.828 69.4939 108.654 69.0036C108.097 68.7786 107.498 68.6716 106.897 68.6894C106.295 68.7072 105.704 68.8494 105.161 69.107C104.617 69.3645 104.133 69.7319 103.739 70.1859C103.345 70.6398 103.049 71.1705 102.871 71.7443C102.514 72.9651 102.681 74.3902 103.297 75.3741C104.364 77.0738 105.625 77.4448 106.46 77.6899C106.827 77.7978 107.115 77.8828 107.286 78.0396C107.626 78.3994 107.944 78.7781 108.24 79.1738L108.273 79.2049ZM110.892 77.8206L108.319 79.0415C108.028 78.6538 107.715 78.2833 107.381 77.9318C107.187 77.7553 106.89 77.6654 106.504 77.5543C105.632 77.2993 104.447 76.9512 103.41 75.294C102.814 74.3396 102.652 72.957 103 71.7688C103.173 71.2129 103.46 70.6989 103.842 70.259C104.223 69.8192 104.692 69.4633 105.219 69.2136C105.745 68.9638 106.318 68.8259 106.901 68.8083C107.483 68.7907 108.063 68.8939 108.604 69.1115C109.749 69.6017 110.715 70.5921 111.076 71.6561C111.707 73.5077 111.229 74.6436 110.88 75.4738C110.725 75.8415 110.604 76.1275 110.62 76.3923C110.679 76.8736 110.769 77.3506 110.888 77.8206H110.892Z" fill="#002465"/>
<path d="M109.115 73.5586L110.34 78.1779L110.154 78.2272L108.928 73.6079L109.115 73.5586Z" fill="#002465"/>
<path d="M106.198 74.9035L109.009 78.7705L108.853 78.8838L106.042 75.0168L106.198 74.9035Z" fill="#002465"/>
<path d="M108.245 75.6911C108.497 75.5718 108.607 75.2466 108.627 74.8936C108.671 74.915 108.719 74.9271 108.768 74.9291C108.817 74.931 108.866 74.9228 108.911 74.905C109.319 74.7122 109.087 73.8035 109.075 73.761L108.982 73.7855C109.046 74.0258 109.145 74.6811 108.869 74.8135C108.829 74.8255 108.788 74.8292 108.747 74.8245C108.705 74.8197 108.666 74.8065 108.63 74.7857C108.635 74.4958 108.579 74.208 108.466 73.9408C108.353 73.7038 108.198 73.6139 108.041 73.6858C107.994 73.7064 107.954 73.7397 107.925 73.7819C107.896 73.824 107.88 73.8734 107.877 73.9244C107.854 74.2023 108.152 74.5896 108.442 74.789C108.473 74.8102 108.504 74.8298 108.533 74.8462C108.519 75.1861 108.419 75.4999 108.206 75.5996C108.01 75.6927 107.753 75.5996 107.516 75.4165C107.582 75.1365 107.548 74.8421 107.419 74.5847C107.275 74.2823 107.07 74.15 106.885 74.2366C106.733 74.3085 106.722 74.4981 106.84 74.7563C106.979 75.0231 107.171 75.2589 107.404 75.4492C107.367 75.5486 107.292 75.6295 107.196 75.6748C106.957 75.7875 106.47 75.3103 106.301 75.1175L106.229 75.1812C106.295 75.258 106.884 75.9264 107.237 75.7614C107.346 75.709 107.431 75.6198 107.48 75.5097C107.733 75.6993 108.013 75.8022 108.245 75.6911ZM106.925 74.3297C107.088 74.2546 107.242 74.4458 107.331 74.6304C107.438 74.8567 107.474 75.1105 107.434 75.3577C107.223 75.1809 107.051 74.9636 106.926 74.7187C106.881 74.6239 106.789 74.3918 106.926 74.3297H106.925ZM108.087 73.779C108.219 73.7152 108.322 73.8574 108.383 73.9882C108.485 74.2255 108.538 74.4814 108.537 74.7399L108.497 74.7138C108.236 74.5324 107.956 74.1696 107.975 73.9375C107.976 73.9024 107.987 73.8682 108.007 73.8391C108.026 73.8101 108.054 73.7875 108.087 73.7741V73.779Z" fill="#002465"/>
<path d="M108.201 79.8864L111.613 78.2684L111.252 77.5085L107.84 79.1264L108.201 79.8864ZM111.44 78.2063L108.262 79.7148L108.011 79.1885L111.189 77.6801L111.44 78.2063Z" fill="#002465"/>
<path d="M108.557 80.6349L111.969 79.0153L111.607 78.2554L108.195 79.8733L108.557 80.6349ZM111.797 78.9549L108.617 80.4617L108.367 79.9354L111.547 78.4286L111.797 78.9549Z" fill="#002465"/>
<path d="M108.912 81.3851L112.324 79.7655L111.962 79.0056L108.55 80.6251L108.912 81.3851ZM112.152 79.705L108.974 81.2086L108.725 80.6823L111.903 79.1755L112.152 79.705Z" fill="#002465"/>
</g>
<path d="M144.529 38.9734H110.606V86.6294H144.529V38.9734Z" fill="white"/>
<path d="M144.529 38.9734H110.606V86.6294H144.529V38.9734Z" fill="white"/>
<path d="M144.529 38.9734H110.606V86.6294H144.529V38.9734Z" fill="white"/>
<path d="M144.529 86.6293C144.518 86.6293 110.602 86.6403 110.591 86.6445C110.58 86.6486 110.575 38.9775 110.571 38.9734V38.939H110.607C110.621 38.9307 144.536 38.9596 144.549 38.9541C144.563 38.9486 144.52 86.6183 144.53 86.6293H144.529ZM144.529 86.6293L144.509 38.9734C144.631 39.0216 110.58 38.9954 110.607 39.0078L110.642 38.9734L110.621 86.6293C110.531 86.6004 144.549 86.6293 144.53 86.6293H144.529Z" fill="#263238"/>
<path d="M144.529 85.5751H110.606V86.6293H144.529V85.5751Z" fill="#1F50B8"/>
<path opacity="0.1" d="M144.529 38.9734H127.336V86.6294H144.529V38.9734Z" fill="#1F50B8"/>
<path d="M142.116 42.1293H113.018V45.5411H142.116V42.1293Z" fill="#1F50B8"/>
<path d="M118.693 60.7975H113.018V61.1815H118.693V60.7975Z" fill="#455A64"/>
<path d="M118.693 78.8711H113.018V79.2551H118.693V78.8711Z" fill="#455A64"/>
<path d="M118.693 71.7432H113.018V72.1272H118.693V71.7432Z" fill="#455A64"/>
<path d="M126.139 62.4711H114.711V63.0009H126.139V62.4711Z" fill="#EBEBEB"/>
<path d="M122.973 62.4711H114.711V63.0009H122.973V62.4711Z" fill="#1F50B8"/>
<path d="M126.139 63.8405H114.711V64.3703H126.139V63.8405Z" fill="#EBEBEB"/>
<path d="M125.191 63.8405H114.711V64.3703H125.191V63.8405Z" fill="#1F50B8"/>
<path d="M126.139 65.2113H114.711V65.7412H126.139V65.2113Z" fill="#EBEBEB"/>
<path d="M123.617 65.2113H114.711V65.7412H123.617V65.2113Z" fill="#1F50B8"/>
<path d="M126.139 66.5821H114.711V67.112H126.139V66.5821Z" fill="#EBEBEB"/>
<path d="M124.532 66.5821H114.711V67.112H124.532V66.5821Z" fill="#1F50B8"/>
<path d="M126.139 67.9529H114.711V68.4828H126.139V67.9529Z" fill="#EBEBEB"/>
<path d="M125.458 67.9529H114.711V68.4828H125.458V67.9529Z" fill="#1F50B8"/>
<path d="M113.875 62.3073H113.018V63.1634H113.875V62.3073Z" fill="#1F50B8"/>
<path d="M113.875 63.6781H113.018V64.5342H113.875V63.6781Z" fill="#455A64"/>
<path d="M113.875 65.0489H113.018V65.905H113.875V65.0489Z" fill="#C7C7C7"/>
<path d="M113.875 66.4197H113.018V67.2757H113.875V66.4197Z" fill="#1F50B8"/>
<path d="M113.875 67.7905H113.018V68.6466H113.875V67.7905Z" fill="#263238"/>
<path d="M136.505 60.7975H129.223V61.1815H136.505V60.7975Z" fill="#455A64"/>
<path d="M131.99 62.2866H129.223V62.6706H131.99V62.2866Z" fill="#C7C7C7"/>
<path d="M131.99 65.5499H129.223V65.9339H131.99V65.5499Z" fill="#C7C7C7"/>
<path d="M131.99 68.8145H129.223V69.1984H131.99V68.8145Z" fill="#C7C7C7"/>
<path d="M131.99 72.0777H129.223V72.4617H131.99V72.0777Z" fill="#C7C7C7"/>
<path d="M131.99 75.4951H129.223V75.879H131.99V75.4951Z" fill="#C7C7C7"/>
<path d="M134.813 62.478C137.163 62.4105 139.748 62.4092 142.098 62.478C139.748 62.5468 137.163 62.5454 134.813 62.478Z" fill="#A6A6A6"/>
<path d="M134.813 63.0024C137.163 62.9335 139.748 62.9335 142.098 63.0024C139.748 63.0698 137.163 63.0698 134.813 63.0024Z" fill="#A6A6A6"/>
<path d="M134.813 63.5253C137.163 63.4579 139.748 63.4565 142.098 63.5253C139.748 63.5942 137.163 63.5928 134.813 63.5253Z" fill="#A6A6A6"/>
<path d="M134.813 64.047C135.839 63.9759 136.869 63.9759 137.895 64.047C136.87 64.1171 135.842 64.1171 134.817 64.047H134.813Z" fill="#A6A6A6"/>
<path d="M134.813 65.7508C137.163 65.6834 139.748 65.6834 142.098 65.7508C139.748 65.8197 137.163 65.8183 134.813 65.7508Z" fill="#A6A6A6"/>
<path d="M134.813 66.2752C137.163 66.2077 139.748 66.2063 142.098 66.2752C139.748 66.3426 137.163 66.3426 134.813 66.2752Z" fill="#A6A6A6"/>
<path d="M134.813 66.7996C137.163 66.7322 139.748 66.7322 142.098 66.7996C139.748 66.8684 137.163 66.8684 134.813 66.7996Z" fill="#A6A6A6"/>
<path d="M134.813 67.3226C135.838 67.2517 136.866 67.2517 137.89 67.3226C136.866 67.3928 135.838 67.3928 134.813 67.3226Z" fill="#A6A6A6"/>
<path d="M134.813 69.0237C137.163 68.9562 139.748 68.9562 142.098 69.0237C139.748 69.0925 137.163 69.0925 134.813 69.0237Z" fill="#A6A6A6"/>
<path d="M134.813 69.5521C137.163 69.4847 139.748 69.4833 142.098 69.5521C139.748 69.6209 137.163 69.6196 134.813 69.5521Z" fill="#A6A6A6"/>
<path d="M134.813 70.0724C137.163 70.0036 139.748 70.0036 142.098 70.0724C139.748 70.1399 137.163 70.1399 134.813 70.0724Z" fill="#A6A6A6"/>
<path d="M134.813 70.5954C135.838 70.5252 136.866 70.5252 137.89 70.5954C136.866 70.6663 135.838 70.6663 134.813 70.5954Z" fill="#A6A6A6"/>
<path d="M134.813 75.5707C137.163 75.5033 139.748 75.5019 142.098 75.5707C139.748 75.6382 137.163 75.6382 134.813 75.5707Z" fill="#A6A6A6"/>
<path d="M134.813 76.0937C137.163 76.0263 139.748 76.0263 142.098 76.0937C139.748 76.1625 137.163 76.1625 134.813 76.0937Z" fill="#A6A6A6"/>
<path d="M134.813 76.6181C137.163 76.5507 139.748 76.5493 142.098 76.6181C139.748 76.6869 137.163 76.6856 134.813 76.6181Z" fill="#A6A6A6"/>
<path d="M134.813 77.1425C135.838 77.0716 136.866 77.0716 137.89 77.1425C136.866 77.2126 135.838 77.2126 134.813 77.1425Z" fill="#A6A6A6"/>
<path d="M134.813 72.3047C137.163 72.2359 139.748 72.2359 142.098 72.3047C139.748 72.3722 137.163 72.3722 134.813 72.3047Z" fill="#A6A6A6"/>
<path d="M134.813 72.8209C137.163 72.7535 139.748 72.7535 142.098 72.8209C139.748 72.8897 137.163 72.8883 134.813 72.8209Z" fill="#A6A6A6"/>
<path d="M134.813 73.3453C137.163 73.2778 139.748 73.2765 142.098 73.3453C139.748 73.4127 137.163 73.4127 134.813 73.3453Z" fill="#A6A6A6"/>
<path d="M134.813 73.8683C135.838 73.7981 136.866 73.7981 137.89 73.8683C136.866 73.9391 135.838 73.9391 134.813 73.8683Z" fill="#A6A6A6"/>
<path d="M133.355 62.3472L133.375 64.8067L133.388 67.2675L133.399 72.1878L133.389 72.4906L133.375 74.95L133.355 77.4109L133.333 74.95L133.32 72.4906L133.309 72.1878L133.32 67.2675L133.333 64.8067L133.355 62.3472Z" fill="#1F50B8"/>
<path d="M133.524 62.478C133.524 62.5117 133.514 62.5447 133.496 62.5728C133.477 62.6009 133.45 62.6227 133.419 62.6356C133.388 62.6486 133.353 62.6519 133.32 62.6454C133.287 62.6388 133.257 62.6225 133.233 62.5986C133.209 62.5748 133.192 62.5444 133.186 62.5113C133.179 62.4782 133.183 62.4438 133.196 62.4127C133.209 62.3815 133.23 62.3548 133.259 62.3361C133.287 62.3173 133.32 62.3073 133.354 62.3073C133.399 62.3073 133.442 62.3253 133.474 62.3573C133.506 62.3893 133.524 62.4327 133.524 62.478Z" fill="#1F50B8"/>
<path d="M133.524 65.7508C133.524 65.7846 133.514 65.8176 133.496 65.8456C133.477 65.8737 133.45 65.8956 133.419 65.9085C133.388 65.9214 133.353 65.9248 133.32 65.9182C133.287 65.9116 133.257 65.8953 133.233 65.8715C133.209 65.8476 133.192 65.8172 133.186 65.7841C133.179 65.751 133.183 65.7167 133.196 65.6855C133.209 65.6543 133.23 65.6277 133.259 65.6089C133.287 65.5902 133.32 65.5801 133.354 65.5801C133.376 65.58 133.398 65.5843 133.419 65.5928C133.44 65.6013 133.459 65.6138 133.475 65.6297C133.491 65.6456 133.503 65.6645 133.512 65.6853C133.52 65.7061 133.525 65.7283 133.524 65.7508Z" fill="#1F50B8"/>
<path d="M133.524 69.0237C133.525 69.0575 133.515 69.0906 133.496 69.1189C133.478 69.1471 133.451 69.1692 133.42 69.1823C133.389 69.1954 133.354 69.199 133.321 69.1926C133.288 69.1862 133.257 69.17 133.233 69.1462C133.209 69.1224 133.193 69.092 133.186 69.0588C133.179 69.0257 133.183 68.9913 133.195 68.9601C133.208 68.9288 133.23 68.902 133.258 68.8832C133.287 68.8644 133.32 68.8544 133.354 68.8544C133.376 68.8542 133.398 68.8584 133.419 68.8669C133.44 68.8753 133.458 68.8877 133.474 68.9035C133.49 68.9192 133.503 68.9379 133.511 68.9586C133.52 68.9792 133.524 69.0013 133.524 69.0237Z" fill="#1F50B8"/>
<path d="M133.524 72.3048C133.524 72.3385 133.514 72.3715 133.496 72.3996C133.477 72.4276 133.45 72.4495 133.419 72.4624C133.388 72.4753 133.353 72.4787 133.32 72.4721C133.287 72.4656 133.257 72.4493 133.233 72.4254C133.209 72.4016 133.192 72.3712 133.186 72.3381C133.179 72.3049 133.183 72.2706 133.196 72.2395C133.209 72.2083 133.23 72.1816 133.259 72.1629C133.287 72.1441 133.32 72.1341 133.354 72.1341C133.376 72.1339 133.398 72.1382 133.419 72.1467C133.44 72.1552 133.459 72.1678 133.475 72.1837C133.491 72.1996 133.503 72.2184 133.512 72.2392C133.52 72.26 133.525 72.2823 133.524 72.3048Z" fill="#1F50B8"/>
<path d="M133.524 75.5708C133.524 75.6045 133.514 75.6375 133.496 75.6656C133.477 75.6936 133.45 75.7155 133.419 75.7284C133.388 75.7413 133.353 75.7447 133.32 75.7381C133.287 75.7315 133.257 75.7153 133.233 75.6914C133.209 75.6676 133.192 75.6371 133.186 75.604C133.179 75.5709 133.183 75.5366 133.196 75.5054C133.209 75.4743 133.23 75.4476 133.259 75.4288C133.287 75.4101 133.32 75.4001 133.354 75.4001C133.399 75.4001 133.442 75.4181 133.474 75.4501C133.506 75.4821 133.524 75.5255 133.524 75.5708Z" fill="#1F50B8"/>
<path d="M115.545 74.6996C115.545 75.006 115.434 75.302 115.231 75.5323C115.029 75.7626 114.75 75.9116 114.445 75.9513C114.141 75.9911 113.833 75.919 113.578 75.7484C113.323 75.5778 113.139 75.3204 113.06 75.0243C112.981 74.7282 113.013 74.4135 113.149 74.139C113.286 73.8645 113.517 73.6489 113.801 73.5325C114.085 73.4161 114.402 73.4068 114.692 73.5063C114.982 73.6058 115.226 73.8074 115.378 74.0733C115.488 74.264 115.545 74.4799 115.545 74.6996Z" fill="#455A64"/>
<path d="M115.378 74.0733L114.276 74.6995V73.4375C114.5 73.4364 114.72 73.4947 114.913 73.6064C115.107 73.7181 115.268 73.8793 115.378 74.0733Z" fill="#1F50B8"/>
<path d="M115.155 74.6995C115.155 74.8721 115.104 75.0408 115.008 75.1843C114.912 75.3278 114.775 75.4397 114.616 75.5057C114.456 75.5717 114.28 75.589 114.111 75.5554C113.942 75.5217 113.786 75.4386 113.664 75.3165C113.541 75.1945 113.458 75.039 113.425 74.8698C113.391 74.7005 113.408 74.5251 113.474 74.3656C113.54 74.2062 113.652 74.0699 113.796 73.974C113.94 73.8781 114.109 73.827 114.281 73.827C114.513 73.827 114.735 73.9189 114.899 74.0825C115.063 74.2462 115.155 74.4681 115.155 74.6995Z" fill="white"/>
<path d="M114.645 74.5055H113.917V74.6087H114.645V74.5055Z" fill="#263238"/>
<path d="M114.827 74.7917H113.738V74.895H114.827V74.7917Z" fill="#A6A6A6"/>
<path d="M119.081 74.6995C119.082 74.7617 119.077 74.8238 119.068 74.8853C119.019 75.208 118.848 75.4996 118.589 75.6986C118.33 75.8976 118.004 75.9886 117.679 75.9525C117.355 75.9164 117.057 75.7559 116.848 75.5049C116.639 75.2539 116.536 74.9318 116.56 74.6064C116.584 74.281 116.734 73.9776 116.977 73.7601C117.221 73.5425 117.539 73.4276 117.866 73.4397C118.192 73.4518 118.501 73.5898 118.728 73.8247C118.955 74.0597 119.081 74.3732 119.081 74.6995Z" fill="#455A64"/>
<path d="M119.081 74.6995C119.081 74.7617 119.077 74.8238 119.067 74.8853L117.817 74.6995V73.4374C118.153 73.4374 118.474 73.5704 118.711 73.8071C118.948 74.0438 119.081 74.3648 119.081 74.6995Z" fill="#1F50B8"/>
<path d="M118.691 74.6995C118.691 74.8721 118.64 75.0408 118.544 75.1843C118.448 75.3278 118.312 75.4397 118.152 75.5057C117.992 75.5717 117.817 75.589 117.647 75.5554C117.478 75.5217 117.322 75.4386 117.2 75.3165C117.078 75.1945 116.994 75.039 116.961 74.8698C116.927 74.7005 116.944 74.5251 117.01 74.3656C117.076 74.2062 117.188 74.0699 117.332 73.974C117.476 73.8781 117.645 73.827 117.818 73.827C118.049 73.827 118.272 73.9189 118.435 74.0825C118.599 74.2462 118.691 74.4681 118.691 74.6995Z" fill="white"/>
<path d="M118.181 74.5055H117.454V74.6087H118.181V74.5055Z" fill="#263238"/>
<path d="M118.36 74.7917H117.273V74.895H118.36V74.7917Z" fill="#A6A6A6"/>
<path d="M122.642 74.6996C122.642 74.9549 122.565 75.2043 122.42 75.4147C122.275 75.6251 122.069 75.7865 121.831 75.8777C121.686 75.9335 121.533 75.962 121.379 75.9616C121.157 75.9607 120.939 75.9015 120.747 75.7899C120.556 75.6783 120.397 75.5183 120.287 75.326C120.177 75.1336 120.119 74.9157 120.12 74.6942C120.121 74.4726 120.18 74.2552 120.292 74.0638C120.404 73.8725 120.564 73.7138 120.757 73.6039C120.949 73.4939 121.168 73.4365 121.389 73.4375C121.611 73.4385 121.829 73.4977 122.021 73.6094C122.212 73.721 122.371 73.881 122.481 74.0733C122.589 74.2641 122.645 74.4802 122.642 74.6996Z" fill="#455A64"/>
<path d="M122.643 74.6995C122.643 74.9549 122.565 75.2043 122.42 75.4146C122.275 75.625 122.07 75.7865 121.831 75.8776L121.379 74.6995V73.4375C121.603 73.4364 121.823 73.4947 122.016 73.6064C122.21 73.7181 122.371 73.8793 122.481 74.0733C122.59 74.2641 122.645 74.4802 122.643 74.6995Z" fill="#1F50B8"/>
<path d="M122.253 74.6995C122.253 74.8725 122.202 75.0417 122.106 75.1856C122.01 75.3295 121.873 75.4418 121.713 75.5081C121.553 75.5744 121.377 75.5918 121.207 75.5581C121.037 75.5245 120.881 75.4412 120.759 75.3189C120.636 75.1966 120.553 75.0407 120.519 74.8711C120.485 74.7014 120.503 74.5256 120.569 74.3658C120.636 74.2061 120.748 74.0696 120.892 73.9737C121.036 73.8778 121.206 73.8267 121.379 73.827C121.611 73.827 121.833 73.9189 121.997 74.0825C122.161 74.2462 122.253 74.4681 122.253 74.6995Z" fill="white"/>
<path d="M121.742 74.5055H121.015V74.6087H121.742V74.5055Z" fill="#263238"/>
<path d="M121.922 74.7917H120.834V74.895H121.922V74.7917Z" fill="#A6A6A6"/>
<path d="M126.18 74.6995C126.181 74.8653 126.148 75.0296 126.085 75.1829C126.022 75.3362 125.928 75.4755 125.811 75.5927C125.694 75.71 125.554 75.803 125.401 75.8663C125.247 75.9295 125.083 75.9619 124.917 75.9616C124.667 75.9616 124.422 75.8876 124.214 75.7489C124.007 75.6102 123.845 75.4131 123.749 75.1825C123.653 74.9519 123.628 74.6981 123.677 74.4533C123.726 74.2085 123.846 73.9836 124.023 73.8071C124.2 73.6306 124.425 73.5104 124.67 73.4617C124.915 73.413 125.169 73.438 125.4 73.5335C125.631 73.629 125.828 73.7908 125.967 73.9983C126.106 74.2059 126.18 74.4499 126.18 74.6995Z" fill="#455A64"/>
<path d="M126.18 74.6995C126.18 74.8654 126.148 75.0296 126.084 75.1829C126.021 75.3362 125.928 75.4755 125.811 75.5927C125.693 75.71 125.554 75.803 125.4 75.8663C125.247 75.9296 125.082 75.962 124.916 75.9616C124.616 75.9624 124.325 75.8555 124.096 75.6602L124.916 74.6968V73.4347C125.082 73.4347 125.247 73.4674 125.4 73.531C125.554 73.5946 125.693 73.6878 125.811 73.8053C125.928 73.9228 126.021 74.0623 126.085 74.2157C126.148 74.3691 126.18 74.5335 126.18 74.6995Z" fill="#1F50B8"/>
<path d="M124.919 75.5721C125.402 75.5721 125.793 75.1815 125.793 74.6995C125.793 74.2176 125.402 73.827 124.919 73.827C124.437 73.827 124.045 74.2176 124.045 74.6995C124.045 75.1815 124.437 75.5721 124.919 75.5721Z" fill="white"/>
<path d="M125.283 74.5055H124.555V74.6087H125.283V74.5055Z" fill="#263238"/>
<path d="M125.462 74.7917H124.375V74.895H125.462V74.7917Z" fill="#A6A6A6"/>
<path d="M113.971 81.716C113.952 81.733 113.929 81.7445 113.903 81.749L113.87 81.7559H113.811L113.752 81.7463C113.675 81.7289 113.602 81.6967 113.538 81.6513C113.386 81.5499 113.256 81.4194 113.155 81.2673C113.11 81.2039 113.079 81.1324 113.061 81.0567C113.061 81.0361 113.061 81.0154 113.052 80.9962V80.9384C113.055 80.9201 113.059 80.9022 113.066 80.8847C113.072 80.8687 113.079 80.8531 113.088 80.8379L113.097 80.8461L113.34 81.0884C113.34 81.0884 113.34 81.0966 113.34 81.1035C113.333 81.1236 113.332 81.145 113.337 81.1656C113.342 81.1861 113.352 81.2051 113.366 81.2205C113.433 81.2988 113.507 81.372 113.585 81.4393C113.601 81.4537 113.62 81.4637 113.64 81.4683C113.661 81.4729 113.682 81.4719 113.702 81.4655C113.702 81.4655 113.712 81.4655 113.716 81.4655L113.963 81.7105C113.963 81.7105 113.97 81.7132 113.971 81.716Z" fill="#1F50B8"/>
<path d="M114.113 81.5741L114.027 81.6595L113.779 81.4117L113.797 81.3939L113.87 81.3223C113.874 81.3172 113.879 81.313 113.884 81.3101C113.89 81.3072 113.896 81.3057 113.902 81.3057C113.908 81.3057 113.914 81.3072 113.92 81.3101C113.925 81.313 113.93 81.3172 113.934 81.3223L114.118 81.5067C114.124 81.5105 114.129 81.5158 114.132 81.522C114.135 81.5282 114.136 81.5352 114.136 81.5421C114.135 81.549 114.133 81.5556 114.129 81.5612C114.125 81.5669 114.119 81.5713 114.113 81.5741Z" fill="#1F50B8"/>
<path d="M113.483 80.9411L113.388 81.0319L113.143 80.787L113.229 80.7002C113.233 80.6957 113.238 80.692 113.243 80.6894C113.248 80.6869 113.254 80.6855 113.26 80.6855C113.266 80.6855 113.271 80.6869 113.277 80.6894C113.282 80.692 113.286 80.6957 113.29 80.7002L113.477 80.8874C113.481 80.8905 113.485 80.8944 113.487 80.8988C113.49 80.9032 113.491 80.908 113.492 80.9131C113.492 80.9181 113.492 80.9232 113.49 80.928C113.489 80.9328 113.486 80.9373 113.483 80.9411Z" fill="#1F50B8"/>
<path d="M114.08 82.9711L114.054 82.9959L113.641 83.3909C113.635 83.3976 113.627 83.403 113.619 83.4067C113.611 83.4104 113.602 83.4123 113.593 83.4123C113.584 83.4123 113.575 83.4104 113.567 83.4067C113.559 83.403 113.551 83.3976 113.545 83.3909L113.12 82.989L113.103 82.9739C113.114 82.9665 113.127 82.9626 113.14 82.9629H113.428H114.029C114.047 82.9607 114.064 82.9636 114.08 82.9711Z" fill="#1F50B8"/>
<path d="M114.079 83.7047C114.067 83.7053 114.055 83.7053 114.043 83.7047H113.698H113.147C113.131 83.7048 113.116 83.701 113.102 83.6937L113.446 83.3675L113.512 83.4294L113.54 83.4556C113.547 83.4626 113.555 83.4682 113.564 83.472C113.573 83.4758 113.583 83.4778 113.593 83.4778C113.603 83.4778 113.613 83.4758 113.622 83.472C113.631 83.4682 113.639 83.4626 113.646 83.4556L113.738 83.3675C113.851 83.4762 113.966 83.5836 114.08 83.6909L114.079 83.7047Z" fill="#1F50B8"/>
<path d="M113.402 83.3372C113.29 83.4445 113.177 83.5505 113.067 83.6592C113.067 83.6592 113.067 83.6496 113.067 83.6427C113.067 83.4404 113.067 83.2395 113.067 83.0372C113.066 83.0308 113.066 83.0243 113.067 83.0179L113.402 83.3372Z" fill="#1F50B8"/>
<path d="M114.115 83.6552C114.073 83.6153 114.032 83.5754 113.989 83.5368L113.787 83.3441H113.778C113.89 83.2354 114.003 83.1294 114.112 83.0221C114.117 83.0276 114.12 83.6387 114.115 83.6552Z" fill="#1F50B8"/>
<path d="M130.629 80.9453C130.599 81.0218 130.581 81.1026 130.577 81.1848H130.363C130.363 81.1848 130.363 81.1738 130.363 81.1683C130.366 81.14 130.37 81.1119 130.377 81.0843C130.388 81.0392 130.404 80.9953 130.424 80.9536H130.621L130.629 80.9453Z" fill="#1F50B8"/>
<path d="M130.622 81.4806H130.427C130.404 81.4333 130.388 81.3834 130.378 81.332C130.373 81.3075 130.37 81.2827 130.369 81.2577V81.2508H130.578V81.3017C130.581 81.3285 130.585 81.3552 130.591 81.3815C130.598 81.4142 130.607 81.4464 130.618 81.4779L130.622 81.4806Z" fill="#1F50B8"/>
<path d="M131.444 81.5426C131.427 81.5674 131.408 81.5913 131.389 81.6142C131.364 81.6414 131.337 81.6663 131.307 81.6885C131.251 81.7322 131.186 81.7644 131.117 81.7835C131.091 81.7915 131.063 81.7975 131.036 81.8013H131.023C131.083 81.7609 131.135 81.7106 131.178 81.6527C131.202 81.6195 131.223 81.5845 131.241 81.5481H131.441L131.444 81.5426Z" fill="#1F50B8"/>
<path d="M131.248 81.1848H130.972V80.9453H131.187C131.207 80.9894 131.221 81.0356 131.23 81.0829C131.236 81.1078 131.239 81.1331 131.241 81.1586C131.244 81.167 131.247 81.1758 131.248 81.1848Z" fill="#1F50B8"/>
<path d="M131.246 81.2508V81.2687V81.3086C131.246 81.3265 131.246 81.3444 131.237 81.3623C131.229 81.4023 131.217 81.4415 131.201 81.4793H130.98V81.2508H131.246Z" fill="#1F50B8"/>
<path d="M130.912 80.9467V81.1861H130.645C130.644 81.1802 130.644 81.1742 130.645 81.1682V81.1283C130.645 81.1077 130.651 81.087 130.656 81.0678C130.665 81.0272 130.678 80.9876 130.694 80.9494H130.901L130.912 80.9467Z" fill="#1F50B8"/>
<path d="M130.913 81.2508V81.4793H130.698C130.682 81.4402 130.669 81.3996 130.661 81.3581C130.661 81.3361 130.654 81.3155 130.651 81.2935C130.648 81.2714 130.651 81.2659 130.651 81.2508H130.916H130.913Z" fill="#1F50B8"/>
<path d="M131.539 81.1862H131.314C131.31 81.1036 131.292 81.0222 131.262 80.9453H131.471C131.495 80.9928 131.512 81.0432 131.522 81.0953C131.529 81.1229 131.532 81.151 131.533 81.1793L131.539 81.1862Z" fill="#1F50B8"/>
<path d="M131.54 81.2508C131.54 81.2558 131.54 81.2609 131.54 81.2659C131.54 81.2866 131.54 81.3072 131.534 81.3265C131.525 81.3738 131.511 81.4199 131.492 81.4641C131.488 81.4707 131.485 81.4776 131.483 81.4848H131.274C131.274 81.4765 131.274 81.4696 131.281 81.4627C131.294 81.4274 131.303 81.391 131.309 81.354C131.314 81.3272 131.317 81.3001 131.319 81.2728C131.319 81.2664 131.319 81.26 131.319 81.2535H131.542L131.54 81.2508Z" fill="#1F50B8"/>
<path d="M131.438 80.8833H131.239C131.213 80.8309 131.18 80.7823 131.141 80.7388C131.118 80.7134 131.093 80.6904 131.066 80.67L131.025 80.6397C131.094 80.6476 131.161 80.6676 131.223 80.6989C131.309 80.7414 131.383 80.8048 131.438 80.8833Z" fill="#1F50B8"/>
<path d="M130.875 81.8013C130.853 81.7987 130.831 81.7945 130.81 81.7889C130.77 81.7793 130.732 81.7655 130.696 81.7476C130.654 81.7266 130.615 81.7008 130.58 81.6706C130.555 81.6494 130.531 81.6264 130.51 81.6018C130.494 81.5825 130.48 81.5622 130.467 81.5412H130.653C130.689 81.6146 130.739 81.6808 130.799 81.7366C130.823 81.7596 130.849 81.7803 130.876 81.7986L130.875 81.8013Z" fill="#1F50B8"/>
<path d="M130.866 80.637L130.839 80.6576C130.807 80.6822 130.777 80.7099 130.751 80.7402C130.713 80.7814 130.681 80.8278 130.657 80.8778V80.8874H130.464C130.51 80.8196 130.57 80.7622 130.64 80.7191C130.71 80.6759 130.788 80.6479 130.869 80.637H130.866Z" fill="#1F50B8"/>
<path d="M131.166 81.5426C131.141 81.5868 131.111 81.6279 131.076 81.6651C131.045 81.6983 131.01 81.7275 130.972 81.7518V81.5426H131.166Z" fill="#1F50B8"/>
<path d="M130.912 81.5426V81.749C130.835 81.6952 130.771 81.6246 130.726 81.5426H130.912Z" fill="#1F50B8"/>
<path d="M131.161 80.8833H130.974V80.6865C131.012 80.7108 131.048 80.7405 131.078 80.7745C131.11 80.8078 131.137 80.8442 131.161 80.8833Z" fill="#1F50B8"/>
<path d="M130.912 80.7003V80.8916H130.729C130.774 80.8145 130.837 80.749 130.912 80.7003Z" fill="#1F50B8"/>
<path d="M131.406 82.9767C131.355 82.8714 131.269 82.7871 131.163 82.7384C131.056 82.6896 130.936 82.6795 130.823 82.7097C130.713 82.7345 130.615 82.7986 130.548 82.8899C130.481 82.9813 130.449 83.0938 130.459 83.2065C130.468 83.2824 130.49 83.3561 130.525 83.424C130.598 83.575 130.694 83.7142 130.808 83.8369C130.852 83.8878 130.9 83.936 130.946 83.9855L130.962 83.9717C131.023 83.9071 131.086 83.8437 131.144 83.7749C131.254 83.6534 131.342 83.5137 131.405 83.362C131.432 83.3016 131.447 83.2359 131.447 83.1695C131.447 83.1031 131.433 83.0373 131.406 82.9767ZM131.256 83.1583C131.254 83.1988 131.245 83.2385 131.228 83.2752C131.211 83.3119 131.186 83.3449 131.157 83.3723C131.127 83.3997 131.092 83.4209 131.054 83.4347C131.016 83.4486 130.975 83.4547 130.935 83.4529C130.854 83.4487 130.779 83.4128 130.725 83.353C130.671 83.2932 130.643 83.2146 130.647 83.1343C130.652 83.054 130.688 82.9786 130.747 82.9248C130.807 82.871 130.886 82.8431 130.966 82.8473C131.046 82.8516 131.12 82.8864 131.174 82.9444C131.228 83.0024 131.257 83.0791 131.256 83.1583Z" fill="#1F50B8"/>
<path d="M115.217 80.8612C118.093 80.7938 121.322 80.7938 124.2 80.8612C121.322 80.9287 118.093 80.9287 115.217 80.8612Z" fill="#A6A6A6"/>
<path d="M115.217 81.5081C116.713 81.4384 118.21 81.4384 119.708 81.5081C118.211 81.5769 116.714 81.5769 115.217 81.5081Z" fill="#A6A6A6"/>
<path d="M115.217 83.0124C118.093 82.945 121.322 82.945 124.2 83.0124C121.322 83.0799 118.093 83.0799 115.217 83.0124Z" fill="#A6A6A6"/>
<path d="M115.217 83.6593C116.713 83.5896 118.21 83.5896 119.708 83.6593C118.211 83.7281 116.714 83.7281 115.217 83.6593Z" fill="#A6A6A6"/>
<path d="M133.133 80.8612C136.009 80.7938 139.239 80.7938 142.116 80.8612C139.239 80.9287 136.009 80.9287 133.133 80.8612Z" fill="#A6A6A6"/>
<path d="M133.133 81.5081C134.629 81.4384 136.126 81.4384 137.624 81.5081C136.128 81.5769 134.63 81.5769 133.133 81.5081Z" fill="#A6A6A6"/>
<path d="M133.133 83.0124C136.009 82.945 139.239 82.945 142.116 83.0124C139.239 83.0799 136.009 83.0799 133.133 83.0124Z" fill="#A6A6A6"/>
<path d="M133.133 83.6593C134.629 83.5896 136.126 83.5896 137.624 83.6593C136.128 83.7281 134.63 83.7281 133.133 83.6593Z" fill="#A6A6A6"/>
<path d="M129.565 47.501C133.148 47.4336 137.168 47.4336 140.751 47.501C137.168 47.5685 133.148 47.5685 129.565 47.501Z" fill="#A6A6A6"/>
<path d="M129.565 48.5979C133.148 48.5305 137.168 48.5305 140.751 48.5979C137.168 48.6654 133.148 48.6654 129.565 48.5979Z" fill="#A6A6A6"/>
<path d="M129.565 49.6948C133.148 49.6274 137.168 49.6274 140.751 49.6948C137.168 49.7622 133.148 49.7622 129.565 49.6948Z" fill="#A6A6A6"/>
<path d="M129.565 53.1562C133.148 53.0888 137.168 53.0888 140.751 53.1562C137.168 53.2237 133.148 53.2237 129.565 53.1562Z" fill="#A6A6A6"/>
<path d="M129.565 54.2531C132.262 54.1857 135.229 54.1843 137.925 54.2531C135.229 54.3206 132.262 54.3206 129.565 54.2531Z" fill="#A6A6A6"/>
<path d="M129.565 50.7918C131.139 50.7216 132.717 50.7216 134.291 50.7918C132.717 50.8606 131.139 50.8606 129.565 50.7918Z" fill="#A6A6A6"/>
<path d="M124.33 44.3271V43.0885C124.33 43.0732 124.333 43.0581 124.339 43.044C124.344 43.0299 124.353 43.0171 124.364 43.0063C124.375 42.9955 124.387 42.987 124.402 42.9813C124.416 42.9755 124.431 42.9727 124.446 42.9728C124.461 42.9727 124.477 42.9755 124.491 42.9813C124.505 42.987 124.518 42.9955 124.529 43.0062C124.54 43.017 124.548 43.0298 124.554 43.0439C124.56 43.058 124.563 43.0732 124.563 43.0885V43.5908H125.106V43.0885C125.106 43.0733 125.109 43.0582 125.114 43.0441C125.12 43.03 125.128 43.0172 125.139 43.0064C125.149 42.9956 125.162 42.9871 125.176 42.9813C125.19 42.9755 125.205 42.9727 125.221 42.9728C125.236 42.9727 125.251 42.9755 125.265 42.9813C125.279 42.987 125.292 42.9955 125.303 43.0062C125.314 43.017 125.323 43.0298 125.329 43.0439C125.335 43.058 125.338 43.0732 125.338 43.0885V44.3271C125.338 44.3424 125.335 44.3575 125.329 44.3715C125.323 44.3855 125.314 44.3983 125.303 44.4089C125.292 44.4195 125.279 44.4279 125.265 44.4335C125.251 44.439 125.236 44.4417 125.221 44.4414C125.205 44.4416 125.191 44.4387 125.177 44.433C125.163 44.4274 125.15 44.419 125.139 44.4083C125.129 44.3977 125.12 44.385 125.115 44.3711C125.109 44.3571 125.106 44.3422 125.106 44.3271V43.8303H124.563V44.3326C124.563 44.3479 124.56 44.363 124.554 44.377C124.548 44.391 124.54 44.4038 124.529 44.4144C124.518 44.425 124.505 44.4334 124.491 44.439C124.476 44.4446 124.461 44.4472 124.446 44.4469C124.43 44.4473 124.415 44.4444 124.4 44.4385C124.386 44.4326 124.373 44.4237 124.362 44.4124C124.351 44.4012 124.342 44.3878 124.337 44.3731C124.332 44.3584 124.329 44.3428 124.33 44.3271Z" fill="white"/>
<path d="M125.72 43.9184C125.719 43.8506 125.731 43.7833 125.757 43.7204C125.782 43.6574 125.819 43.6 125.866 43.5514C125.914 43.5029 125.97 43.4641 126.033 43.4373C126.095 43.4105 126.162 43.3963 126.23 43.3954C126.361 43.3943 126.487 43.4445 126.582 43.5353C126.676 43.6261 126.732 43.7503 126.736 43.8812V43.8909C126.737 43.8972 126.737 43.9038 126.736 43.9101C126.732 43.9355 126.718 43.9584 126.698 43.974C126.678 43.9897 126.652 43.9969 126.627 43.9941H125.961C125.97 44.0462 125.995 44.0941 126.033 44.1317C126.086 44.1862 126.157 44.2199 126.233 44.2267C126.309 44.234 126.386 44.2156 126.452 44.1744C126.473 44.1552 126.501 44.1447 126.53 44.1447C126.559 44.1447 126.587 44.1552 126.609 44.1744C126.618 44.1834 126.625 44.1941 126.63 44.2059C126.635 44.2177 126.638 44.2304 126.638 44.2432C126.638 44.256 126.635 44.2687 126.63 44.2805C126.625 44.2923 126.618 44.3031 126.609 44.312C126.506 44.4047 126.371 44.4541 126.233 44.4497C126.164 44.4489 126.096 44.4346 126.033 44.4074C125.97 44.3802 125.913 44.3407 125.865 44.2913C125.817 44.2418 125.78 44.1834 125.755 44.1194C125.73 44.0554 125.718 43.987 125.72 43.9184ZM125.947 43.8166H126.54C126.516 43.7528 126.474 43.6976 126.419 43.6581C126.364 43.6186 126.298 43.5966 126.23 43.595C126.165 43.595 126.101 43.6168 126.05 43.657C125.999 43.6972 125.963 43.7534 125.947 43.8166Z" fill="white"/>
<path d="M127.197 42.9769C127.228 42.9769 127.258 42.9891 127.28 43.0107C127.302 43.0323 127.314 43.0618 127.315 43.0925V44.3312C127.315 44.3619 127.302 44.3913 127.281 44.413C127.259 44.4346 127.229 44.4468 127.199 44.4468C127.168 44.4468 127.139 44.4346 127.117 44.413C127.095 44.3913 127.083 44.3619 127.083 44.3312V43.0925C127.083 43.0621 127.095 43.0329 127.116 43.0113C127.138 42.9896 127.167 42.9773 127.197 42.9769Z" fill="white"/>
<path d="M127.719 42.9769C127.75 42.9769 127.78 42.9891 127.802 43.0107C127.824 43.0323 127.836 43.0618 127.836 43.0925V44.3312C127.833 44.3599 127.82 44.3864 127.798 44.4056C127.777 44.4249 127.749 44.4355 127.72 44.4355C127.691 44.4355 127.663 44.4249 127.642 44.4056C127.62 44.3864 127.607 44.3599 127.604 44.3312V43.0925C127.604 43.062 127.616 43.0328 127.638 43.0112C127.659 42.9896 127.689 42.9773 127.719 42.9769Z" fill="white"/>
<path d="M128.213 44.2886C128.121 44.1889 128.071 44.0569 128.075 43.9211C128.073 43.7861 128.123 43.6553 128.213 43.555C128.259 43.5048 128.314 43.4646 128.376 43.4371C128.438 43.4096 128.505 43.3954 128.573 43.3954C128.639 43.3953 128.705 43.4095 128.765 43.4371C128.826 43.4646 128.88 43.5048 128.923 43.555C129.018 43.6534 129.07 43.7847 129.069 43.9211C129.071 43.989 129.058 44.0565 129.033 44.1197C129.008 44.1828 128.971 44.2402 128.923 44.2886C128.88 44.3388 128.826 44.379 128.765 44.4066C128.705 44.4341 128.639 44.4484 128.573 44.4483C128.505 44.4482 128.438 44.434 128.376 44.4065C128.314 44.379 128.259 44.3388 128.213 44.2886ZM128.296 43.9211C128.294 44.0016 128.321 44.0802 128.372 44.1427C128.426 44.1937 128.498 44.2214 128.573 44.2198C128.645 44.2202 128.714 44.1926 128.766 44.1427C128.82 44.0818 128.849 44.0026 128.847 43.9211C128.849 43.8409 128.82 43.763 128.766 43.7037C128.714 43.6544 128.645 43.6259 128.573 43.6239C128.498 43.6246 128.427 43.653 128.372 43.7037C128.319 43.7639 128.29 43.8412 128.29 43.9211H128.296Z" fill="white"/>
<path d="M129.419 43.9376V43.0925C129.419 43.062 129.432 43.0328 129.453 43.0112C129.475 42.9896 129.504 42.9773 129.535 42.9769C129.55 42.9771 129.565 42.9802 129.578 42.9861C129.592 42.9921 129.605 43.0006 129.615 43.0114C129.626 43.0221 129.634 43.0348 129.64 43.0487C129.645 43.0626 129.648 43.0775 129.648 43.0925V43.9376C129.648 43.9526 129.645 43.9676 129.64 43.9816C129.634 43.9956 129.626 44.0084 129.616 44.0192C129.605 44.0299 129.592 44.0385 129.579 44.0444C129.565 44.0502 129.55 44.0532 129.535 44.0532C129.504 44.0532 129.475 44.041 129.453 44.0193C129.431 43.9977 129.419 43.9683 129.419 43.9376ZM129.535 44.4413C129.52 44.4415 129.505 44.4387 129.491 44.433C129.476 44.4274 129.464 44.419 129.453 44.4083C129.442 44.3977 129.434 44.3851 129.428 44.3711C129.422 44.3572 129.419 44.3422 129.419 44.3271V44.2844C129.419 44.254 129.432 44.2249 129.453 44.2036C129.475 44.1822 129.504 44.1702 129.535 44.1702C129.565 44.1705 129.594 44.1827 129.615 44.2041C129.636 44.2255 129.648 44.2544 129.648 44.2844V44.3271C129.648 44.3421 129.645 44.357 129.64 44.3709C129.634 44.3849 129.626 44.3975 129.616 44.4082C129.605 44.4189 129.592 44.4273 129.578 44.433C129.565 44.4387 129.55 44.4415 129.535 44.4413Z" fill="white"/>
<path d="M135.494 55.913H134.27V57.1352H135.494V55.913Z" fill="#1F50B8"/>
<path d="M134.768 56.6535H134.604V56.4663H134.765C134.765 56.4511 134.765 56.4401 134.765 56.4291C134.765 56.3796 134.765 56.33 134.765 56.2805C134.766 56.231 134.786 56.1837 134.82 56.1474C134.853 56.111 134.899 56.0879 134.948 56.0823C135.016 56.0775 135.085 56.0775 135.153 56.0823V56.253H135.079C135.057 56.2516 135.035 56.2516 135.013 56.253C134.998 56.2552 134.985 56.2626 134.976 56.2737C134.966 56.2847 134.961 56.2989 134.96 56.3135C134.96 56.3603 134.96 56.4085 134.96 56.4608H135.148C135.14 56.5227 135.133 56.5805 135.124 56.6369C135.124 56.6369 135.109 56.6493 135.101 56.6493H134.963V57.131H134.763L134.768 56.6535Z" fill="white"/>
<path d="M130.789 55.9061H129.565V57.1282H130.789V55.9061Z" fill="#1F50B8"/>
<path d="M130.627 56.2681C130.629 56.2414 130.626 56.2145 130.617 56.1893C130.607 56.1642 130.593 56.1412 130.574 56.1221C130.555 56.103 130.533 56.088 130.508 56.0783C130.483 56.0686 130.456 56.0643 130.429 56.0658H129.925C129.898 56.0646 129.872 56.0689 129.848 56.0785C129.823 56.088 129.801 56.1026 129.782 56.1213C129.764 56.1399 129.749 56.1623 129.74 56.1868C129.73 56.2114 129.726 56.2377 129.728 56.264C129.728 56.3479 129.728 56.4319 129.728 56.5158V56.7608C129.726 56.7881 129.729 56.8154 129.739 56.8411C129.748 56.8668 129.763 56.8902 129.782 56.9097C129.801 56.9292 129.824 56.9445 129.85 56.9544C129.875 56.9643 129.903 56.9687 129.93 56.9672H130.428C130.455 56.9686 130.481 56.9644 130.507 56.9547C130.532 56.945 130.555 56.9301 130.574 56.911C130.593 56.8919 130.607 56.869 130.617 56.8439C130.626 56.8187 130.63 56.7918 130.629 56.7649L130.627 56.2681ZM130.546 56.7663C130.548 56.7826 130.546 56.7991 130.541 56.8145C130.536 56.83 130.527 56.8441 130.516 56.8558C130.504 56.8674 130.49 56.8763 130.475 56.8818C130.459 56.8873 130.443 56.8892 130.426 56.8874C130.261 56.8874 130.094 56.8874 129.927 56.8874C129.911 56.8892 129.895 56.8873 129.88 56.8819C129.864 56.8764 129.85 56.8677 129.839 56.8562C129.827 56.8447 129.818 56.8308 129.813 56.8155C129.808 56.8002 129.806 56.7838 129.807 56.7677V56.2653C129.806 56.2491 129.808 56.2327 129.813 56.2174C129.819 56.202 129.827 56.188 129.839 56.1764C129.85 56.1648 129.864 56.1559 129.879 56.1504C129.895 56.1448 129.911 56.1427 129.927 56.1442C130.094 56.1442 130.26 56.1442 130.426 56.1442C130.442 56.1425 130.459 56.1444 130.474 56.1498C130.489 56.1552 130.503 56.164 130.515 56.1754C130.526 56.1869 130.535 56.2008 130.541 56.2162C130.546 56.2315 130.548 56.2478 130.546 56.264C130.546 56.3479 130.546 56.4319 130.546 56.5158C130.546 56.5998 130.548 56.6824 130.546 56.7663Z" fill="white"/>
<path d="M130.177 56.2805C130.115 56.2805 130.055 56.3049 130.011 56.3484C129.967 56.392 129.942 56.4511 129.941 56.5131C129.941 56.5593 129.954 56.6046 129.98 56.6433C130.005 56.6819 130.042 56.7121 130.084 56.7301C130.127 56.748 130.174 56.7529 130.22 56.7442C130.265 56.7354 130.307 56.7134 130.34 56.6808C130.373 56.6483 130.395 56.6068 130.405 56.5614C130.414 56.5161 130.41 56.469 130.392 56.4262C130.375 56.3833 130.345 56.3466 130.307 56.3207C130.268 56.2947 130.223 56.2807 130.177 56.2805ZM130.177 56.6713C130.136 56.67 130.098 56.6533 130.069 56.6247C130.04 56.596 130.024 56.5576 130.022 56.5172C130.022 56.4859 130.031 56.4552 130.048 56.429C130.065 56.4028 130.089 56.3822 130.118 56.37C130.147 56.3578 130.179 56.3545 130.209 56.3604C130.24 56.3664 130.268 56.3814 130.29 56.4035C130.313 56.4256 130.328 56.4538 130.334 56.4845C130.34 56.5152 130.336 56.547 130.324 56.5758C130.312 56.6045 130.291 56.629 130.265 56.646C130.239 56.6631 130.208 56.6719 130.177 56.6713Z" fill="white"/>
<path d="M130.483 56.275C130.481 56.2892 130.475 56.3024 130.464 56.3115C130.453 56.3207 130.438 56.3251 130.424 56.3239C130.41 56.3226 130.397 56.3157 130.388 56.3047C130.378 56.2938 130.374 56.2796 130.375 56.2654C130.375 56.2583 130.377 56.2513 130.38 56.2449C130.383 56.2385 130.387 56.2328 130.393 56.2282C130.398 56.2235 130.404 56.22 130.411 56.2179C130.418 56.2158 130.425 56.2151 130.432 56.2158C130.466 56.2213 130.485 56.2392 130.483 56.275Z" fill="white"/>
<path d="M133.123 55.913H131.899V57.1352H133.123V55.913Z" fill="#1F50B8"/>
<path d="M132.055 56.9769C132.074 56.9067 132.092 56.8392 132.112 56.7759C132.119 56.7574 132.119 56.7367 132.112 56.7181C132.083 56.6567 132.068 56.5895 132.069 56.5217C132.07 56.4538 132.086 56.387 132.116 56.3262C132.146 56.2654 132.19 56.2122 132.243 56.1705C132.297 56.1288 132.359 56.0997 132.426 56.0854C132.492 56.071 132.561 56.0719 132.627 56.0877C132.693 56.1036 132.755 56.1342 132.807 56.1771C132.86 56.2201 132.902 56.2743 132.931 56.3358C132.959 56.3973 132.974 56.4645 132.973 56.5323C132.968 56.6448 132.921 56.7514 132.842 56.8317C132.763 56.912 132.657 56.9602 132.544 56.9672C132.467 56.9704 132.39 56.9558 132.32 56.9246C132.306 56.9197 132.291 56.9197 132.277 56.9246L132.055 56.9769ZM132.165 56.8709C132.21 56.8585 132.248 56.8475 132.287 56.8392C132.299 56.8358 132.313 56.8358 132.325 56.8392C132.382 56.8692 132.445 56.8857 132.509 56.8874C132.564 56.8882 132.619 56.8768 132.669 56.8541C132.719 56.8314 132.764 56.7979 132.8 56.756C132.836 56.7141 132.862 56.6648 132.877 56.6117C132.891 56.5585 132.894 56.5027 132.885 56.4484C132.875 56.3768 132.843 56.31 132.794 56.257C132.744 56.2041 132.68 56.1676 132.609 56.1525C132.538 56.1365 132.464 56.1413 132.396 56.1664C132.327 56.1916 132.268 56.2359 132.224 56.2941C132.18 56.3522 132.154 56.4218 132.149 56.4944C132.144 56.5669 132.16 56.6394 132.196 56.703C132.2 56.7173 132.2 56.7327 132.196 56.747C132.187 56.7938 132.176 56.8296 132.165 56.8709Z" fill="white"/>
<path d="M132.314 56.3396C132.346 56.2983 132.387 56.3052 132.408 56.352C132.416 56.3699 132.419 56.3754 132.427 56.396C132.434 56.4075 132.436 56.421 132.434 56.4341C132.432 56.4472 132.425 56.459 132.415 56.4676C132.398 56.4814 132.4 56.4938 132.415 56.5103C132.449 56.5615 132.497 56.6021 132.553 56.6273C132.559 56.6314 132.568 56.6327 132.575 56.6309C132.583 56.6291 132.59 56.6243 132.594 56.6176C132.634 56.5695 132.634 56.5708 132.691 56.597L132.71 56.6066C132.719 56.6095 132.727 56.6149 132.734 56.6222C132.74 56.6295 132.744 56.6385 132.746 56.6481C132.747 56.6576 132.746 56.6674 132.743 56.6764C132.739 56.6854 132.733 56.6931 132.725 56.6988C132.709 56.7154 132.688 56.7271 132.666 56.7327C132.644 56.7383 132.62 56.7375 132.598 56.7305C132.483 56.699 132.384 56.624 132.323 56.5213C132.301 56.4917 132.289 56.4561 132.288 56.4194C132.289 56.3909 132.298 56.3632 132.314 56.3396Z" fill="white"/>
<path d="M122.14 46.4728H113.378V57.7785H122.14V46.4728Z" fill="#DBDBDB"/>
<path d="M118.924 50.5213C119.096 50.962 119.343 51.3639 119.481 51.8176C119.615 52.2378 119.655 52.6825 119.597 53.1198C119.351 54.7203 117.265 55.6805 115.802 55.1829C115.104 54.9456 114.491 54.3772 114.305 53.6493C114.077 52.7519 114.554 51.8983 114.844 51.0837C115.004 50.6271 115.083 50.1463 115.079 49.6627C115.079 49.2389 115.053 48.8082 115.139 48.3903C115.2 48.0912 115.404 47.2247 116.504 46.8787C117.294 46.6304 118.093 47.0601 118.461 47.81C118.888 48.6835 118.58 49.6468 118.924 50.5213Z" fill="#263238"/>
<path d="M115.162 50.6519C114.82 51.3818 114.372 52.1277 114.241 52.9324C114.132 53.6005 114.312 54.3284 114.894 54.7203C114.894 54.7203 114.905 54.7203 114.9 54.7123C114.289 54.2397 114.213 53.422 114.384 52.718C114.56 51.9971 114.983 51.3709 115.196 50.6659C115.203 50.6439 115.172 50.629 115.162 50.6519Z" fill="#263238"/>
<path d="M115.007 50.609C114.748 51.5663 113.96 52.3211 113.909 53.3392C113.909 53.3512 113.927 53.3542 113.928 53.3392C113.994 52.3221 114.871 51.6002 115.026 50.609C115.028 50.6 115.01 50.598 115.007 50.609Z" fill="#263238"/>
<path d="M118.98 50.5053C118.815 50.1509 118.713 49.7701 118.68 49.3805C118.68 49.3596 118.645 49.3586 118.644 49.3805C118.552 50.7855 120.164 51.8395 119.735 53.2933C119.735 53.3033 119.747 53.3103 119.751 53.2993C119.957 52.701 119.797 52.1027 119.527 51.5473C119.354 51.1943 119.146 50.8603 118.98 50.5053Z" fill="#263238"/>
<path d="M118.653 49.1711C118.653 49.1442 118.61 49.1521 118.612 49.1781C118.652 49.7046 118.824 50.2127 119.112 50.6558C119.252 50.8742 119.424 51.0706 119.56 51.292C119.708 51.5353 119.823 51.7906 119.947 52.0518C119.947 52.0578 119.959 52.0518 119.957 52.0469C119.795 51.5622 119.541 51.1773 119.249 50.7655C118.921 50.2917 118.716 49.7437 118.653 49.1711Z" fill="#263238"/>
<path d="M118.512 52.0649C120.109 53.5815 122.161 56.8123 121.82 57.4924C121.439 58.2482 119.215 56.1223 119.219 55.9966C119.219 55.8969 118.4 53.9226 117.778 52.4857C117.156 51.0488 118.116 51.6899 118.512 52.0649Z" fill="#FFC4C0"/>
<path d="M119.205 55.9966C119.132 55.7852 118.015 53.1797 117.694 52.355C117.372 51.5304 117.637 51.2631 118.504 52.001C119.37 52.7389 121.299 55.2308 121.762 56.573C122.21 57.8643 121.537 57.8862 120.629 57.3128C119.887 56.8442 119.205 55.9966 119.205 55.9966Z" fill="#1F50B8"/>
<path d="M116.364 51.2901C116.393 51.3898 116.91 52.019 117.371 51.9732C117.52 51.9572 117.47 51.1366 117.47 51.1366L117.481 51.0747L117.626 50.2152L116.593 49.6279L116.444 49.5511C116.444 49.5511 116.42 49.7884 116.393 50.0856C116.393 50.0985 116.393 50.1125 116.393 50.1274L116.387 50.1753C116.387 50.2202 116.378 50.265 116.375 50.3099C116.372 50.3548 116.369 50.3777 116.367 50.4096C116.365 50.4415 116.367 50.4814 116.36 50.5173C116.344 50.7747 116.345 51.0329 116.364 51.2901Z" fill="#FFC4C0"/>
<path d="M116.396 50.0865C116.495 50.3204 116.643 50.5301 116.831 50.7009C117.019 50.8717 117.242 50.9996 117.484 51.0756L117.629 50.2161L116.596 49.6288L116.447 49.552C116.447 49.552 116.423 49.7873 116.396 50.0865Z" fill="#263238"/>
<path d="M118.708 48.7014C119.019 50.1972 118.155 50.5551 117.832 50.621C117.538 50.6818 116.534 50.8503 116.066 49.3925C115.597 47.9346 116.2 47.3164 116.864 47.1429C117.528 46.9694 118.396 47.2027 118.708 48.7014Z" fill="#FFC4C0"/>
<path d="M118.201 48.4222C118.166 48.4242 118.13 48.4242 118.095 48.4222C118.058 48.4262 118.02 48.4174 117.988 48.3973C117.98 48.389 117.974 48.3781 117.972 48.3662C117.97 48.3544 117.972 48.3422 117.977 48.3315C117.992 48.3124 118.011 48.2974 118.033 48.2881C118.055 48.2789 118.079 48.2756 118.103 48.2786C118.153 48.2777 118.201 48.2951 118.238 48.3275C118.245 48.3353 118.25 48.345 118.252 48.3553C118.254 48.3657 118.253 48.3764 118.249 48.3863C118.245 48.3961 118.238 48.4047 118.23 48.411C118.222 48.4174 118.212 48.4213 118.201 48.4222Z" fill="#263238"/>
<path d="M117.201 48.6416C117.236 48.6307 117.266 48.6157 117.301 48.6028C117.337 48.5933 117.369 48.5727 117.393 48.5439C117.399 48.5332 117.401 48.5209 117.399 48.509C117.396 48.4971 117.39 48.4862 117.381 48.4781C117.362 48.4647 117.339 48.4568 117.315 48.4552C117.291 48.4537 117.267 48.4585 117.246 48.4691C117.198 48.4842 117.159 48.5162 117.134 48.5589C117.129 48.5689 117.127 48.5801 117.128 48.5912C117.13 48.6023 117.134 48.6127 117.141 48.6214C117.148 48.6301 117.157 48.6366 117.168 48.6402C117.178 48.6438 117.19 48.6443 117.201 48.6416Z" fill="#263238"/>
<path d="M117.466 48.9657C117.466 48.9657 117.459 48.9717 117.46 48.9757C117.483 49.0754 117.492 49.198 117.406 49.2499C117.406 49.2499 117.406 49.2569 117.406 49.2559C117.518 49.218 117.504 49.0584 117.466 48.9657Z" fill="#263238"/>
<path d="M117.354 48.876C117.186 48.8959 117.237 49.228 117.392 49.21C117.547 49.1921 117.494 48.86 117.354 48.876Z" fill="#263238"/>
<path d="M117.292 48.9039C117.266 48.9268 117.242 48.9647 117.208 48.9737C117.174 48.9826 117.132 48.9537 117.1 48.9238C117.109 48.9876 117.143 49.0494 117.213 49.0484C117.283 49.0474 117.313 48.9846 117.318 48.9178C117.316 48.9108 117.303 48.8949 117.292 48.9039Z" fill="#263238"/>
<path d="M118.065 48.8321C118.065 48.8321 118.074 48.8321 118.075 48.8401C118.086 48.9398 118.117 49.0604 118.216 49.0814V49.0874C118.099 49.0894 118.06 48.9328 118.065 48.8321Z" fill="#263238"/>
<path d="M118.142 48.7115C118.307 48.6746 118.368 49.0056 118.216 49.0395C118.064 49.0734 118.004 48.7424 118.142 48.7115Z" fill="#263238"/>
<path d="M118.215 48.7204C118.245 48.7334 118.277 48.7603 118.308 48.7563C118.339 48.7523 118.365 48.7114 118.382 48.6725C118.382 48.6725 118.387 48.6725 118.388 48.6725C118.401 48.7354 118.393 48.8052 118.334 48.8281C118.275 48.851 118.234 48.8032 118.203 48.7423C118.198 48.7344 118.203 48.7154 118.215 48.7204Z" fill="#263238"/>
<path d="M117.641 49.7485C117.667 49.7714 117.694 49.8033 117.732 49.8043C117.771 49.8009 117.808 49.7897 117.843 49.7714C117.829 49.7926 117.81 49.8097 117.787 49.8211C117.764 49.8325 117.739 49.8377 117.714 49.8362C117.692 49.832 117.672 49.8215 117.657 49.8061C117.641 49.7907 117.63 49.771 117.626 49.7495C117.629 49.7485 117.637 49.7455 117.641 49.7485Z" fill="#263238"/>
<path d="M118.029 49.3227C118.029 49.3227 118.068 49.4743 118.077 49.547C118.077 49.554 118.061 49.559 118.036 49.564C117.975 49.583 117.91 49.5848 117.848 49.5692C117.786 49.5535 117.729 49.521 117.684 49.4753C117.678 49.4693 117.684 49.4603 117.694 49.4643C117.795 49.5164 117.91 49.5346 118.022 49.5161C118.022 49.4962 117.944 49.2589 117.956 49.2569C118.013 49.2546 118.07 49.2603 118.125 49.2738C118.051 48.9547 117.926 48.6506 117.858 48.3325C117.858 48.3303 117.858 48.3281 117.859 48.3263C117.86 48.3244 117.862 48.3229 117.864 48.3222C117.866 48.3214 117.868 48.3213 117.87 48.3219C117.873 48.3225 117.874 48.3238 117.876 48.3255C118.02 48.6459 118.131 48.98 118.208 49.3227C118.216 49.3676 118.059 49.3317 118.029 49.3227Z" fill="#263238"/>
<path d="M116.111 49.3207C116.434 49.2758 116.354 48.5359 116.354 48.5359C116.354 48.5359 116.886 48.3644 117.065 47.9656C117.065 47.9656 116.955 48.3056 116.758 48.4641C116.724 48.4911 117.819 48.2368 117.815 47.3763C117.815 47.3763 118.084 48.1919 118.613 48.2986C118.638 48.2986 118.442 47.5458 118.256 47.3882C118.044 47.2096 117.793 47.0822 117.524 47.0156C117.255 46.949 116.973 46.9452 116.702 47.0043C116.034 47.1908 115.681 47.9616 115.667 48.2607C115.638 48.851 115.958 49.3426 116.111 49.3207Z" fill="#263238"/>
<path d="M116.795 48.4791C117.394 48.3794 117.827 47.9287 117.794 47.3055C117.794 47.3025 117.796 47.2999 117.799 47.2981C117.801 47.2962 117.804 47.2952 117.807 47.2952C117.81 47.2952 117.813 47.2962 117.815 47.2981C117.818 47.2999 117.82 47.3025 117.82 47.3055C117.983 47.9207 117.364 48.4662 116.786 48.4941C116.777 48.4911 116.783 48.4811 116.795 48.4791Z" fill="#263238"/>
<path d="M116.108 49.2888C116.415 49.0794 116.424 48.7444 116.408 48.4073C116.408 48.3973 116.424 48.3944 116.426 48.4073C116.473 48.7344 116.465 49.1432 116.126 49.3177C116.122 49.3201 116.118 49.3209 116.113 49.3198C116.109 49.3188 116.105 49.3161 116.103 49.3122C116.1 49.3084 116.1 49.3038 116.101 49.2994C116.102 49.295 116.104 49.2912 116.108 49.2888Z" fill="#263238"/>
<path d="M117.804 47.2486H117.81C117.928 47.5846 118.017 48.166 118.472 48.1959C118.474 48.1965 118.475 48.1978 118.477 48.1995C118.478 48.2012 118.479 48.2033 118.479 48.2054C118.479 48.2075 118.478 48.2095 118.477 48.2112C118.475 48.2129 118.474 48.2142 118.472 48.2148C118.033 48.2238 117.803 47.6126 117.804 47.2486Z" fill="#263238"/>
<path d="M116.324 49.3157C116.324 49.3157 115.924 48.8939 115.725 49.0445C115.525 49.1951 115.882 49.8422 116.147 49.8961C116.181 49.9056 116.216 49.9083 116.251 49.9038C116.285 49.8994 116.319 49.888 116.349 49.8703C116.379 49.8525 116.405 49.8289 116.426 49.8008C116.447 49.7727 116.462 49.7406 116.47 49.7066L116.324 49.3157Z" fill="#FFC4C0"/>
<path d="M115.831 49.227C115.831 49.227 115.831 49.233 115.831 49.234C116.018 49.2788 116.136 49.4274 116.23 49.588C116.217 49.5718 116.201 49.5585 116.182 49.5493C116.164 49.54 116.143 49.5348 116.123 49.5341C116.102 49.5335 116.081 49.5373 116.062 49.5454C116.043 49.5535 116.026 49.5656 116.012 49.581C116.012 49.5819 116.011 49.5831 116.011 49.5842C116.011 49.5853 116.012 49.5864 116.012 49.5873C116.013 49.5883 116.014 49.589 116.015 49.5895C116.016 49.5899 116.017 49.5901 116.018 49.59C116.048 49.5752 116.081 49.57 116.114 49.5752C116.146 49.5804 116.177 49.5957 116.2 49.6189C116.239 49.6571 116.275 49.6996 116.305 49.7455C116.315 49.7605 116.343 49.7455 116.334 49.7305C116.299 49.5012 116.076 49.213 115.831 49.227Z" fill="#263238"/>
<path d="M119.425 57.7786H114.738C114.627 57.7836 114.521 57.7836 114.424 57.7786H113.818C113.826 57.7367 113.834 57.6918 113.843 57.645C113.843 57.629 113.85 57.614 113.853 57.5981C113.856 57.5821 113.853 57.5921 113.853 57.5891C113.853 57.5861 113.86 57.5542 113.864 57.5363C114.01 56.8113 114.269 55.6187 114.61 54.467C114.61 54.4541 114.617 54.4411 114.621 54.4281C114.625 54.4152 114.635 54.3803 114.643 54.3564C114.942 53.3383 115.315 52.362 115.72 51.7927C115.749 51.7498 115.78 51.7089 115.811 51.671C115.842 51.6331 115.867 51.6022 115.896 51.5713C115.941 51.521 115.99 51.4734 116.04 51.4287C116.116 51.3649 116.105 50.8613 116.14 50.8304C116.21 50.823 116.279 50.825 116.348 50.8364C116.548 50.8544 116.869 50.8922 117.147 50.9301C117.281 50.9481 117.404 50.967 117.499 50.983C117.565 50.9888 117.629 51.0029 117.691 51.0249C117.71 51.0608 117.791 51.5354 117.791 51.5354L117.827 51.5813L117.858 51.6222C118.004 51.8126 118.228 52.1207 118.457 52.4558L118.475 52.4807C118.761 52.8858 119.015 53.3125 119.235 53.7571C119.245 53.779 119.254 53.8019 119.263 53.8239C119.272 53.8458 119.285 53.8767 119.294 53.9016C119.294 53.9086 119.294 53.9146 119.301 53.9206C119.32 53.9716 119.335 54.0239 119.346 54.0771C119.47 54.6754 119.094 55.3385 119.074 55.3734L119.124 55.7145L119.142 55.8381L119.163 55.9807V55.9987V56.0056V56.0136L119.219 56.4025L119.381 57.5153L119.396 57.615L119.425 57.7786Z" fill="#1F50B8"/>
<path d="M118.807 55.3056C118.521 55.2823 118.232 55.308 117.954 55.3814C117.954 55.3814 117.954 55.3884 117.954 55.3874C118.094 55.3705 118.236 55.3545 118.378 55.3425C118.52 55.3306 118.664 55.3226 118.806 55.3136C118.812 55.3136 118.812 55.3066 118.807 55.3056Z" fill="#263238"/>
<path d="M116.306 51.3529C116.287 51.229 116.29 51.1028 116.315 50.98C116.334 51.1039 116.331 51.2301 116.306 51.3529Z" fill="#263238"/>
<path d="M116.555 51.3828C116.544 51.3213 116.54 51.2588 116.543 51.1964C116.543 51.1336 116.55 51.0712 116.564 51.0099C116.583 51.1338 116.58 51.26 116.555 51.3828Z" fill="#263238"/>
<path d="M116.802 51.4097C116.783 51.2855 116.786 51.1589 116.811 51.0358C116.83 51.16 116.827 51.2865 116.802 51.4097Z" fill="#263238"/>
<path d="M117.051 51.4376C117.032 51.3138 117.035 51.1875 117.06 51.0647C117.07 51.1263 117.074 51.1888 117.072 51.2512C117.071 51.3138 117.064 51.3763 117.051 51.4376Z" fill="#263238"/>
<path d="M117.298 51.4656C117.279 51.3417 117.282 51.2155 117.307 51.0927C117.326 51.2165 117.323 51.3428 117.298 51.4656Z" fill="#263238"/>
<path d="M117.547 51.4935C117.528 51.3696 117.531 51.2434 117.556 51.1205C117.575 51.2444 117.572 51.3707 117.547 51.4935Z" fill="#263238"/>
<path d="M118.458 52.4528C119.11 53.3322 119.885 54.3473 119.108 55.4063L119.121 55.3654L119.208 55.9986V56.0066V56.0116C119.286 56.6009 119.361 57.1912 119.423 57.7835C119.312 57.1982 119.213 56.6119 119.124 56.0236C119.124 56.0355 119.124 56.0176 119.124 56.0156L119.024 55.3844V55.3614C119.779 54.3334 119.024 53.3781 118.459 52.4577L118.458 52.4528Z" fill="#263238"/>
<path d="M118.688 52.6033C118.802 52.7366 118.87 52.9032 118.88 53.078C118.805 52.9248 118.742 52.7661 118.691 52.6033H118.688Z" fill="#263238"/>
<path d="M121.838 57.4475C121.833 57.4614 121.827 57.4751 121.821 57.4884C121.798 57.5236 121.773 57.5569 121.745 57.5881C121.743 57.5887 121.741 57.5887 121.74 57.5881C121.723 57.6084 121.704 57.6271 121.684 57.6439C121.629 57.6933 121.57 57.7368 121.506 57.7735H117.453C117.368 57.62 117.287 57.4614 117.22 57.3099V57.3039L117.199 57.255C117.183 57.2201 117.168 57.1852 117.155 57.1553C117.012 56.8053 116.955 56.5241 117.071 56.4902L117.114 56.4782C117.176 56.4623 117.254 56.4413 117.344 56.4194L117.365 56.4144H117.376L117.401 56.4084L117.581 56.3646C117.733 56.3287 117.902 56.2888 118.073 56.2499L118.385 56.1781C118.577 56.1352 118.759 56.0943 118.913 56.0614H118.923L119.166 56.0096L119.206 56.0026H119.219H119.227C119.279 55.9926 119.314 55.9856 119.326 55.9846H119.378C119.56 55.9781 119.742 55.9986 119.918 56.0455L119.957 56.0554L120.01 56.0704L120.03 56.0764C120.246 56.1427 120.455 56.2298 120.654 56.3366C120.769 56.3965 120.88 56.4613 120.985 56.5291C121.504 56.8482 121.876 57.247 121.838 57.4475Z" fill="#FFC4C0"/>
<path d="M118.98 57.7785H115.013C115.018 57.7707 115.023 57.7634 115.029 57.7566C115.034 57.7488 115.039 57.7414 115.045 57.7347C115.052 57.7237 115.061 57.7127 115.07 57.7008C115.355 57.3164 115.721 56.998 116.14 56.7674C116.452 56.6244 116.778 56.5157 117.113 56.4434L117.331 56.3935H117.339L117.361 56.3885C117.37 56.3876 117.38 56.3856 117.389 56.3825L117.561 56.3486L117.577 56.3646C117.63 56.4154 117.811 56.5899 118.032 56.8083L118.042 56.8183L118.228 57.0038L118.238 57.0147C118.512 57.281 118.796 57.5721 118.98 57.7785Z" fill="#FFC4C0"/>
<path d="M121.844 57.5183C121.844 57.5206 121.844 57.523 121.844 57.5253C121.777 57.6271 121.689 57.7135 121.586 57.7786H118.674L118.01 57.0865L117.991 57.0666L117.835 56.9031L117.795 56.8602L117.43 56.4803L117.373 56.4214L117.35 56.3975L117.336 56.3826L117.382 56.3686L118.061 56.229L118.38 56.1632L119.161 56.0026L119.199 55.9947H119.214H119.224C119.276 55.9856 119.329 55.9796 119.382 55.9767C119.552 55.9683 119.721 55.9831 119.887 56.0206L119.923 56.0306C119.941 56.0339 119.959 56.0383 119.976 56.0435H119.993C120.191 56.0974 120.382 56.1709 120.565 56.2629C120.719 56.3386 120.868 56.4249 121.01 56.5212C121.458 56.8203 121.791 57.1763 121.845 57.3967C121.859 57.436 121.858 57.4792 121.844 57.5183Z" fill="#1F50B8"/>
<path d="M120.66 56.3137C120.239 56.0305 119.728 55.9126 119.225 55.9826C119.219 55.9826 119.22 55.9936 119.225 55.9926C119.745 55.9617 120.454 56.21 120.654 56.3217L120.66 56.3137Z" fill="#263238"/>
<path d="M119.638 57.7786H119.561C119.507 57.7247 119.453 57.6699 119.401 57.615C119.226 57.4386 119.055 57.2611 118.884 57.0816C118.744 56.934 118.603 56.7824 118.466 56.6358L118.376 56.5361C118.313 56.4673 118.252 56.3975 118.191 56.3277C118.191 56.3277 118.191 56.3178 118.198 56.3217C118.26 56.3786 118.321 56.4374 118.382 56.4962L118.503 56.6149L118.614 56.7246C118.858 56.9639 119.095 57.2112 119.331 57.4565L119.386 57.5133C119.471 57.6021 119.555 57.6898 119.638 57.7786Z" fill="#263238"/>
<path d="M117.323 56.3457C117.45 56.3039 117.578 56.2706 117.709 56.246C117.839 56.217 117.969 56.1911 118.1 56.1652C118.36 56.1153 118.904 55.9797 119.386 55.9658C119.392 55.9658 119.365 55.9917 119.36 55.9917C119.131 55.9867 117.495 56.3666 117.363 56.3806C117.37 56.3891 117.375 56.3981 117.379 56.4075C117.379 56.4135 117.379 56.4225 117.368 56.4185C117.357 56.4145 117.338 56.3935 117.322 56.3816C117.319 56.3802 117.316 56.3777 117.313 56.3744C117.311 56.3711 117.31 56.3672 117.31 56.3633C117.31 56.3593 117.312 56.3555 117.314 56.3523C117.316 56.3492 117.32 56.3468 117.323 56.3457Z" fill="#263238"/>
<path d="M115.174 52.5086C114.441 53.7789 113.225 56.4822 113.743 57.4515C114.242 58.3848 117.528 57.0197 118.287 56.7185C118.598 56.5959 118.133 54.1878 117.788 54.2785C117.027 54.4779 115.89 55.0154 115.852 54.9915C115.815 54.9675 116.018 53.8388 116.174 52.719C116.399 51.0906 115.702 51.5952 115.174 52.5086Z" fill="#FFC4C0"/>
<path d="M117.31 54.5159C117.31 54.5159 118.161 54.0542 118.685 53.9505C119.23 53.8568 119.791 53.8965 120.318 54.0662C120.888 54.2477 122.14 55.0803 121.963 55.4821C121.803 55.8461 120.565 54.9307 120.565 54.9307C120.565 54.9307 121.98 55.6556 121.706 56.0585C121.432 56.4613 120.057 55.3166 120.057 55.3166C120.057 55.3166 121.494 56.0954 121.147 56.4653C120.883 56.7455 119.58 55.7793 119.58 55.7793C119.58 55.7793 120.81 56.4564 120.553 56.7565C120.267 57.0875 119.008 56.2709 119.008 56.2709C118.223 56.923 117.583 56.912 117.128 56.8512C117.019 56.8363 117.31 54.5159 117.31 54.5159Z" fill="#FFC4C0"/>
<path d="M120.092 54.6485C120.262 54.7273 120.434 54.806 120.592 54.9008C120.749 54.9955 120.912 55.0942 121.064 55.1999C121.266 55.3378 121.451 55.4984 121.616 55.6786C121.289 55.4004 120.937 55.1533 120.564 54.9407C120.403 54.8469 120.246 54.7412 120.084 54.6515L120.092 54.6485Z" fill="#263238"/>
<path d="M119.742 55.2249C119.953 55.3355 120.168 55.4372 120.375 55.5569C120.581 55.6766 120.766 55.8082 120.963 55.9408C120.979 55.9508 120.963 55.9558 120.952 55.9408C120.752 55.8162 120.553 55.7164 120.353 55.5928C120.153 55.4692 119.953 55.3395 119.742 55.2249C119.739 55.2229 119.736 55.2278 119.742 55.2249Z" fill="#263238"/>
<path d="M119.352 55.6705C119.681 55.8315 119.993 56.0264 120.281 56.2519C120.296 56.2628 120.281 56.2678 120.266 56.2579C119.961 56.0584 119.723 55.8999 119.346 55.6815C119.341 55.6705 119.345 55.6626 119.352 55.6705Z" fill="#263238"/>
<path d="M118.341 56.9798H118.335L118.242 57.0097L118.008 57.0815C117.808 57.1413 117.532 57.2221 117.217 57.3069C116.499 57.5094 115.768 57.659 115.029 57.7546C114.929 57.7646 114.829 57.7725 114.738 57.7765C114.627 57.7815 114.521 57.7815 114.424 57.7765C114.321 57.7722 114.219 57.7575 114.118 57.7327C114.021 57.7079 113.93 57.6611 113.853 57.596C113.23 57.0686 113.848 55.4572 113.959 55.0573C113.989 54.9576 114.095 54.6794 114.244 54.3324V54.3264C114.28 54.2436 114.318 54.1559 114.359 54.0661L114.395 53.9834L114.407 53.9574C114.707 53.3003 115.092 52.5245 115.392 52.1087C115.504 51.9387 115.646 51.79 115.81 51.67C116.109 51.4765 116.288 51.7198 116.229 52.4986C116.213 52.708 116.191 52.9254 116.165 53.1388C116.165 53.1497 116.165 53.1617 116.165 53.1727C116.134 53.4299 116.099 53.6822 116.065 53.9106C116.065 53.9106 116.065 53.9205 116.065 53.9245C116 54.3723 115.94 54.7272 115.933 54.8449C115.932 54.8479 115.932 54.8509 115.933 54.8539C115.933 54.8768 115.933 54.8878 115.933 54.8868L115.946 54.8818L115.966 54.8728C116.173 54.7821 117.272 54.2686 117.338 54.2376L117.356 54.2855V54.2935L117.391 54.3932L117.413 54.454L117.664 55.1411L117.702 55.2468L117.721 55.2986L118.039 56.1721L118.057 56.221V56.2299V56.2439L118.235 56.7295L118.259 56.7953L118.322 56.9658L118.341 56.9798Z" fill="#1F50B8"/>
<path d="M115.933 54.8519C115.786 54.9753 115.653 55.1125 115.533 55.2618C115.415 55.4039 115.305 55.5524 115.203 55.7065C115.203 55.7065 115.21 55.7125 115.212 55.7065C115.327 55.5609 115.46 55.4223 115.585 55.2807C115.71 55.1391 115.851 55.0055 115.965 54.8609C115.968 54.8549 115.944 54.8439 115.933 54.8519Z" fill="#263238"/>
<path d="M116.168 53.1398C116.155 53.2774 116.138 53.415 116.124 53.5516L116.074 53.9634C116.042 54.2366 116.002 54.5109 115.974 54.7831V54.8339V54.8728V54.8668C115.971 54.8596 115.965 54.854 115.957 54.8509L115.98 54.8419L116.027 54.823L116.216 54.7402L116.583 54.5637L116.963 54.3972L117.345 54.2346L117.364 54.2945L117.339 54.2366H117.344C117.222 54.3024 117.1 54.3663 116.977 54.4291L116.605 54.6146C116.482 54.6764 116.357 54.7352 116.232 54.794L116.041 54.8788L115.993 54.8997L115.967 54.9087H115.953H115.943C115.938 54.9092 115.933 54.9092 115.927 54.9087H115.919C115.911 54.9045 115.905 54.8979 115.9 54.8898V54.8828V54.8758C115.901 54.8738 115.901 54.8718 115.9 54.8698V54.8459V54.819V54.7661C115.932 54.4909 115.974 54.2177 116.02 53.9455L116.091 53.5376C116.114 53.411 116.139 53.2774 116.168 53.1398Z" fill="#263238"/>
<path d="M117.289 56.0884C117.176 55.7733 117.065 55.4572 116.94 55.1461C116.869 54.9696 116.799 54.7921 116.727 54.6156C116.727 54.6086 116.713 54.6156 116.715 54.6156C116.814 54.9367 116.914 55.2578 117.033 55.5748C117.152 55.8919 117.26 56.205 117.38 56.5182C117.446 56.6956 117.519 56.8715 117.599 57.0456C117.599 57.0456 117.606 57.0456 117.605 57.0456C117.515 56.7226 117.403 56.4065 117.289 56.0884Z" fill="#263238"/>
<path d="M116.233 53.4769C116.212 53.5556 116.187 53.6332 116.158 53.7092C116.129 53.7858 116.096 53.8608 116.058 53.9336C116.101 53.7758 116.159 53.6227 116.233 53.4769Z" fill="#263238"/>
<path d="M207.826 174.781H0.174316C2.44962 168.331 6.6515 162.859 12.5749 161.236C21.2397 158.864 30.4096 165.385 39.0554 162.933C43.9672 161.542 47.8326 157.486 51.8993 154.119C67.2289 141.413 88.2356 137.658 106.377 144.382C115.859 147.896 124.499 154.04 134.212 156.653C146.772 160.032 159.907 157.229 172.824 156.768C185.4 156.318 203.424 162.017 207.826 174.781Z" fill="#D5D9E1" fill-opacity="0.5"/>
<path d="M36.3051 124.189L23.0527 174.504L24.9421 175L38.1945 124.685L36.3051 124.189Z" fill="#C1D8ED"/>
<path d="M59.7909 124.285L57.8608 124.587L65.7605 174.903L67.6906 174.601L59.7909 124.285Z" fill="#C1D8ED"/>
<path d="M34.5319 76.1714C34.5319 76.1714 18.3936 75.1533 18.3936 89.2346C18.3936 103.316 20.7704 122.995 32.6633 125.201C44.5562 127.406 62.1239 126.741 66.2027 126.051C71.214 125.202 73.3984 113.593 66.7236 112.817C47.7822 110.611 56.9556 77.6984 34.5319 76.1714Z" fill="#C1D8ED"/>
<path d="M68.7913 165.276L68.1772 173.229" stroke="#E98862" stroke-width="15.608" stroke-miterlimit="10"/>
<path d="M80.2486 174.692C80.4242 174.692 80.598 174.656 80.7599 174.588C80.9219 174.521 81.0689 174.422 81.1925 174.297C81.3161 174.173 81.414 174.025 81.4805 173.863C81.547 173.7 81.5808 173.526 81.58 173.351C81.58 173.319 81.58 173.286 81.5758 173.254C81.5559 173 81.464 172.757 81.3106 172.554C81.1573 172.35 80.9491 172.195 80.7103 172.106L72.7517 169.444C72.5975 169.393 72.4342 169.376 72.2728 169.394C72.1114 169.412 71.9558 169.464 71.8166 169.548C70.7226 170.306 69.4137 170.694 68.0826 170.653C67.0459 170.58 66.0508 170.217 65.2108 169.605C65.1369 169.545 65.0474 169.507 64.9526 169.495C64.8579 169.484 64.7618 169.5 64.6756 169.54C64.5894 169.581 64.5165 169.646 64.4656 169.726C64.4146 169.807 64.3876 169.9 64.3877 169.996V173.882C64.3877 174.113 64.4796 174.334 64.6431 174.498C64.8066 174.661 65.0284 174.753 65.2596 174.753H65.2632L80.2486 174.692Z" fill="#C1D8ED"/>
<path d="M95.915 165.276L97.2546 173.229" stroke="#E98862" stroke-width="15.608" stroke-miterlimit="10"/>
<path d="M102.77 166.452L87.7575 108.772C87.422 107.483 86.6678 106.342 85.613 105.527C84.5583 104.712 83.2627 104.27 81.9293 104.27H49.0281V104.291H30.5962V109.932C30.5961 111.558 30.9169 113.169 31.54 114.671C32.1632 116.174 33.0766 117.539 34.2282 118.689C35.3797 119.839 36.7468 120.752 38.2513 121.374C39.7559 121.997 41.3684 122.317 42.997 122.317H51.9868V122.352H67.6807L63.3593 168.238L75.3538 169.364L79.5322 124.994L91.1105 169.478L102.77 166.452Z" fill="#262626"/>
<path d="M77.7026 76.7237C77.7026 76.7237 77.7515 72.8182 80.5468 73.0214C82.3102 73.1495 90.6895 72.7613 90.8142 73.5235C91.1229 75.4094 83.4583 75.8705 82.7628 77.6277L77.7026 76.7237Z" fill="#E98862"/>
<path d="M79.5571 73.1465C79.5571 73.1465 83.4477 71.8784 84.404 72.106C85.2506 72.307 83.4858 73.6831 83.4858 73.6831L79.5571 73.1465Z" fill="#E98862"/>
<path d="M69.6662 93.8607L83.5488 77.7214L77.5663 74.3618L66.4496 86.8518L57.7561 71.3118C56.9336 68.8558 55.0601 67.2105 51.2376 67.0459C51.0325 67.0394 50.7036 67.0297 50.2803 67.0232C50.1957 68.8116 39.1025 68.8051 38.8681 66.9809C35.7358 66.9841 33.1636 67.9466 31.6788 69.4294C26.5506 74.5508 32.8445 83.2782 32.8445 90.1067C32.8445 96.9352 29.7513 99.9982 29.9792 103.504C30.3373 109.012 57.144 107.711 58.5082 104.58C59.4232 102.482 58.5366 100.905 57.8388 97.154H69.6659L69.6662 93.8607ZM57.1866 88.8047C57.2 87.6559 57.2889 86.4538 57.411 85.2305L60.1135 90.0625H57.1876C57.1834 89.6557 57.1818 89.2401 57.1876 88.8047H57.1866Z" fill="#367CFF"/>
<path d="M50.2804 67.0218C50.1958 68.8102 49.219 71.4408 46.217 71.6359C42.2088 71.9026 39.1026 68.8037 38.8682 66.9796H38.8812C42.8209 66.9796 47.9784 66.9861 50.2804 67.0218Z" fill="#E98862"/>
<path d="M108.35 174.692C108.525 174.692 108.699 174.656 108.861 174.588C109.023 174.52 109.17 174.421 109.294 174.297C109.417 174.172 109.515 174.024 109.582 173.862C109.648 173.7 109.682 173.526 109.681 173.35C109.681 173.318 109.681 173.285 109.677 173.253C109.657 172.999 109.565 172.756 109.411 172.553C109.258 172.35 109.05 172.194 108.811 172.105L100.853 169.444C100.699 169.393 100.535 169.376 100.374 169.394C100.212 169.412 100.057 169.464 99.9173 169.548C98.8234 170.306 97.5146 170.694 96.1837 170.653C95.1469 170.58 94.1516 170.217 93.3116 169.605C93.2377 169.545 93.1482 169.507 93.0535 169.495C92.9587 169.484 92.8626 169.499 92.7764 169.54C92.6902 169.581 92.6174 169.646 92.5664 169.726C92.5155 169.807 92.4886 169.9 92.4888 169.996V173.882C92.4888 174.113 92.5806 174.334 92.7442 174.498C92.9077 174.661 93.1295 174.753 93.3607 174.753H93.3643L108.35 174.692Z" fill="#C1D8ED"/>
<path d="M14.9996 100.304H11.9419V174.753H14.9996V100.304Z" fill="#DEE8F5"/>
<path d="M162.488 100.304H159.431V174.753H162.488V100.304Z" fill="#C1D8ED"/>
<path d="M162.488 99.3713H134.912V169.663H162.488V99.3713Z" fill="#C1D8ED"/>
<path d="M132.463 164.572H129.406V174.753H132.463V164.572Z" fill="#C1D8ED"/>
<path d="M166.716 97.2295H7.71484V101.428H166.716V97.2295Z" fill="#DEE8F5"/>
<path d="M136.44 100.304H133.382V174.753H136.44V100.304Z" fill="#DEE8F5"/>
<path d="M106.416 100.304H103.358V174.753H106.416V100.304Z" fill="#DEE8F5"/>
<path d="M134.911 101.434H104.887V169.663H134.911V101.434Z" fill="#DEE8F5"/>
<path d="M79.4744 94.3324C77.6087 94.2228 74.3003 93.9169 72.9201 93.0991C73.6198 92.8858 74.5582 92.5375 74.4699 92.2247C74.2384 91.4017 70.9945 91.9132 70.0242 91.9132L69.6709 91.9278V96.0916C69.6709 96.0916 76.0637 98.4854 79.8264 95.4204C79.9221 95.3422 79.9919 95.2371 80.0269 95.1186C80.0618 95.0002 80.0601 94.874 80.0221 94.7565C79.9841 94.639 79.9115 94.5357 79.8138 94.46C79.7161 94.3844 79.5978 94.3399 79.4744 94.3324Z" fill="#E98862"/>
<path d="M97.731 78.4364L93.7776 95.0107C93.6699 95.4635 93.7466 95.9404 93.9908 96.3367C94.235 96.733 94.6267 97.0162 95.08 97.1243C95.213 97.1558 95.3492 97.1718 95.486 97.1721H118.794C119.179 97.172 119.553 97.0457 119.859 96.8126C120.166 96.5794 120.387 96.2523 120.489 95.8815L125.046 79.3078C125.117 79.0473 125.127 78.7738 125.076 78.5086C125.024 78.2434 124.912 77.9937 124.748 77.7789C124.584 77.564 124.373 77.3899 124.13 77.27C123.888 77.1501 123.621 77.0877 123.35 77.0876H99.441C99.0457 77.0876 98.6618 77.2208 98.3516 77.4655C98.0413 77.7103 97.8227 78.0523 97.731 78.4364Z" fill="#9EBCEA"/>
<path d="M85.4801 97.1727H113.651C113.786 97.1727 113.921 97.146 114.046 97.0942C114.171 97.0424 114.285 96.9664 114.381 96.8706C114.477 96.7748 114.553 96.6611 114.605 96.536C114.657 96.4109 114.683 96.2767 114.683 96.1413C114.683 96.0058 114.657 95.8717 114.605 95.7466C114.553 95.6214 114.477 95.5077 114.381 95.412C114.285 95.3162 114.171 95.2402 114.046 95.1884C113.921 95.1365 113.786 95.1099 113.651 95.1099H85.4801C85.2062 95.1099 84.9435 95.2185 84.7498 95.412C84.5561 95.6054 84.4473 95.8677 84.4473 96.1413C84.4473 96.2767 84.474 96.4109 84.5259 96.536C84.5778 96.6611 84.6539 96.7748 84.7498 96.8706C84.8457 96.9664 84.9595 97.0424 85.0848 97.0942C85.2101 97.146 85.3444 97.1727 85.4801 97.1727Z" fill="#9EBCEA"/>
<path d="M110.366 89.7197C111.889 89.7197 113.123 88.4872 113.123 86.9668C113.123 85.4465 111.889 84.214 110.366 84.214C108.844 84.214 107.61 85.4465 107.61 86.9668C107.61 88.4872 108.844 89.7197 110.366 89.7197Z" fill="white"/>
<path d="M48.9084 67.6139L48.6545 67.6432H40.6284C41.2796 66.5636 41.9829 64.4468 41.6573 60.4895L46.8604 59.527C46.8604 59.527 46.2743 65.6662 48.9084 67.6139Z" fill="#E98862"/>
<path opacity="0.15" d="M47.8417 66.3317L43.52 63.0299L46.9144 62.9948C47.0126 64.1551 47.3271 65.2868 47.8417 66.3317Z" fill="black"/>
<path d="M38.7074 57.8358C39.0675 59.913 40.2025 61.8802 42.0373 62.5507C44.0373 63.3436 46.2012 63.6356 48.3402 63.4014C54.0347 62.9351 52.9084 50.0045 50.2046 47.492C47.5008 44.9794 39.5663 46.5711 38.6012 50.7722C38.1021 52.9453 38.3645 55.8585 38.7074 57.8358Z" fill="#E98862"/>
<path d="M52.0826 47.9387C51.9127 47.6695 51.6745 47.4497 51.3924 47.3017C48.8638 45.9282 44.1771 45.4532 41.9262 46.1256C39.3149 46.906 36.0407 49.0921 36.8794 54.3933C36.9149 54.6163 36.953 54.8316 36.9924 55.0436C36.1677 54.9028 35.3201 54.9915 34.5424 55.2998C33.7648 55.6081 33.0871 56.1242 32.5837 56.7915C32.0802 57.4589 31.7704 58.2517 31.6881 59.0833C31.6058 59.9148 31.7543 60.7528 32.1173 61.5057C32.4802 62.2585 33.0437 62.8971 33.7458 63.3514C34.448 63.8057 35.2619 64.0583 36.0982 64.0814C36.9346 64.1046 37.7612 63.8974 38.4875 63.4826C39.2137 63.0677 39.8117 62.4613 40.2158 61.7297C40.6033 62.0639 41.0218 62.3604 41.4658 62.6151C41.7774 62.8001 41.8526 62.6496 41.9607 62.3039C42.3384 61.0972 42.7096 56.3248 42.4133 52.8595L48.5495 52.6475L49.6188 49.6098L50.4953 52.6475H52.585C52.8654 51.0005 53.1545 49.1347 52.0826 47.9387Z" fill="#0F1011"/>
<path d="M46.8531 56.2356C47.1137 56.2356 47.3249 56.0247 47.3249 55.7644C47.3249 55.5042 47.1137 55.2933 46.8531 55.2933C46.5926 55.2933 46.3813 55.5042 46.3813 55.7644C46.3813 56.0247 46.5926 56.2356 46.8531 56.2356Z" fill="#0F1011"/>
<path d="M50.5753 55.9306C50.8359 55.9306 51.0471 55.7196 51.0471 55.4594C51.0471 55.1992 50.8359 54.9882 50.5753 54.9882C50.3147 54.9882 50.1035 55.1992 50.1035 55.4594C50.1035 55.7196 50.3147 55.9306 50.5753 55.9306Z" fill="#0F1011"/>
<path d="M51.3925 54.4556H51.3896L50.1396 54.4397C50.0823 54.4371 50.0282 54.4125 49.9887 54.371C49.9492 54.3295 49.9274 54.2743 49.9277 54.217C49.9281 54.1597 49.9507 54.1048 49.9908 54.0638C50.0308 54.0228 50.0852 53.9989 50.1426 53.9971H50.1455L51.3951 54.0127C51.454 54.0131 51.5102 54.0367 51.5516 54.0785C51.5929 54.1203 51.6159 54.1767 51.6156 54.2355C51.6152 54.2942 51.5915 54.3504 51.5497 54.3917C51.5079 54.433 51.4514 54.456 51.3925 54.4556Z" fill="#0F1011"/>
<path d="M45.8345 54.9108C45.7802 54.9106 45.7279 54.8907 45.6875 54.8546C45.647 54.8186 45.6211 54.769 45.6148 54.7152C45.6085 54.6614 45.6221 54.6072 45.6531 54.5628C45.6841 54.5183 45.7303 54.4868 45.783 54.4741L47.0151 54.1782C47.0435 54.1709 47.0731 54.1694 47.1022 54.1737C47.1312 54.178 47.1591 54.188 47.1843 54.2031C47.2094 54.2183 47.2313 54.2382 47.2486 54.2619C47.266 54.2855 47.2785 54.3124 47.2853 54.3409C47.2922 54.3694 47.2934 54.399 47.2887 54.4279C47.284 54.4569 47.2737 54.4846 47.2582 54.5095C47.2427 54.5344 47.2224 54.556 47.1985 54.5731C47.1746 54.5901 47.1476 54.6022 47.1189 54.6087L45.8869 54.9046C45.8697 54.9087 45.8521 54.9108 45.8345 54.9108Z" fill="#0F1011"/>
<path d="M44.3989 56.9172C44.422 57.1795 44.3929 57.4438 44.3133 57.6949C44.2337 57.946 44.1052 58.1788 43.9351 58.3801C43.7651 58.5814 43.5569 58.7471 43.3224 58.8677C43.088 58.9884 42.832 59.0615 42.5692 59.0829C42.3064 59.1044 42.0419 59.0737 41.791 58.9926C41.5401 58.9116 41.3077 58.7818 41.1072 58.6108C40.9067 58.4397 40.742 58.2307 40.6227 57.9959C40.5034 57.761 40.4317 57.5049 40.4119 57.2423C40.3859 56.9801 40.413 56.7152 40.4917 56.4637C40.5703 56.2121 40.6988 55.9789 40.8695 55.7779C41.0402 55.5769 41.2497 55.4123 41.4855 55.2939C41.7212 55.1754 41.9784 55.1056 42.2418 55.0884C43.6672 55.0432 44.3084 55.8178 44.3989 56.9172Z" fill="#E98862"/>
<g opacity="0.15">
<path d="M48.9471 58.378C48.9081 58.378 48.8704 58.364 48.8408 58.3386C48.8112 58.3132 48.7918 58.2781 48.786 58.2395C48.7802 58.201 48.7884 58.1617 48.8092 58.1287C48.83 58.0958 48.8619 58.0714 48.8992 58.0599L49.8591 57.7657L49.1877 56.2728C49.1782 56.2533 49.1727 56.232 49.1715 56.2102C49.1704 56.1885 49.1736 56.1667 49.1811 56.1462C49.1885 56.1258 49.2 56.107 49.2148 56.091C49.2297 56.0751 49.2476 56.0623 49.2675 56.0534C49.2874 56.0444 49.3089 56.0396 49.3307 56.0392C49.3525 56.0387 49.3741 56.0426 49.3944 56.0507C49.4147 56.0588 49.4331 56.0708 49.4486 56.0861C49.4641 56.1014 49.4764 56.1197 49.4846 56.1398L50.2316 57.8005C50.241 57.8215 50.2459 57.8443 50.2459 57.8673C50.2459 57.8904 50.2409 57.9132 50.2314 57.9342C50.2219 57.9552 50.208 57.9739 50.1907 57.9892C50.1734 58.0044 50.153 58.0158 50.131 58.0226L48.9949 58.3708C48.9794 58.3756 48.9633 58.378 48.9471 58.378Z" fill="black"/>
</g>
<path d="M47.0713 59.4749C47.0713 59.4749 48.8126 59.6587 50.0342 59.2324C50.0342 59.2324 50.0248 60.3779 48.6465 60.4908C47.2683 60.6036 47.0713 59.4749 47.0713 59.4749Z" fill="#F8FCFF"/>
</g>
<defs>
<clipPath id="clip0_783_17051">
<rect width="208" height="175" fill="white"/>
</clipPath>
</defs>
</svg>
