<?xml version="1.0" encoding="UTF-8"?>
<svg id="Layer_2" data-name="Layer 2" xmlns="http://www.w3.org/2000/svg" xmlns:xlink="http://www.w3.org/1999/xlink" viewBox="0 0 46.09 37.47">
  <defs>
    <style>
      .cls-1 {
        fill: #fff;
      }

      .cls-2 {
        fill: #090c0f;
      }

      .cls-3 {
        fill: #ffceac;
      }

      .cls-4 {
        fill: rgba(28, 49, 61, .45);
      }

      .cls-5 {
        fill: #ffb786;
      }

      .cls-6 {
        fill: rgba(255, 255, 255, .4);
      }

      .cls-7 {
        fill: #0d5efb;
      }

      .cls-8 {
        fill: #ffaf79;
      }

      .cls-9 {
        fill: #4f4f4f;
      }

      .cls-10 {
        fill: none;
        mask: url(#mask);
      }

      .cls-11 {
        fill: rgba(13, 94, 251, .2);
      }

      .cls-12 {
        fill: #070809;
      }

      .cls-13 {
        fill: #3f80ff;
      }

      .cls-14 {
        fill: #1c313d;
      }
    </style>
    <mask id="mask" x="0" y="24.46" width="19.73" height="11.71" maskUnits="userSpaceOnUse">
      <g id="path-44-inside-1_572_13252" data-name="path-44-inside-1 572 13252">
        <path class="cls-1" d="m16.28,24.55H.7c-.4,0-.69.38-.59.76l2.75,10.31c.07.27.31.45.59.45h15.58c.4,0,.69-.38.59-.76l-2.75-10.31c-.07-.27-.31-.45-.59-.45Z"/>
      </g>
    </mask>
  </defs>
  <g id="Layer_1-2" data-name="Layer 1">
    <g>
      <path class="cls-11" d="m9.37,18.36c0,10.14,8.22,18.36,18.36,18.36s18.36-8.22,18.36-18.36S37.87,0,27.73,0,9.37,8.22,9.37,18.36Z"/>
      <path class="cls-12" d="m26.2.74c-7.44,1.1-5.33,9.29-4.23,12.12.65,1.67-1.52,9.73,2.89,14.04,4.41,4.31,14.97.04,15.72-2.72.75-2.76-4.44-9.62-5.85-12.56-.87-1.82.11-12.16-8.53-10.89Z"/>
      <path class="cls-3" d="m20.89,26.72s-.14,3.31-.32,3.77c-.18.46-3.53,1.66-3.56,1.76-.04.11,1.41,2.82,1.52,2.79.11-.04,4.77-1.22,5.29-1.69.85-.78.99-5.78.88-5.82-.11-.04-1.8-.95-1.94-.95s-1.87.14-1.87.14Z"/>
      <path class="cls-3" d="m41.73,24.99s.53,2.19.53,4.3c0,1.79-2.96,1.87-3.35,1.9-.39.04-2.5-.88-2.57-1.73-.07-.85-.14-3.1.21-3.46s1.87-1.06,2.43-1.23c.56-.18,2.75.21,2.75.21Z"/>
      <path class="cls-7" d="m25.16,17.66c-2.72.78-3.36,2.56-3.84,3.74-.48,1.18-1.13,5.11-1.02,5.82,0,0,1.94.63,3.35.49,0,0-.11,2.02,2.06,4.98,1.29,1.77.43,3.83.75,3.9.32.07,14.26,0,14.26,0,0,0-2.68-8.57-2.75-9.84,0,0,3.21-.46,4.69-1.52,0,0-1.34-6.56-3.46-8.04-2.12-1.48-3.76-1.4-5.36-1.48-1.3.97-3.85,1.23-3.99,1.27-.14.04-4.69.67-4.69.67Z"/>
      <path class="cls-3" d="m42.26,29.3s-11.35,2.64-14.92,3.35c-1.37.27-2.05-.25-2.93,0-.88.25-1.62,1.06-2.08,1.45-.46.39-.74,1.06-.67,1.3.07.25,5.64.11,5.78.07.14-.04,12.02-.74,13.68-2.01,1.66-1.27,1.13-4.16,1.13-4.16Z"/>
      <path class="cls-3" d="m26.85,14.95s.6.74.14,1.59c-.46.85-1.83,1.13-1.83,1.13,0,0,1.69,3.35,4.97,2.68,3.69-.75,3.71-4.62,3.71-4.62,0,0-.78.07-1.81-.08-.8-.12-1.69-2.6-1.76-2.53-.07.07-3.42,1.83-3.42,1.83Z"/>
      <path class="cls-8" d="m31.11,14.72c-.45-.74-.8-1.65-.84-1.61-.07.07-3.42,1.83-3.42,1.83,0,0,.27.34.31.81.78.14,1.61,0,2.37-.25.56-.18,1.11-.44,1.58-.79Z"/>
      <path class="cls-3" d="m30.99,9.27s1.27-.84,1.71.43c.44,1.28-.56,1.98-1.43,2.02,0,0,0,3.12-3.33,3.73-2.86.52-4.89-3.07-5.17-6.53,0,0,1.89-1.38,2.22-3.07,0,0,1.31,1.16,2.92,1.4,1.61.24,3,1.3,3.08,2Z"/>
      <path class="cls-8" d="m32.03,10.6c-.06-.11-.18-.16-.3-.17-.06,0-.12,0-.17.03,0-.1,0-.19.04-.28.08-.19.25-.3.42-.4.08-.05.05-.19-.05-.19-.12,0-.21.04-.31.11-.09.07-.17.15-.24.25-.13.2-.16.44-.11.67,0,.02.01.03.02.05-.02.04-.03.07-.03.12,0,.12.06.24.17.3.07.04.16.04.24.02h.03c.23-.02.42-.29.29-.5Z"/>
      <path class="cls-5" d="m41.12,29.3c-.11.07-.27.09-.4.13-.15.04-.3.08-.45.12-.28.08-.55.15-.83.23-.28.08-.55.16-.83.24-.15.04-.3.09-.44.14-.11.04-.23.07-.31.15-.01.01,0,.04.01.04.12.03.23,0,.35-.02.15-.03.3-.07.45-.1.3-.07.6-.15.9-.22s.6-.15.9-.23c.15-.04.3-.08.45-.11.11-.03.25-.05.34-.12.14-.11.02-.35-.14-.25Z"/>
      <path class="cls-8" d="m24.17,32.8c-.16-.08-.32,0-.47.07-.16.08-.31.17-.46.27-.15.1-.29.22-.42.34-.12.11-.28.26-.28.43,0,.04.03.06.07.05.15-.03.29-.18.4-.28.12-.11.26-.21.39-.3.14-.09.28-.18.42-.25.14-.07.3-.12.36-.28,0-.02,0-.04-.01-.05Z"/>
      <path class="cls-8" d="m24.73,33.48c-.16-.17-.41-.09-.6-.01-.22.09-.42.22-.61.36-.18.13-.36.28-.53.43-.09.08-.17.17-.26.26-.03.04-.07.07-.09.12-.03.05-.02.11-.04.17h.01s.1,0,.15-.04c.04-.02.07-.06.1-.09.08-.08.15-.16.23-.23.16-.15.32-.28.5-.41.17-.12.34-.24.53-.32.19-.09.4-.09.59-.18.02,0,.02-.04,0-.05Z"/>
      <path class="cls-8" d="m25.47,33.96c-.08-.02-.16-.06-.24-.06-.08,0-.18.01-.26.04-.17.05-.34.12-.5.21-.15.08-.31.17-.45.28-.06.05-.12.11-.18.17-.06.06-.13.12-.14.22,0,.04.04.08.08.08.08,0,.14-.06.21-.11.07-.04.13-.09.2-.13.14-.09.28-.18.44-.25.14-.07.29-.12.44-.18.08-.03.16-.05.23-.09.06-.04.12-.1.18-.14.02-.01.02-.04,0-.04Z"/>
      <path class="cls-4" d="m24.25,3.86s-.04-.02-.04,0c-.07.13-.13.26-.15.41-.03.15-.06.29-.09.44,0,.02,0,.03-.01.05-.02-.02-.04-.04-.07-.06-.02-.01-.04.01-.03.03.04.07.05.15.05.24-.01.06-.03.12-.04.18-.02.09-.05.19-.06.28-.05.13-.11.25-.15.35-.15.36-.31.7-.51,1.04-.19.32-.4.63-.64.91-.23.26-.52.48-.73.75v.02c.4-.09.72-.41.98-.69.29-.31.53-.66.74-1.03.21-.37.4-.77.54-1.17.06-.17.11-.37.08-.54.03-.11.06-.21.08-.32.03-.15.06-.3.09-.46.02-.15,0-.28-.03-.43Z"/>
      <path class="cls-4" d="m22.9,3.94s-.05,0-.05.02c.04.2-.04.37-.09.55-.04.15-.09.31-.14.46-.11.33-.24.66-.39.97-.14.3-.3.59-.48.86-.08.12-.17.23-.27.33-.1.1-.23.15-.33.25h0c.24.15.55-.15.69-.31.26-.29.47-.63.65-.97.19-.35.35-.71.47-1.09.13-.38.17-.73-.08-1.07Z"/>
      <path class="cls-4" d="m33.65,7.45c-.29.03-.58-.01-.87-.03-.31-.02-.62-.08-.91-.17-.6-.19-1.11-.5-1.59-.89-.22-.18-.45-.34-.72-.44-.31-.11-.65-.09-.98-.09-.55-.01-1.08-.19-1.55-.49-.25-.17-.48-.37-.68-.6-.21-.25-.35-.54-.52-.81-.04-.06-.12-.02-.11.04.09.53.5,1.03.9,1.37.42.36.94.63,1.49.73.31.06.62.05.94.07.38.02.68.19.97.42.51.41,1,.8,1.62,1.02.33.12.69.2,1.04.21.36,0,.66-.11.98-.27.03-.02.02-.07-.02-.07Z"/>
      <path class="cls-4" d="m33.17,5.48c-.18,0-.37-.04-.55-.06-.17-.01-.34-.03-.51-.05-.32-.04-.63-.12-.93-.24-.6-.25-1.07-.77-1.71-.92-.33-.08-.64.01-.97.03-.38.02-.7-.14-.99-.38-.26-.21-.48-.46-.7-.71-.23-.27-.43-.61-.71-.84-.01-.01-.03,0-.03.01.08.35.34.68.56.96.21.27.43.54.69.76.25.22.53.41.86.47.37.07.73-.07,1.09-.02.35.04.65.27.94.46.29.2.58.37.9.5.32.13.67.21,1.01.24.18.02.37.01.55-.01.18-.02.32-.09.49-.16.03-.01.03-.05,0-.06Z"/>
      <path class="cls-4" d="m23.28,13.02c-.17-.15-.34-.27-.48-.45-.16-.21-.28-.45-.39-.69-.13-.26-.24-.52-.34-.79-.05-.13-.09-.26-.14-.39-.04-.11-.07-.27-.16-.35-.02-.02-.05,0-.06.02-.04.12.01.29.04.41.04.16.09.31.14.46.1.29.22.57.36.85.12.25.25.5.42.71.14.17.36.34.59.28.02,0,.03-.04.01-.05Z"/>
      <path class="cls-4" d="m22.99,11.7c-.05-.11-.1-.22-.16-.32-.06-.11-.12-.21-.18-.32-.06-.09-.12-.19-.21-.25h-.02c0,.12.05.23.1.33.05.11.1.21.16.32.05.11.11.21.18.31.07.1.15.19.22.3.01.02.05,0,.04-.02-.04-.11-.08-.23-.12-.34Z"/>
      <path class="cls-4" d="m23.34,14.8c-.02-.15-.04-.3-.06-.45-.02-.14-.02-.31-.13-.41-.01-.01-.03-.01-.05,0-.07.09-.07.19-.07.3,0,.16.01.33.02.49.01.34.02.69,0,1.03-.02.35-.07.69-.12,1.03-.04.3-.13.66-.03.95,0,.03.05.05.08.02.2-.24.25-.61.3-.91.05-.33.1-.68.11-1.02.01-.35,0-.69-.05-1.03Z"/>
      <path class="cls-4" d="m24.31,15.56c0-.14.02-.27-.01-.4-.02-.06-.11-.07-.14-.02-.08.14-.08.31-.1.46-.02.16-.03.32-.04.48,0,.14-.02.31.01.45.03.11.14.2.25.15.03-.01.03-.05.02-.08h0s0-.03,0-.03v-.03c0-.06,0-.12,0-.17,0-.14,0-.27,0-.41,0-.13,0-.26,0-.4Z"/>
      <path class="cls-4" d="m25.33,15.1s-.08-.04-.11,0c-.05.06-.06.15-.07.22-.01.08-.02.17-.04.25-.02.17-.05.34-.07.51-.03.17-.05.34-.07.52,0,.09,0,.17,0,.25,0,.08,0,.13.05.2,0,.01.03.02.05.01.06-.04.09-.09.12-.16.03-.09.07-.17.09-.26.04-.17.05-.34.07-.52.01-.17.03-.34.03-.51,0-.15.03-.38-.05-.51Z"/>
      <path class="cls-4" d="m35.55,15.1h0,0s-.02-.03-.02-.03c-.17-.26-.37-.49-.55-.74-.2-.27-.37-.55-.54-.83-.16-.28-.31-.56-.45-.85-.13-.29-.22-.62-.39-.9-.01-.02-.04-.04-.06-.03h-.02s-.01,0-.01,0c-.02,0-.03.04-.03.06.01.32.15.65.26.94.12.31.25.62.4.92.15.29.33.57.52.85.2.28.41.57.67.78.15.13.27-.06.22-.17Z"/>
      <path class="cls-4" d="m33.24,14.03c-.06-.08-.11-.17-.16-.25-.05-.08-.11-.17-.16-.25-.03-.04-.05-.08-.08-.12-.03-.03-.07-.05-.09-.08-.01-.02-.04,0-.03.01,0,.04-.02.08,0,.13,0,.05.02.09.04.14.03.1.07.2.12.3.05.09.1.17.16.26.05.08.13.2.23.21.06.03.13-.02.11-.09h0c0-.09-.07-.18-.12-.25Z"/>
      <path class="cls-4" d="m32.65,15.06c-.25-.33-.5-.66-.71-1.02-.12-.21-.22-.43-.31-.65-.08-.19-.12-.43-.26-.58h-.02c-.05.18.02.38.07.55.06.2.13.39.21.58.16.38.37.73.62,1.06.08.1.26.4.42.36.16-.04.03-.23-.02-.3Z"/>
      <path class="cls-4" d="m33.86,10.74c-.01-.11-.04-.21-.06-.32-.03-.11-.06-.21-.11-.31-.02-.05-.05-.1-.08-.15-.03-.05-.05-.1-.1-.12-.04-.02-.08,0-.09.04-.01.05,0,.1.02.16.01.05.03.09.04.14.03.1.06.2.08.3.03.1.04.2.06.31,0,.05.02.1.04.14.02.04.04.09.08.11h.04c.07-.08.08-.2.07-.3Z"/>
      <path class="cls-4" d="m33.27,11.05s0-.09-.02-.13c-.01-.04-.02-.09-.06-.12l.02.02s-.03-.03-.04-.05c0-.02-.03,0-.03,0v.02s0,.02-.01.04c0,.02,0,.05,0,.07,0,.04,0,.09,0,.13,0,.04,0,.09,0,.13,0,.03,0,.05.01.08,0,.02,0,.04.02.05.01.01.03.01.05,0l.02-.02s.02-.03,0-.02c.02-.03.02-.05.03-.08,0-.04,0-.09,0-.13Z"/>
      <path class="cls-13" d="m33.89,16.01c-.06-.16-.3-.18-.35,0-.04.16-.01.33-.04.49-.03.18-.07.36-.12.53-.08.34-.21.66-.38.96-.33.59-.8,1.09-1.38,1.43-.72.42-1.59.55-2.41.55-.82,0-1.66-.16-2.37-.58-.34-.21-.66-.47-.91-.78-.13-.15-.24-.33-.34-.49-.1-.16-.16-.33-.32-.43-.03-.02-.07,0-.09.02-.14.31.12.75.3,1.01.23.33.51.62.83.86.72.54,1.61.8,2.5.86.92.06,1.93-.04,2.78-.43.7-.32,1.3-.87,1.72-1.52.23-.35.41-.75.52-1.16.06-.21.12-.44.12-.66,0-.21.03-.46-.03-.65Z"/>
      <path class="cls-13" d="m24.44,30.24c-.07-.2-.14-.41-.21-.62-.07-.21-.16-.42-.23-.64-.13-.46-.18-.93-.21-1.4-.03-.5,0-1,0-1.5,0-.24.01-.49.03-.73.01-.2.08-.5-.04-.67-.02-.02-.04-.03-.07,0-.16.13-.16.42-.18.61-.03.27-.05.53-.06.8-.03.5-.06,1.02-.05,1.52-.04-.02-.09-.03-.14-.03-.15-.03-.3-.04-.44-.05-.32-.04-.63-.07-.95-.12-.29-.04-.58-.08-.86-.15-.23-.05-.5-.17-.73-.07h0c.07.26.38.34.61.41.29.08.58.14.88.18.31.05.62.08.93.12.17.02.34.05.51.07.07,0,.15.02.22-.02.03.4.09.81.21,1.2.06.21.13.43.25.61.06.09.12.18.19.26.09.11.17.16.28.25.03.02.08,0,.07-.04Z"/>
      <path class="cls-13" d="m42.34,25.06c-.11.07-.21.19-.33.26-.15.09-.32.16-.48.23-.39.18-.78.35-1.17.5-.38.14-.77.24-1.17.34-.19.05-.39.09-.59.13-.16.03-.37.03-.49.14-.04-.18-.08-.37-.12-.55-.11-.48-.24-.97-.38-1.44-.15-.5-.28-1.01-.47-1.5-.04-.12-.2-.07-.19.05.07.49.19.98.28,1.47.1.5.19,1.01.3,1.51.1.49.2.98.3,1.47.05.24.07.5.16.73.09.22.21.44.32.65,0,.01.04.01.04,0,.04-.22.06-.45.07-.67.01-.25-.07-.52-.12-.76-.06-.28-.12-.56-.18-.84.13.09.32.07.48.08.22,0,.45,0,.67-.03.45-.05.88-.17,1.31-.32.42-.15.82-.33,1.23-.51.3-.13.84-.33.9-.7.04-.24-.27-.36-.38-.21Z"/>
      <path class="cls-14" d="m25.48,11.03c0-.09-.03-.18-.05-.26,0,.02.01.04.02.06-.03-.11-.06-.2-.12-.3v-.02s-.05-.07-.07-.1c-.09-.11-.21-.18-.35-.17-.17.02-.27.17-.29.32-.02.18,0,.37.08.53.04.1.1.19.19.25.11.08.25.11.38.06.09-.03.15-.1.19-.18.03-.07.04-.14.03-.21Z"/>
      <path class="cls-14" d="m28.73,10.42c0-.09-.03-.18-.05-.26,0,.02.01.04.02.06-.03-.11-.06-.2-.12-.3v-.02s-.05-.07-.07-.1c-.09-.11-.21-.18-.35-.17-.17.02-.27.17-.29.32-.02.18,0,.37.07.53.04.1.1.19.19.25.11.08.25.11.38.06.09-.03.15-.1.19-.19.03-.07.04-.14.03-.21Z"/>
      <path class="cls-8" d="m27.2,11.86s-.04-.02-.07-.02c-.05-.01-.09.02-.12.05-.02.02-.04.05-.06.08l-.02.02h0s0,.02,0,.02h-.02s-.04.04-.04.04h0s0,0,0,0h-.02s-.03.02-.05.03h0s-.02,0-.02,0c-.02,0-.03,0-.05,0h-.02s-.02,0-.02,0h0s-.03,0-.03,0c-.02,0-.03,0-.05,0h0s0,0,0,0h-.03s-.03-.02-.05-.03c-.03-.01-.06-.03-.1-.04-.07-.02-.15.05-.11.12.02.05.05.09.1.11.04.03.08.05.13.06.09.03.19.04.29.02.18-.04.38-.17.42-.36.01-.05-.02-.09-.05-.12Z"/>
      <path class="cls-6" d="m27.7,13s0-.04,0-.05c0-.04-.02-.06-.04-.09h0s-.03-.04-.05-.05c-.02-.01-.09-.02-.02-.01-.02,0-.02,0-.05-.01h-.01s-.04,0-.05,0h-.03s-.07.03-.11.06c-.01,0-.02.02-.04.03-.01.01-.03.02-.04.03h-.01s-.06.04-.09.05c-.02,0-.03.01-.05.02h-.02c-.08.02-.15.04-.23.05-.02,0-.04,0-.06,0h-.02s0,0,0,0h0s-.09,0-.13.01c-.06.01-.1.08-.07.14.07.15.28.23.44.24.19,0,.37-.06.53-.17.03-.02.05-.04.08-.06.04-.03.06-.07.08-.11,0-.02.02-.09.01-.04,0,.03,0,.02,0-.04Z"/>
      <path class="cls-1" d="m27.66,12.86s.01.01,0,0h0Z"/>
      <path class="cls-1" d="m27.44,12.8h0s-.04,0,0,0Z"/>
      <path class="cls-1" d="m27.65,12.85h0s0,.01,0,.01h0Z"/>
      <path class="cls-14" d="m25.4,9.29c-.05-.05-.12-.06-.19-.08-.06-.02-.12-.03-.18-.04-.11-.01-.22,0-.32.03-.11.03-.21.09-.3.16-.09.07-.18.17-.18.29,0,.09.07.14.16.11.08-.03.14-.1.22-.15h0s0,0,0,0h.03s.04-.03.06-.04c.02,0,.04-.01.06-.02h.01s.02-.01.02-.01c.04,0,.08-.01.12-.02h.03s.04,0,.06,0h.04s.05.02.07.03c.07.02.14.04.21.02.14-.04.17-.19.07-.29Z"/>
      <path class="cls-14" d="m28.59,8.82c-.03-.08-.12-.12-.19-.15-.06-.03-.13-.04-.2-.06-.12-.02-.25-.02-.37,0-.12.03-.23.08-.33.16-.05.04-.1.08-.13.13-.04.05-.07.14-.06.2.02.07.07.11.14.1.03,0,.06-.02.09-.04h0s0,0,0,0l.04-.02s.07-.06.12-.09h.02s0-.02,0-.02c.02-.01.04-.02.06-.03.02,0,.04-.02.06-.02h.02s.02-.01.02-.01c.02,0,.04,0,.07-.01h.03s0,0,0,0c.05,0,.1,0,.15.01h0s0,0,0,0h.03s.04.03.07.04h.03s0,.01.01.02c.05.03.09.04.15.03.11,0,.16-.14.12-.23Z"/>
      <path class="cls-13" d="m36.89,29.35c-.09.05-.16.05-.25.07-.08.02-.15.06-.24.09-.18.06-.33.18-.5.26-.34.18-.71.31-1.08.4-.76.17-1.52.13-2.26-.09-.42-.13-.84-.28-1.28-.29-.41,0-.79.14-1.12.38-.31.22-.58.49-.89.71-.31.21-.65.36-1.01.45-.4.1-.81.12-1.22.08-.22-.02-.43-.05-.64-.11-.19-.05-.38-.16-.57-.13-.03,0-.05.03-.03.06.07.17.23.23.38.31.17.08.35.15.53.21.38.11.77.14,1.16.11.83-.08,1.51-.42,2.15-.95.3-.25.61-.52,1.01-.61.46-.1.93.09,1.37.23.8.25,1.61.32,2.44.16.43-.08.85-.23,1.24-.42.19-.09.41-.2.56-.35.07-.07.16-.17.21-.26.04-.09.06-.17.13-.25.02-.03-.02-.07-.05-.05Z"/>
      <path class="cls-9" d="m1.19,37.47h44.18c.28,0,.51-.28.51-.63v-.11c0-.35-.23-.63-.51-.63H1.19c-.28,0-.51.28-.51.63v.11c0,.35.23.63.51.63Z"/>
      <path class="cls-2" d="m27.79,35.43h-8.39c-.29,0-.48.38-.33.68.02.04.05.06.09.06h9.03c.08,0,.13-.1.09-.18l-.15-.33c-.07-.14-.2-.23-.33-.23Z"/>
      <path class="cls-1" d="m16.28,24.55H.7c-.4,0-.69.38-.59.76l2.75,10.31c.07.27.31.45.59.45h15.58c.4,0,.69-.38.59-.76l-2.75-10.31c-.07-.27-.31-.45-.59-.45Z"/>
      <g class="cls-10">
        <path d="m.11,25.32l.09-.02h0s-.09.02-.09.02Zm2.75,10.31l.09-.02h0l-.09.02Zm16.75-.31l.09-.02h0s-.09.02-.09.02Zm-2.75-10.31l-.09.02h0l.09-.02Zm-.59-.36H.7v-.19h15.58v.19Zm-15.58,0c-.34,0-.59.32-.5.65l-.18.05c-.12-.44.22-.88.68-.88v.19Zm-.5.65l2.75,10.31-.18.05L.02,25.34l.18-.05Zm2.75,10.31c.06.23.26.38.5.38v.19c-.32,0-.6-.21-.68-.52l.18-.05Zm.5.38h15.58v.19H3.45v-.19Zm15.58,0c.34,0,.58-.32.5-.65l.18-.05c.12.44-.22.88-.68.88v-.19Zm.5-.65l-2.75-10.31.18-.05,2.75,10.31-.18.05Zm-2.75-10.31c-.06-.23-.26-.38-.5-.38v-.19c.32,0,.6.21.68.52l-.18.05Z"/>
      </g>
      <path class="cls-7" d="m10.96,30.12c0,.81-.65,1.46-1.46,1.46s-1.46-.65-1.46-1.46.65-1.46,1.46-1.46,1.46.65,1.46,1.46Z"/>
      <path class="cls-1" d="m9.24,20.56h0s-.03,0,0,0Z"/>
      <path class="cls-1" d="m5.52,21.87h0s-.01,0,0,0Z"/>
      <path class="cls-1" d="m6.32,21.87h0s-.01,0,0,0Z"/>
      <path class="cls-1" d="m6.08,21.22h0s-.02,0,0,0Z"/>
      <path class="cls-1" d="m6.95,21.22h0s-.02,0,0,0Z"/>
      <path class="cls-1" d="m7.74,21.22h0s-.02,0,0,0Z"/>
      <path class="cls-1" d="m17.74,14.8h0s0-.02,0-.02v.02s0,0,0,0Z"/>
    </g>
  </g>
</svg>