<?xml version="1.0" encoding="UTF-8"?>
<svg id="Layer_2" data-name="Layer 2" xmlns="http://www.w3.org/2000/svg" viewBox="0 0 42 39.64">
  <defs>
    <style>
      .cls-1 {
        fill: #fde1ea;
      }

      .cls-2 {
        fill: #6c92d3;
      }

      .cls-3 {
        fill: #f4f4f4;
      }

      .cls-4 {
        fill: #fff;
      }

      .cls-5 {
        fill: #8584ca;
      }

      .cls-6 {
        fill: #5e56b0;
      }

      .cls-7 {
        fill: #fcf8fc;
      }

      .cls-8 {
        fill: #a6a2d8;
      }

      .cls-9 {
        fill: #90b3e3;
      }

      .cls-10 {
        fill: #6868ba;
      }

      .cls-11 {
        fill: #89ade0;
      }

      .cls-12 {
        fill: #dab3d5;
      }

      .cls-13 {
        fill: #ede9f6;
      }

      .cls-14 {
        fill: #6465b6;
      }

      .cls-15 {
        fill: #d3aad6;
      }

      .cls-16 {
        fill: #6966ba;
      }

      .cls-17 {
        fill: #d6aed6;
      }

      .cls-18 {
        fill: #0169ee;
      }

      .cls-19 {
        fill: #aca6da;
      }

      .cls-20 {
        fill: #bab0de;
      }

      .cls-21 {
        fill: #ead4e6;
      }

      .cls-22 {
        fill: #4750ab;
      }

      .cls-23 {
        fill: #3c419f;
      }

      .cls-24 {
        fill: #6386cd;
      }

      .cls-25 {
        fill: #8883c9;
      }

      .cls-26 {
        fill: #4e5db3;
      }

      .cls-27 {
        fill: #cccbe6;
      }

      .cls-28 {
        fill: #99c6ff;
      }

      .cls-29 {
        fill: #e4c3dc;
      }

      .cls-30 {
        fill: #cbc2e6;
      }

      .cls-31 {
        fill: #f9acc4;
      }

      .cls-32 {
        fill: #5450ac;
      }

      .cls-33 {
        fill: #e98eb3;
      }

      .cls-34 {
        fill: #7974c1;
      }

      .cls-35 {
        fill: #ead0e4;
      }

      .cls-36 {
        fill: #c9add2;
      }

      .cls-37 {
        fill: #e9c2dd;
      }

      .cls-38 {
        fill: #deb6dc;
      }

      .cls-39 {
        fill: #5454ae;
      }

      .cls-40 {
        fill: #8f8ecb;
      }

      .cls-41 {
        fill: #8c80c1;
      }

      .cls-42 {
        fill: #aea3d9;
      }

      .cls-43 {
        fill: #454eaa;
      }

      .cls-44 {
        fill: #4c59b1;
      }

      .cls-45 {
        fill: #f2d2eb;
      }

      .cls-46 {
        fill: #886cb2;
      }
    </style>
  </defs>
  <g id="Layer_1-2" data-name="Layer 1">
    <g>
      <path class="cls-28" d="m29.26,39.61l-15.15-8.98c-.12-.07-.16-.23-.09-.35l12.23-20.63c.07-.12.23-.16.35-.09l15.15,8.98c.12.07.16.23.09.35l-12.23,20.63c-.07.12-.23.16-.35.09Z"/>
      <path class="cls-38" d="m33.25,38.69s0,0,0,0l-.28-.05h0s.28.05.28.05Z"/>
      <path class="cls-38" d="m31.55,38.38l-.34-.06h0l.34.06h0Z"/>
      <path class="cls-37" d="m31.84,38.43l-.29-.05h0s.29.05.29.05Z"/>
      <path class="cls-38" d="m33.54,38.49l.04-.19-.03.19s0,0,0,0Zm.31-1.66l.07-.38-.07.38Z"/>
      <path class="cls-38" d="m33.64,37.97l.15-.8-.15.8h0Z"/>
      <path class="cls-38" d="m33.99,36.07l.6-3.27h0s-.6,3.27-.6,3.27h0Z"/>
      <path class="cls-37" d="m33.58,38.3l.06-.33h0l-.06.33Zm.21-1.14l.06-.33-.06.33Z"/>
      <path class="cls-37" d="m33.92,36.46l.07-.38h0l-.07.38Z"/>
      <path class="cls-37" d="m34.59,32.81h0s.05-.28.05-.28l-.05.28Z"/>
      <path class="cls-38" d="m23.77,36.95l-1.61-.3h0s1.61.3,1.61.3h0Zm-1.88-.35l-3.49-.64h0l3.49.64h0Zm-5-.92h0l-.3-.06h0s.3.06.3.06Z"/>
      <path class="cls-15" d="m31.21,38.32l-.8-.15h0s.8.15.8.15h0Z"/>
      <path class="cls-15" d="m23.89,36.97l-.12-.02h0l.12.02h0Z"/>
      <path class="cls-15" d="m25.22,37.21l-1.01-.19h0s1.01.19,1.01.19h0Z"/>
      <path class="cls-12" d="m24.21,37.03l-.32-.06h0s.32.06.32.06h0Z"/>
      <path class="cls-17" d="m34.94,30.92h0s.1-.55.1-.55l-.1.55Z"/>
      <path class="cls-12" d="m34.64,32.53l.09-.5h0s-.09.5-.09.5Z"/>
      <path class="cls-33" d="m30.41,38.17l-5.19-.96h0l5.19.96h0Zm4.63-7.8l.07-.38h0l-.07.38Zm.9-4.89l.06-.35-.06.35Z"/>
      <path class="cls-4" d="m35.24,17.49h-.03s-4.34-.8-4.34-.8c-.08-.01-.12-.09-.11-.16.01-.08.09-.12.16-.11l4.34.8c.08.01.12.09.11.16-.01.07-.07.11-.14.11Z"/>
      <path class="cls-4" d="m34.98,18.88h-.03s-4.34-.8-4.34-.8c-.08-.01-.12-.09-.11-.16.01-.08.09-.12.16-.11l4.34.8c.08.01.12.09.11.16-.01.07-.07.11-.14.11Z"/>
      <path class="cls-4" d="m34.71,20.38h-.03s-4.34-.8-4.34-.8c-.08-.01-.12-.09-.11-.16.01-.07.08-.12.16-.11l4.34.8c.08.01.12.09.11.16-.01.07-.07.11-.14.11Z"/>
      <path class="cls-2" d="m27.73,21.2l-7.08-1.31c-.15-.03-.25-.17-.22-.32l1.39-7.56c.03-.15.17-.25.32-.22l7.08,1.31c.15.03.25.17.22.32l-1.39,7.56c-.03.15-.17.25-.32.22Z"/>
      <path class="cls-23" d="m23.82,16.48c-.05,0-.11,0-.16-.01l-.11-.02c-.56-.1-.93-.64-.83-1.2l.27-1.45c.02-.11.13-.19.24-.17.11.02.19.13.17.24l-.27,1.45c-.06.34.16.66.5.72l.11.02c.26.05.51-.12.56-.39l.67-3.66c.05-.27-.13-.53-.4-.58l-.18-.03c-.29-.05-.56.14-.61.42l-.02.09c-.02.11-.13.19-.24.17-.11-.02-.19-.13-.17-.24l.02-.09c.09-.51.59-.85,1.1-.76l.18.03c.49.09.82.57.73,1.06l-.67,3.66c-.08.43-.46.73-.88.73Z"/>
      <path class="cls-4" d="m24.54,13.41h-.01s-2.77-.51-2.77-.51c-.04,0-.06-.04-.06-.08,0-.04.04-.06.08-.06l2.77.51s.06.04.06.08c0,.03-.04.06-.07.06Z"/>
      <path class="cls-4" d="m33,27.72h-.03s-13.25-2.44-13.25-2.44c-.08-.01-.12-.09-.11-.16.01-.08.09-.13.16-.11l13.25,2.44c.08.01.12.09.11.16-.01.07-.07.11-.14.11Z"/>
      <path class="cls-4" d="m32.05,32.85h-.03s-13.25-2.44-13.25-2.44c-.08-.01-.12-.09-.11-.16.01-.08.09-.13.16-.11l13.25,2.44c.08.01.12.09.11.16-.01.07-.07.11-.14.11Z"/>
      <path class="cls-4" d="m25.54,29h-.03s-6.26-1.16-6.26-1.16c-.08-.01-.13-.09-.11-.16.01-.08.09-.13.16-.11l6.26,1.15c.08.01.12.09.11.16-.01.07-.07.11-.14.11Z"/>
      <path class="cls-4" d="m26.41,24.32h-.03s-6.26-1.16-6.26-1.16c-.08-.01-.12-.09-.11-.16.01-.08.09-.12.16-.11l6.26,1.15c.08.01.12.09.11.16-.01.07-.07.11-.14.11Z"/>
      <path class="cls-4" d="m32.53,30.26h-.03s-5.97-1.1-5.97-1.1c-.08-.01-.12-.09-.11-.16.01-.07.09-.13.16-.11l5.97,1.1c.08.01.12.09.11.16-.01.07-.07.11-.14.11Z"/>
      <path class="cls-4" d="m.91,0h17.67c.36,0,.64.29.64.64v26.03c0,1.23-1,2.22-2.22,2.22H4.74c-2.62,0-4.74-2.12-4.74-4.74V.91C0,.41.41,0,.91,0Z"/>
      <path class="cls-20" d="m0,.91V.23C0,.1.1,0,.22,0h.69C.41,0,0,.41,0,.91Z"/>
      <path class="cls-30" d="m1.71,23.93c-.26-.43-.74-.72-1.28-.72h-.43V.91C0,.41.41,0,.91,0h17.67H1.86C1.78,0,1.71.07,1.71.15v23.78Z"/>
      <path class="cls-8" d="m19.23,8.48V.35c0-.19-.15-.35-.35-.35h.07c.15,0,.27.12.27.27v8.21Z"/>
      <path class="cls-25" d="m19.23,8.48V.64c0-.36-.29-.64-.64-.64h.3c.19,0,.35.15.35.35v8.14Z"/>
      <path class="cls-18" d="m7.06,27.18h-3.65c-.82,0-1.49-.67-1.49-1.49v-.98c0-.28-.08-.55-.22-.78V.15C1.71.07,1.78,0,1.86,0h16.72c.36,0,.64.29.64.64v7.84c-1.81,1.2-3.21,2.96-3.98,5.02h-6.93c-.08,0-.14.06-.14.14s.06.14.14.14h6.84c-.26.76-.43,1.56-.51,2.39H5c-.08,0-.14.06-.14.14s.06.14.14.14h9.62c-.01.22-.02.44-.02.66,0,2.87,1.17,5.46,3.06,7.34H7.44v1.22c0,.54-.13,1.05-.37,1.5Z"/>
      <path class="cls-6" d="m4.39,28.89h0s15.45,0,15.45,0c1.78,0,3.22-1.44,3.22-3.22v-1.22H7.44v1.22c0,1.72-1.35,3.12-3.04,3.21Z"/>
      <path class="cls-36" d="m20.19,28.9h-3.31,2.95c.7,0,1.35-.22,1.87-.6l.12.02c-.46.37-1.03.58-1.64.58Zm1.9-.81l-.1-.02c.27-.24.49-.53.67-.85.01,0,.03,0,.04,0-.16.32-.36.61-.61.86Z"/>
      <path class="cls-27" d="m21.83,28.32l-.12-.02c.1-.07.19-.15.28-.23l.1.02c-.08.08-.17.16-.26.23Z"/>
      <path class="cls-32" d="m19.84,28.9h-3.24v-.32c0-.77-.62-1.4-1.4-1.4h-6.38c.21-.45.33-.96.33-1.5v-1.22h8.51c1.35,1.35,3.08,2.33,5.01,2.76-.17.32-.4.6-.67.85-.09.08-.18.16-.28.23-.53.38-1.18.6-1.87.6Z"/>
      <path class="cls-4" d="m16.31,21.12H5.21c-.08,0-.14-.06-.14-.14s.06-.14.14-.14h11.11c.08,0,.14.06.14.14s-.06.14-.14.14Z"/>
      <path class="cls-4" d="m16.54,16.45H5c-.08,0-.14-.06-.14-.14s.06-.14.14-.14h11.55c.08,0,.14.06.14.14s-.06.14-.14.14Z"/>
      <path class="cls-4" d="m10.76,18.78h-5.9c-.08,0-.14-.06-.14-.14s.06-.14.14-.14h5.9c.08,0,.14.06.14.14s-.06.14-.14.14Z"/>
      <path class="cls-4" d="m10.31,18.78h-5.01c-.08,0-.14-.06-.14-.14s.06-.14.14-.14h5.01c.08,0,.14.06.14.14s-.06.14-.14.14Z"/>
      <path class="cls-4" d="m12.68,11.45h-7.6c-.08,0-.14-.06-.14-.14s.06-.14.14-.14h7.6c.08,0,.14.06.14.14s-.06.14-.14.14Z"/>
      <path class="cls-4" d="m16.2,11.45h-2.32c-.08,0-.14-.06-.14-.14s.06-.14.14-.14h2.32c.08,0,.14.06.14.14s-.06.14-.14.14Z"/>
      <path class="cls-4" d="m16.55,13.78h-8.23c-.08,0-.14-.06-.14-.14s.06-.14.14-.14h8.23c.08,0,.14.06.14.14s-.06.14-.14.14Z"/>
      <path class="cls-4" d="m7.5,13.78h-2.5c-.08,0-.14-.06-.14-.14s.06-.14.14-.14h2.5c.08,0,.14.06.14.14s-.06.14-.14.14Z"/>
      <path class="cls-4" d="m16.31,9.47H5.21c-.08,0-.14-.06-.14-.14s.06-.14.14-.14h11.11c.08,0,.14.06.14.14s-.06.14-.14.14Z"/>
      <path class="cls-4" d="m16.31,4.79H5.21c-.08,0-.14-.06-.14-.14s.06-.14.14-.14h11.11c.08,0,.14.06.14.14s-.06.14-.14.14Z"/>
      <path class="cls-4" d="m9.28,7.13h-4.2c-.08,0-.14-.06-.14-.14s.06-.14.14-.14h4.2c.08,0,.14.06.14.14s-.06.14-.14.14Z"/>
      <path class="cls-4" d="m16.23,7.13h-5.01c-.08,0-.14-.06-.14-.14s.06-.14.14-.14h5.01c.08,0,.14.06.14.14s-.06.14-.14.14Z"/>
      <path class="cls-13" d="m19.23,16.16v-1.74c.14-.32.3-.63.49-.92l-.49,2.66Zm13.15-3.18l-5.77-3.42s-.09-.04-.13-.04c-.09,0-.17.04-.22.13l-1.03,1.74c-.13-.19-.33-.32-.58-.37l-.18-.03c-.06-.01-.11-.02-.17-.02-.45,0-.84.32-.93.77l-.02.09s0,.09.02.13l-1.89-.35c1.15-.84,2.56-1.34,4.09-1.34.31,0,.55-.25.55-.55s-.25-.55-.55-.55c-2.57,0-4.86,1.22-6.33,3.1v-1.41c1.51-1.39,3.53-2.24,5.73-2.24,1.08,0,2.11.2,3.07.57v.7c0,.34.28.63.63.63h1.65c.84.68,1.54,1.52,2.07,2.46Zm-7.65-.76l-1.04-.19s.05-.07.06-.11l.02-.09c.05-.25.27-.43.52-.43.03,0,.06,0,.1,0l.18.03c.2.04.36.2.4.39l-.23.39Z"/>
      <path class="cls-31" d="m32.73,13.69l-7.4-1.36.04-.24c.05-.25-.02-.5-.15-.69l1.03-1.74c.05-.08.13-.13.22-.13.04,0,.09.01.13.04l5.77,3.42c.13.23.25.47.36.71Zm-7.81-1.44l-.19-.04.23-.39c.01.06.01.12,0,.19l-.04.24Z"/>
      <path class="cls-4" d="m32.73,13.69l-7.4-1.36h0s7.4,1.36,7.4,1.36h0Zm-7.81-1.44l-1.23-.23,1.04.19.19.04h0Zm-1.56-.29l-1.89-.35h0s1.89.35,1.89.35c0,0,0,0,0,0Z"/>
      <path class="cls-45" d="m19.23,16.16l.49-2.66h0s-.49,2.66-.49,2.66Z"/>
      <path class="cls-1" d="m24.97,25.6c-.66,0-1.3-.07-1.91-.22v-.93h-2.34c-.53-.31-1.03-.68-1.48-1.09v-7.2l.49-2.66c.46-.73,1.06-1.37,1.75-1.88l1.89.35s0,.01,0,.02l-1.23-.23s-.03,0-.05,0c-.13,0-.25.09-.27.23l-1.34,7.28-.06.31s0,0,0,0l-.07.4c-.03.15.07.3.22.32l7.43,1.37s.03,0,.05,0c.13,0,.25-.09.27-.23l1.47-7.99c.03-.15-.07-.3-.22-.32l-4.24-.78h0s7.4,1.35,7.4,1.35c.43.98.69,2.06.72,3.19l-2.52-.46s-.02,0-.03,0c-.07,0-.12.05-.14.11-.01.08.04.15.11.16l2.57.47c0,.38-.03.76-.08,1.14l-2.69-.5s-.02,0-.03,0c-.07,0-.12.05-.14.11-.01.08.04.15.11.16l2.7.5c-.07.42-.18.82-.31,1.22l-2.62-.48s-.02,0-.03,0c-.07,0-.12.05-.14.11-.01.08.04.15.11.16l2.58.48c-1.2,3.23-4.31,5.54-7.96,5.54Zm-4.82-2.71c-.07,0-.12.05-.14.11-.01.08.04.15.11.16l6.26,1.15h.03c.07,0,.12-.04.14-.11.01-.08-.04-.15-.11-.16l-6.26-1.15s-.02,0-.03,0Zm4.77-10.62l-1.24-.23s0,0,.01-.01l1.23.23h0Z"/>
      <path class="cls-4" d="m33.45,17.16l-2.57-.47c-.08-.01-.12-.09-.11-.16.01-.07.07-.11.14-.11,0,0,.02,0,.03,0l2.52.46c0,.08,0,.15,0,.23,0,.02,0,.03,0,.05Z"/>
      <path class="cls-4" d="m33.32,18.57l-2.7-.5c-.08-.01-.12-.09-.11-.16.01-.07.07-.11.14-.11,0,0,.02,0,.03,0l2.69.5c-.01.09-.03.18-.04.27Z"/>
      <path class="cls-4" d="m32.92,20.06l-2.58-.48c-.08-.01-.12-.09-.11-.16.01-.07.07-.11.14-.11,0,0,.02,0,.03,0l2.62.48c-.03.09-.06.18-.09.26Z"/>
      <path class="cls-35" d="m28.05,21.67s-.03,0-.05,0l-7.43-1.37c-.15-.03-.25-.17-.22-.32l.07-.4c-.03.15.07.29.22.32l7.08,1.31s.03,0,.05,0c.13,0,.25-.09.27-.23l1.26-6.85.09-.48.04-.24s0,0,0,0v-.02c.03-.14-.06-.28-.21-.3l-3.92-.72v-.03s4.25.78,4.25.78c.15.03.25.17.22.32l-1.47,7.99c-.02.13-.14.23-.27.23Zm-7.57-2.4l1.34-7.28c.02-.13.14-.23.27-.23.02,0,.03,0,.05,0l1.23.23s.01.02.02.03l-1.26-.23s-.03,0-.05,0c-.13,0-.24.09-.26.22l-.02.09-1.32,7.17Zm4.44-6.97l-1.27-.23s.02-.01.03-.02l1.24.23v.03Z"/>
      <path class="cls-11" d="m27.78,21.2s-.03,0-.05,0l-7.08-1.31c-.15-.03-.25-.17-.22-.32,0,0,0,0,0,0l.06-.31,1.32-7.17-.12.63,3.05.56-.44,2.39c-.04.23-.25.39-.47.39-.03,0-.06,0-.09,0l-.11-.02c-.34-.06-.56-.39-.5-.72l.27-1.45c.02-.11-.05-.22-.17-.24-.01,0-.03,0-.04,0-.1,0-.19.07-.2.17l-.27,1.45c-.1.56.27,1.1.83,1.2l.11.02c.05.01.11.02.16.02.42,0,.8-.3.88-.73l.44-2.39,4.17.77-1.26,6.85c-.02.13-.14.23-.27.23Zm-6.01-8.44s-.06.02-.07.06c0,.04.02.07.06.08l2.77.51h.01s.06-.02.07-.06c0-.04-.02-.07-.06-.08l-2.77-.51s0,0-.01,0Zm7.63.89l.04-.24s0,0,0,0l-.04.24Z"/>
      <path class="cls-21" d="m29.31,14.13l.09-.48-.09.48Zm.13-.71c.03-.15-.07-.29-.22-.32l-3.9-.72,3.92.72c.14.03.23.16.21.3v.02Z"/>
      <path class="cls-9" d="m29.31,14.13l-4.17-.77.18-.99,3.9.72c.15.03.25.17.22.32l-.04.24-.09.48Z"/>
      <path class="cls-21" d="m24.91,12.3l-1.27-.23h0l1.27.23Zm-3.11-.2l.02-.09c.02-.13.14-.22.26-.22.02,0,.03,0,.05,0l1.26.23-1.26-.23s-.03,0-.05,0c-.13,0-.25.09-.27.23l-.02.09Z"/>
      <path class="cls-9" d="m24.73,13.28l-3.05-.56.12-.63.02-.09c.02-.13.14-.23.27-.23.02,0,.03,0,.05,0l1.26.23s.07.06.12.07c.01,0,.02,0,.04,0,.03,0,.07,0,.1-.02l1.27.23-.18.99Z"/>
      <path class="cls-14" d="m23.82,16.48c-.05,0-.11,0-.16-.01l-.11-.02c-.56-.1-.93-.64-.83-1.2l.27-1.45c.02-.1.11-.17.2-.17.01,0,.03,0,.04,0,.11.02.19.13.17.24l-.27,1.45c-.06.34.16.66.5.72l.11.02s.06,0,.09,0c.23,0,.43-.16.47-.39l.44-2.39.18-.99v-.03s0-.01,0-.01h0s.04-.24.04-.24c.01-.06.01-.13,0-.19-.04-.19-.19-.35-.4-.39l-.18-.03s-.06,0-.1,0c-.25,0-.47.18-.52.43l-.02.09s-.03.08-.06.11c0,0,0,0-.01.01,0,0-.02.01-.03.02h0s-.06.02-.1.02c-.01,0-.02,0-.04,0-.05,0-.09-.03-.12-.07,0,0-.02-.02-.02-.03,0,0,0-.01,0-.02,0,0,0,0,0,0-.02-.04-.03-.08-.02-.13l.02-.09c.08-.45.48-.77.93-.77.06,0,.11,0,.17.02l.18.03c.24.04.44.18.58.37.14.19.2.44.15.69l-.04.24h0s0,.01,0,.01v.03s-.19.99-.19.99l-.44,2.39c-.08.43-.46.73-.88.73Z"/>
      <path class="cls-4" d="m24.54,13.41h-.01s-2.77-.51-2.77-.51c-.04,0-.06-.04-.06-.08,0-.03.03-.06.07-.06,0,0,0,0,.01,0l2.77.51s.06.04.06.08c0,.03-.04.06-.07.06Z"/>
      <path class="cls-4" d="m26.41,24.32h-.03s-6.26-1.16-6.26-1.16c-.08-.01-.12-.09-.11-.16.01-.07.07-.11.14-.11,0,0,.02,0,.03,0l6.26,1.15c.08.01.12.09.11.16-.01.07-.07.11-.14.11Z"/>
      <path class="cls-42" d="m30.3,10.52h-1.65c-.34,0-.63-.28-.63-.63v-.7c.83.32,1.59.77,2.27,1.32Z"/>
      <path class="cls-19" d="m19.23,23.36c-1.69-1.55-2.75-3.78-2.75-6.25,0-.22,0-.44.03-.66h.04c.08,0,.14-.06.14-.14s-.06-.14-.14-.14h-.01c.23-2.09,1.23-3.96,2.7-5.31v1.41c-1.06,1.36-1.69,3.06-1.69,4.91,0,.31.25.55.55.55s.55-.25.55-.55c0-.98.21-1.92.58-2.77v8.94Z"/>
      <path class="cls-34" d="m23.06,25.38c-.83-.19-1.62-.51-2.34-.93h2.34v.93Z"/>
      <path class="cls-4" d="m16.55,16.45h-.04c0-.09.02-.19.03-.28h.01c.08,0,.14.06.14.14s-.06.14-.14.14Z"/>
      <path class="cls-3" d="m19.23,14.42v-2.15c1.47-1.89,3.76-3.1,6.33-3.1.31,0,.55.25.55.55s-.25.55-.55.55c-1.53,0-2.94.5-4.09,1.34l-1.36-.25-.05.25s0,0,0,0l-.35,1.88c-.19.29-.35.6-.49.92Z"/>
      <path class="cls-4" d="m21.47,11.62l-1.11-.2s-.03,0-.05,0c-.12,0-.23.08-.25.21l.05-.25,1.36.25h0Z"/>
      <path class="cls-7" d="m19.72,13.5l.35-1.88s0,0,0,0l-.35,1.88h0Z"/>
      <path class="cls-3" d="m19.72,13.5l.35-1.88c.02-.12.13-.21.25-.21.02,0,.03,0,.05,0l1.11.2c-.69.51-1.29,1.15-1.75,1.88Z"/>
      <path class="cls-3" d="m18.1,17.74c-.31,0-.55-.25-.55-.55,0-1.85.63-3.55,1.69-4.91v2.15c-.37.85-.58,1.78-.58,2.77,0,.31-.25.55-.55.55Z"/>
      <path class="cls-5" d="m32.61,13.12l-.23-.14c-.53-.95-1.24-1.78-2.07-2.46h.22c.85.72,1.57,1.6,2.09,2.6Z"/>
      <path class="cls-46" d="m32.9,13.73l-.16-.03c-.11-.24-.23-.48-.36-.71l.23.14c.1.2.2.4.29.6Z"/>
      <path class="cls-40" d="m32.9,13.73l-.16-.03h0s.16.03.16.03Z"/>
      <path class="cls-41" d="m24.97,25.73c-.66,0-1.29-.07-1.91-.21v-.14c.61.14,1.25.22,1.91.22,3.64,0,6.76-2.31,7.96-5.54l.14.03c-1.21,3.3-4.38,5.65-8.1,5.65Zm8.19-5.92l-.14-.03c.13-.39.23-.8.31-1.22l.14.03c-.07.42-.18.82-.31,1.22Zm.35-1.49l-.14-.03c.05-.37.08-.75.08-1.14l.14.03c0,.38-.03.76-.08,1.13Zm.08-1.42l-.14-.03c-.03-1.13-.28-2.21-.72-3.19l.16.03c.42.98.66,2.06.69,3.18Z"/>
      <path class="cls-40" d="m33.59,17.19l-.14-.03s0-.03,0-.05c0-.08,0-.15,0-.23l.14.03c0,.07,0,.14,0,.2,0,.03,0,.05,0,.08Z"/>
      <path class="cls-40" d="m33.46,18.6l-.14-.03c.02-.09.03-.18.04-.27l.14.02c-.01.09-.03.18-.04.27Z"/>
      <path class="cls-40" d="m33.06,20.08l-.14-.03c.03-.09.06-.18.09-.26l.14.03c-.03.09-.06.18-.09.26Z"/>
      <path class="cls-5" d="m19.23,10.86v-.19c1.53-1.36,3.53-2.19,5.73-2.19,1.08,0,2.11.2,3.07.56v.15c-.95-.37-1.99-.57-3.07-.57-2.21,0-4.22.85-5.73,2.24Z"/>
      <path class="cls-16" d="m30.52,10.52h-.22c-.68-.55-1.44-1-2.27-1.32v-.15c.91.35,1.75.85,2.49,1.47Z"/>
      <path class="cls-41" d="m20.72,24.45h-.27c-.43-.27-.84-.57-1.22-.91v-.19c.45.42.95.78,1.48,1.09Z"/>
      <path class="cls-10" d="m19.23,23.55c-1.77-1.58-2.89-3.88-2.89-6.44,0-.22,0-.44.03-.66h.14c-.02.22-.03.44-.03.66,0,2.47,1.06,4.7,2.75,6.25v.19Z"/>
      <path class="cls-10" d="m16.53,16.17h-.14c.24-2.18,1.29-4.11,2.84-5.49v.19c-1.47,1.35-2.47,3.22-2.7,5.31Z"/>
      <path class="cls-39" d="m23.06,25.52c-.94-.21-1.82-.58-2.61-1.07h.27c.72.42,1.51.73,2.34.93v.14Z"/>
      <path class="cls-40" d="m16.51,16.45h-.14c0-.09.02-.19.03-.28h.14c-.01.09-.02.18-.03.28Z"/>
      <path class="cls-23" d="m24.96,25.87c-4.84,0-8.76-3.92-8.76-8.76s3.92-8.76,8.76-8.76,8.76,3.92,8.76,8.76-3.92,8.76-8.76,8.76Zm8.05-2.48s.03-.02.04-.03c1.33-1.73,2.13-3.89,2.13-6.24,0-5.65-4.58-10.23-10.23-10.23s-10.22,4.58-10.22,10.23,4.58,10.23,10.22,10.23c2.34,0,4.5-.79,6.22-2.11l1.18-1.18.65-.65Z"/>
      <path class="cls-18" d="m24.96,8.49c-4.76,0-8.62,3.87-8.62,8.62s3.87,8.62,8.62,8.62,8.62-3.87,8.62-8.62-3.87-8.62-8.62-8.62Zm0,17.52c-4.91,0-8.9-3.99-8.9-8.9s3.99-8.9,8.9-8.9,8.9,3.99,8.9,8.9-3.99,8.9-8.9,8.9Zm0-18.99c-5.56,0-10.09,4.52-10.09,10.09s4.52,10.09,10.09,10.09c2.24,0,4.36-.72,6.13-2.08l1.83-1.83s.03-.02.04-.04c1.37-1.78,2.09-3.9,2.09-6.14,0-5.56-4.52-10.09-10.09-10.09Zm0,20.45c-5.71,0-10.36-4.65-10.36-10.36s4.65-10.36,10.36-10.36,10.36,4.65,10.36,10.36c0,2.31-.75,4.5-2.16,6.33l-.03.03s-.02.01-.03.02l-1.85,1.84c-1.83,1.4-4.01,2.14-6.31,2.14Z"/>
      <path class="cls-26" d="m32.77,24.99l-.4-.4c-.15-.15-.15-.4,0-.55l-1.18,1.18-.02.02c-.15.15-.15.4,0,.55l.48.48c.16-.27.62-.79,1.12-1.29Z"/>
      <path class="cls-26" d="m32.37,24.04c-.15.15-.15.4,0,.55l.4.4c.48-.48.98-.95,1.27-1.14l-.46-.46c-.14-.14-.36-.15-.51-.03-.01.01-.03.02-.04.03l-.65.65Z"/>
      <path class="cls-22" d="m32.77,24.99l-.4-.4c-.08-.08-.11-.18-.11-.28s.04-.2.11-.28l.65-.65s.03-.02.04-.03c.07-.05.15-.08.24-.08.1,0,.2.04.27.11l.46.46c-.28.19-.79.66-1.27,1.14Z"/>
      <path class="cls-2" d="m41.45,31.04l-7.2-7.28s-.1,0-.22.09c-.28.19-.79.65-1.27,1.14-.49.5-.96,1.02-1.12,1.29-.05.09-.07.15-.05.17l7.2,7.28c.73.74,1.92.74,2.65,0,.73-.74.73-1.94,0-2.68Z"/>
      <path class="cls-29" d="m32.62,25.13s.09-.1.14-.14c.48-.48.98-.95,1.27-1.14h0c.09-.06.16-.09.19-.09.01,0,.02,0,.03,0,0,0-.01,0-.02,0-.04,0-.1.03-.19.09-.28.19-.79.65-1.27,1.14-.05.05-.09.1-.14.14Z"/>
      <path class="cls-44" d="m32.62,25.13s0,0,0,0c.05-.05.09-.09.14-.14h0s-.09.1-.14.14Z"/>
      <path class="cls-43" d="m32.76,24.99h0c.48-.48.98-.95,1.27-1.14h0c-.28.19-.79.65-1.27,1.14Z"/>
      <path class="cls-24" d="m41.32,33.77c-1.29,0-9.24-8.02-8.7-8.64.05-.05.09-.1.14-.14.48-.48.98-.95,1.27-1.14.09-.06.16-.09.19-.09.01,0,.02,0,.02,0l7.2,7.28c.37.37.55.86.55,1.34s-.18.97-.55,1.34c-.03.03-.07.04-.13.04Z"/>
      <path class="cls-4" d="m15.43,20.97s-.07-.01-.1-.04l-.87-.87c-.05-.05-.05-.14,0-.2.05-.05.14-.05.2,0l.87.87c.05.05.05.14,0,.2-.03.03-.06.04-.1.04Z"/>
    </g>
  </g>
</svg>